<ttFont>
    <TTGlyph name=".notdef" xMin="254" yMin="0" xMax="1119" yMax="1291">
      <contour>
        <pt x="1092" y="28" on="1"/>
        <pt x="1092" y="1263" on="1"/>
        <pt x="280" y="1263" on="1"/>
        <pt x="280" y="28" on="1"/>
      </contour>
      <contour>
        <pt x="254" y="1291" on="1"/>
        <pt x="1119" y="1291" on="1"/>
        <pt x="1119" y="0" on="1"/>
        <pt x="254" y="0" on="1"/>
      </contour>
    </TTGlyph>
    <TTGlyph name="A" xMin="-66" yMin="-2" xMax="1343" yMax="1438">
      <contour>
        <pt x="758" y="574" on="1"/>
        <pt x="780" y="574" on="0"/>
        <pt x="780" y="593" on="1"/>
        <pt x="780" y="602" on="0"/>
        <pt x="779" y="607" on="1"/>
        <pt x="773" y="626" on="0"/>
        <pt x="751" y="698" on="0"/>
        <pt x="723" y="792" on="0"/>
        <pt x="690" y="899" on="0"/>
        <pt x="657" y="1007" on="0"/>
        <pt x="625" y="1108" on="0"/>
        <pt x="613" y="1149" on="1"/>
        <pt x="611" y="1151" on="0"/>
        <pt x="604" y="1161" on="0"/>
        <pt x="597" y="1161" on="1"/>
        <pt x="588" y="1161" on="0"/>
        <pt x="583" y="1144" on="1"/>
        <pt x="574" y="1119" on="0"/>
        <pt x="543" y="1027" on="0"/>
        <pt x="505" y="915" on="0"/>
        <pt x="464" y="795" on="0"/>
        <pt x="428" y="692" on="0"/>
        <pt x="402" y="617" on="0"/>
        <pt x="398" y="605" on="1"/>
        <pt x="396" y="602" on="0"/>
        <pt x="396" y="597" on="1"/>
        <pt x="396" y="574" on="0"/>
        <pt x="427" y="574" on="1"/>
      </contour>
      <contour>
        <pt x="-66" y="26" on="1"/>
        <pt x="-66" y="43" on="0"/>
        <pt x="-31" y="49" on="0"/>
        <pt x="4" y="55" on="1"/>
        <pt x="69" y="69" on="0"/>
        <pt x="155" y="155" on="0"/>
        <pt x="213" y="266" on="0"/>
        <pt x="252" y="386" on="0"/>
        <pt x="270" y="434" on="1"/>
        <pt x="526" y="1135" on="1"/>
        <pt x="535" y="1161" on="0"/>
        <pt x="550" y="1182" on="0"/>
        <pt x="560" y="1197" on="0"/>
        <pt x="566" y="1217" on="0"/>
        <pt x="566" y="1242" on="1"/>
        <pt x="566" y="1253" on="0"/>
        <pt x="560" y="1271" on="0"/>
        <pt x="553" y="1290" on="0"/>
        <pt x="547" y="1313" on="0"/>
        <pt x="547" y="1330" on="1"/>
        <pt x="573" y="1333" on="0"/>
        <pt x="620" y="1344" on="0"/>
        <pt x="640" y="1358" on="1"/>
        <pt x="651" y="1366" on="0"/>
        <pt x="667" y="1393" on="0"/>
        <pt x="685" y="1419" on="0"/>
        <pt x="709" y="1438" on="0"/>
        <pt x="729" y="1438" on="1"/>
        <pt x="731" y="1438" on="0"/>
        <pt x="735" y="1436" on="0"/>
        <pt x="737" y="1431" on="1"/>
        <pt x="739" y="1426" on="0"/>
        <pt x="760" y="1358" on="0"/>
        <pt x="795" y="1245" on="0"/>
        <pt x="840" y="1097" on="0"/>
        <pt x="891" y="930" on="0"/>
        <pt x="946" y="750" on="0"/>
        <pt x="1000" y="575" on="0"/>
        <pt x="1049" y="412" on="0"/>
        <pt x="1091" y="278" on="0"/>
        <pt x="1121" y="179" on="0"/>
        <pt x="1128" y="156" on="1"/>
        <pt x="1139" y="123" on="0"/>
        <pt x="1187" y="73" on="0"/>
        <pt x="1216" y="64" on="1"/>
        <pt x="1245" y="54" on="0"/>
        <pt x="1292" y="52" on="0"/>
        <pt x="1325" y="50" on="0"/>
        <pt x="1343" y="38" on="0"/>
        <pt x="1343" y="19" on="1"/>
        <pt x="1343" y="13" on="0"/>
        <pt x="1335" y="6" on="0"/>
        <pt x="1323" y="2" on="0"/>
        <pt x="1310" y="1" on="0"/>
        <pt x="1306" y="0" on="1"/>
        <pt x="1216" y="0" on="1"/>
        <pt x="1208" y="0" on="0"/>
        <pt x="1190" y="1" on="0"/>
        <pt x="1153" y="2" on="0"/>
        <pt x="1089" y="3" on="0"/>
        <pt x="1036" y="3" on="1"/>
        <pt x="980" y="3" on="0"/>
        <pt x="873" y="0" on="0"/>
        <pt x="818" y="-2" on="1"/>
        <pt x="767" y="-2" on="1"/>
        <pt x="759" y="-2" on="0"/>
        <pt x="739" y="-1" on="0"/>
        <pt x="721" y="3" on="0"/>
        <pt x="709" y="13" on="0"/>
        <pt x="709" y="22" on="1"/>
        <pt x="709" y="30" on="0"/>
        <pt x="725" y="40" on="0"/>
        <pt x="747" y="46" on="0"/>
        <pt x="771" y="49" on="0"/>
        <pt x="779" y="50" on="1"/>
        <pt x="813" y="55" on="0"/>
        <pt x="877" y="68" on="0"/>
        <pt x="908" y="74" on="1"/>
        <pt x="931" y="81" on="0"/>
        <pt x="931" y="99" on="1"/>
        <pt x="931" y="101" on="0"/>
        <pt x="931" y="110" on="0"/>
        <pt x="929" y="114" on="1"/>
        <pt x="820" y="472" on="1"/>
        <pt x="818" y="480" on="0"/>
        <pt x="801" y="500" on="0"/>
        <pt x="789" y="500" on="1"/>
        <pt x="383" y="500" on="1"/>
        <pt x="369" y="500" on="0"/>
        <pt x="359" y="491" on="0"/>
        <pt x="355" y="486" on="1"/>
        <pt x="303" y="346" on="1"/>
        <pt x="290" y="312" on="0"/>
        <pt x="280" y="257" on="0"/>
        <pt x="280" y="232" on="1"/>
        <pt x="280" y="202" on="0"/>
        <pt x="286" y="166" on="1"/>
        <pt x="291" y="130" on="0"/>
        <pt x="329" y="90" on="0"/>
        <pt x="380" y="70" on="0"/>
        <pt x="438" y="63" on="0"/>
        <pt x="486" y="57" on="0"/>
        <pt x="517" y="46" on="0"/>
        <pt x="517" y="31" on="1"/>
        <pt x="517" y="22" on="0"/>
        <pt x="506" y="2" on="0"/>
        <pt x="486" y="0" on="1"/>
        <pt x="443" y="0" on="1"/>
        <pt x="384" y="2" on="0"/>
        <pt x="273" y="7" on="0"/>
        <pt x="213" y="7" on="1"/>
        <pt x="147" y="7" on="0"/>
        <pt x="40" y="0" on="0"/>
        <pt x="-14" y="0" on="1"/>
        <pt x="-27" y="0" on="1"/>
        <pt x="-66" y="0" on="0"/>
      </contour>
    </TTGlyph>
    <TTGlyph name="AE" xMin="-56" yMin="-3" xMax="1866" yMax="1470">
      <contour>
        <pt x="936" y="574" on="1"/>
        <pt x="947" y="574" on="0"/>
        <pt x="960" y="584" on="0"/>
        <pt x="965" y="593" on="1"/>
        <pt x="965" y="1152" on="1"/>
        <pt x="961" y="1161" on="0"/>
        <pt x="953" y="1161" on="1"/>
        <pt x="944" y="1161" on="0"/>
        <pt x="932" y="1144" on="1"/>
        <pt x="916" y="1120" on="0"/>
        <pt x="856" y="1028" on="0"/>
        <pt x="783" y="916" on="0"/>
        <pt x="707" y="796" on="0"/>
        <pt x="640" y="692" on="0"/>
        <pt x="592" y="617" on="0"/>
        <pt x="585" y="605" on="1"/>
        <pt x="581" y="603" on="0"/>
        <pt x="581" y="597" on="1"/>
        <pt x="579" y="593" on="0"/>
        <pt x="579" y="588" on="0"/>
        <pt x="579" y="586" on="1"/>
        <pt x="579" y="580" on="0"/>
        <pt x="594" y="574" on="0"/>
        <pt x="605" y="574" on="1"/>
      </contour>
      <contour>
        <pt x="-56" y="26" on="1"/>
        <pt x="-56" y="36" on="0"/>
        <pt x="-45" y="45" on="0"/>
        <pt x="-25" y="49" on="0"/>
        <pt x="3" y="52" on="0"/>
        <pt x="21" y="55" on="1"/>
        <pt x="90" y="68" on="0"/>
        <pt x="203" y="154" on="0"/>
        <pt x="297" y="266" on="0"/>
        <pt x="373" y="387" on="0"/>
        <pt x="405" y="434" on="1"/>
        <pt x="875" y="1135" on="1"/>
        <pt x="893" y="1161" on="0"/>
        <pt x="913" y="1182" on="0"/>
        <pt x="927" y="1197" on="0"/>
        <pt x="938" y="1217" on="0"/>
        <pt x="946" y="1242" on="1"/>
        <pt x="947" y="1246" on="0"/>
        <pt x="954" y="1274" on="0"/>
        <pt x="961" y="1304" on="0"/>
        <pt x="966" y="1327" on="0"/>
        <pt x="965" y="1327" on="1"/>
        <pt x="965" y="1357" on="0"/>
        <pt x="921" y="1393" on="0"/>
        <pt x="856" y="1414" on="0"/>
        <pt x="785" y="1422" on="0"/>
        <pt x="758" y="1424" on="1"/>
        <pt x="750" y="1424" on="0"/>
        <pt x="737" y="1427" on="0"/>
        <pt x="737" y="1438" on="1"/>
        <pt x="737" y="1444" on="0"/>
        <pt x="747" y="1451" on="0"/>
        <pt x="761" y="1455" on="0"/>
        <pt x="777" y="1457" on="0"/>
        <pt x="782" y="1457" on="1"/>
        <pt x="789" y="1457" on="0"/>
        <pt x="835" y="1456" on="0"/>
        <pt x="901" y="1454" on="0"/>
        <pt x="984" y="1453" on="0"/>
        <pt x="1029" y="1453" on="1"/>
        <pt x="1106" y="1453" on="0"/>
        <pt x="1217" y="1458" on="0"/>
        <pt x="1308" y="1465" on="0"/>
        <pt x="1390" y="1470" on="0"/>
        <pt x="1439" y="1470" on="1"/>
        <pt x="1467" y="1470" on="0"/>
        <pt x="1507" y="1470" on="0"/>
        <pt x="1564" y="1469" on="0"/>
        <pt x="1657" y="1467" on="0"/>
        <pt x="1740" y="1465" on="1"/>
        <pt x="1751" y="1464" on="0"/>
        <pt x="1765" y="1448" on="0"/>
        <pt x="1768" y="1439" on="1"/>
        <pt x="1770" y="1370" on="0"/>
        <pt x="1773" y="1243" on="0"/>
        <pt x="1773" y="1173" on="1"/>
        <pt x="1773" y="1159" on="0"/>
        <pt x="1768" y="1159" on="1"/>
        <pt x="1765" y="1159" on="0"/>
        <pt x="1759" y="1160" on="0"/>
        <pt x="1757" y="1164" on="1"/>
        <pt x="1749" y="1180" on="0"/>
        <pt x="1730" y="1219" on="0"/>
        <pt x="1711" y="1258" on="0"/>
        <pt x="1692" y="1293" on="0"/>
        <pt x="1683" y="1306" on="1"/>
        <pt x="1670" y="1325" on="0"/>
        <pt x="1627" y="1366" on="0"/>
        <pt x="1575" y="1400" on="0"/>
        <pt x="1517" y="1422" on="0"/>
        <pt x="1488" y="1424" on="1"/>
        <pt x="1470" y="1425" on="0"/>
        <pt x="1443" y="1426" on="0"/>
        <pt x="1417" y="1426" on="0"/>
        <pt x="1389" y="1426" on="0"/>
        <pt x="1370" y="1426" on="1"/>
        <pt x="1332" y="1426" on="0"/>
        <pt x="1248" y="1422" on="0"/>
        <pt x="1209" y="1415" on="1"/>
        <pt x="1201" y="1413" on="0"/>
        <pt x="1181" y="1404" on="0"/>
        <pt x="1181" y="1393" on="1"/>
        <pt x="1181" y="766" on="1"/>
        <pt x="1184" y="754" on="0"/>
        <pt x="1197" y="749" on="1"/>
        <pt x="1254" y="754" on="0"/>
        <pt x="1383" y="763" on="0"/>
        <pt x="1439" y="763" on="1"/>
        <pt x="1467" y="765" on="0"/>
        <pt x="1512" y="796" on="0"/>
        <pt x="1547" y="844" on="0"/>
        <pt x="1572" y="900" on="0"/>
        <pt x="1592" y="954" on="0"/>
        <pt x="1607" y="998" on="0"/>
        <pt x="1614" y="1009" on="1"/>
        <pt x="1618" y="1013" on="0"/>
        <pt x="1625" y="1017" on="0"/>
        <pt x="1636" y="1017" on="1"/>
        <pt x="1655" y="1017" on="0"/>
        <pt x="1655" y="1005" on="1"/>
        <pt x="1655" y="969" on="0"/>
        <pt x="1651" y="913" on="0"/>
        <pt x="1646" y="869" on="0"/>
        <pt x="1642" y="833" on="0"/>
        <pt x="1642" y="815" on="1"/>
        <pt x="1642" y="441" on="1"/>
        <pt x="1640" y="438" on="0"/>
        <pt x="1636" y="436" on="1"/>
        <pt x="1629" y="431" on="0"/>
        <pt x="1624" y="431" on="1"/>
        <pt x="1616" y="431" on="0"/>
        <pt x="1602" y="460" on="0"/>
        <pt x="1588" y="505" on="0"/>
        <pt x="1573" y="559" on="0"/>
        <pt x="1557" y="611" on="0"/>
        <pt x="1538" y="653" on="0"/>
        <pt x="1526" y="663" on="1"/>
        <pt x="1509" y="677" on="0"/>
        <pt x="1433" y="693" on="0"/>
        <pt x="1345" y="700" on="0"/>
        <pt x="1262" y="701" on="0"/>
        <pt x="1240" y="701" on="1"/>
        <pt x="1221" y="701" on="0"/>
        <pt x="1197" y="698" on="0"/>
        <pt x="1183" y="686" on="0"/>
        <pt x="1178" y="665" on="0"/>
        <pt x="1178" y="647" on="1"/>
        <pt x="1178" y="220" on="1"/>
        <pt x="1178" y="191" on="0"/>
        <pt x="1184" y="148" on="0"/>
        <pt x="1198" y="115" on="0"/>
        <pt x="1222" y="90" on="0"/>
        <pt x="1240" y="78" on="1"/>
        <pt x="1254" y="70" on="0"/>
        <pt x="1290" y="55" on="0"/>
        <pt x="1304" y="55" on="1"/>
        <pt x="1462" y="55" on="1"/>
        <pt x="1486" y="55" on="0"/>
        <pt x="1523" y="56" on="0"/>
        <pt x="1560" y="59" on="0"/>
        <pt x="1601" y="66" on="0"/>
        <pt x="1629" y="73" on="1"/>
        <pt x="1660" y="80" on="0"/>
        <pt x="1713" y="114" on="0"/>
        <pt x="1760" y="162" on="0"/>
        <pt x="1801" y="221" on="0"/>
        <pt x="1820" y="254" on="1"/>
        <pt x="1821" y="257" on="0"/>
        <pt x="1826" y="269" on="0"/>
        <pt x="1834" y="283" on="0"/>
        <pt x="1842" y="296" on="0"/>
        <pt x="1847" y="301" on="1"/>
        <pt x="1851" y="303" on="0"/>
        <pt x="1854" y="303" on="1"/>
        <pt x="1857" y="303" on="0"/>
        <pt x="1860" y="298" on="1"/>
        <pt x="1864" y="290" on="0"/>
        <pt x="1866" y="266" on="0"/>
        <pt x="1866" y="244" on="1"/>
        <pt x="1866" y="232" on="0"/>
        <pt x="1854" y="183" on="0"/>
        <pt x="1847" y="161" on="1"/>
        <pt x="1842" y="143" on="0"/>
        <pt x="1836" y="89" on="0"/>
        <pt x="1826" y="38" on="0"/>
        <pt x="1808" y="2" on="0"/>
        <pt x="1792" y="2" on="1"/>
        <pt x="1787" y="2" on="0"/>
        <pt x="1779" y="3" on="0"/>
        <pt x="1775" y="3" on="1"/>
        <pt x="1771" y="5" on="0"/>
        <pt x="1759" y="5" on="1"/>
        <pt x="1021" y="5" on="1"/>
        <pt x="997" y="5" on="0"/>
        <pt x="932" y="2" on="0"/>
        <pt x="866" y="-1" on="0"/>
        <pt x="807" y="-3" on="0"/>
        <pt x="790" y="-3" on="1"/>
        <pt x="763" y="-3" on="1"/>
        <pt x="752" y="-3" on="0"/>
        <pt x="732" y="6" on="0"/>
        <pt x="732" y="17" on="1"/>
        <pt x="732" y="25" on="0"/>
        <pt x="736" y="43" on="0"/>
        <pt x="744" y="47" on="1"/>
        <pt x="746" y="48" on="0"/>
        <pt x="761" y="51" on="0"/>
        <pt x="779" y="53" on="0"/>
        <pt x="796" y="54" on="0"/>
        <pt x="801" y="54" on="1"/>
        <pt x="823" y="55" on="0"/>
        <pt x="856" y="58" on="0"/>
        <pt x="877" y="66" on="1"/>
        <pt x="920" y="80" on="0"/>
        <pt x="965" y="124" on="0"/>
        <pt x="965" y="170" on="1"/>
        <pt x="965" y="472" on="1"/>
        <pt x="963" y="480" on="0"/>
        <pt x="953" y="500" on="0"/>
        <pt x="943" y="500" on="1"/>
        <pt x="536" y="500" on="1"/>
        <pt x="525" y="500" on="0"/>
        <pt x="512" y="491" on="0"/>
        <pt x="505" y="486" on="1"/>
        <pt x="410" y="346" on="1"/>
        <pt x="387" y="312" on="0"/>
        <pt x="362" y="258" on="0"/>
        <pt x="353" y="232" on="1"/>
        <pt x="346" y="216" on="0"/>
        <pt x="339" y="184" on="0"/>
        <pt x="339" y="166" on="1"/>
        <pt x="339" y="130" on="0"/>
        <pt x="367" y="90" on="0"/>
        <pt x="409" y="70" on="0"/>
        <pt x="459" y="64" on="0"/>
        <pt x="501" y="58" on="0"/>
        <pt x="529" y="46" on="0"/>
        <pt x="529" y="31" on="1"/>
        <pt x="529" y="20" on="0"/>
        <pt x="512" y="2" on="0"/>
        <pt x="489" y="0" on="1"/>
        <pt x="446" y="0" on="1"/>
        <pt x="389" y="2" on="0"/>
        <pt x="278" y="7" on="0"/>
        <pt x="218" y="7" on="1"/>
        <pt x="152" y="7" on="0"/>
        <pt x="46" y="0" on="0"/>
        <pt x="-9" y="0" on="1"/>
        <pt x="-24" y="0" on="1"/>
        <pt x="-43" y="0" on="0"/>
        <pt x="-56" y="13" on="0"/>
      </contour>
    </TTGlyph>
    <TTGlyph name="Aacute" xMin="-66" yMin="-2" xMax="1343" yMax="1867">
      <component glyphName="A" x="0" y="0" flags="0x204"/>
      <component glyphName="Acute" x="144" y="0" flags="0x4"/>
    </TTGlyph>
    <TTGlyph name="Abreve" xMin="-66" yMin="-2" xMax="1343" yMax="1868">
      <component glyphName="A" x="0" y="0" flags="0x204"/>
      <component glyphName="Breve" x="299" y="0" flags="0x4"/>
    </TTGlyph>
    <TTGlyph name="Acircumflex" xMin="-66" yMin="-2" xMax="1343" yMax="1867">
      <component glyphName="A" x="0" y="0" flags="0x204"/>
      <component glyphName="Circumflex" x="175" y="0" flags="0x4"/>
    </TTGlyph>
    <TTGlyph name="Acute" xMin="530" yMin="1500" xMax="957" yMax="1867">
      <contour>
        <pt x="955" y="1784" on="1"/>
        <pt x="951" y="1764" on="0"/>
        <pt x="910" y="1716" on="0"/>
        <pt x="875" y="1696" on="1"/>
        <pt x="836" y="1674" on="0"/>
        <pt x="755" y="1624" on="0"/>
        <pt x="678" y="1573" on="0"/>
        <pt x="608" y="1525" on="0"/>
        <pt x="578" y="1505" on="1"/>
        <pt x="568" y="1500" on="0"/>
        <pt x="564" y="1500" on="1"/>
        <pt x="563" y="1500" on="0"/>
        <pt x="562" y="1501" on="0"/>
        <pt x="561" y="1501" on="1"/>
        <pt x="553" y="1503" on="0"/>
        <pt x="530" y="1516" on="0"/>
        <pt x="532" y="1527" on="1"/>
        <pt x="532" y="1529" on="0"/>
        <pt x="534" y="1535" on="0"/>
        <pt x="536" y="1538" on="1"/>
        <pt x="564" y="1577" on="0"/>
        <pt x="694" y="1719" on="0"/>
        <pt x="797" y="1833" on="1"/>
        <pt x="811" y="1850" on="0"/>
        <pt x="855" y="1867" on="0"/>
        <pt x="879" y="1867" on="1"/>
        <pt x="884" y="1867" on="0"/>
        <pt x="895" y="1866" on="0"/>
        <pt x="901" y="1865" on="1"/>
        <pt x="932" y="1860" on="0"/>
        <pt x="957" y="1829" on="0"/>
        <pt x="957" y="1805" on="1"/>
        <pt x="957" y="1800" on="0"/>
        <pt x="956" y="1789" on="0"/>
      </contour>
    </TTGlyph>
    <TTGlyph name="Adieresis" xMin="-66" yMin="-2" xMax="1343" yMax="1828">
      <component glyphName="A" x="0" y="0" flags="0x204"/>
      <component glyphName="Dieresis" x="117" y="0" flags="0x4"/>
    </TTGlyph>
    <TTGlyph name="Agrave" xMin="-66" yMin="-2" xMax="1343" yMax="1868">
      <component glyphName="A" x="0" y="0" flags="0x204"/>
      <component glyphName="Grave" x="82" y="0" flags="0x4"/>
    </TTGlyph>
    <TTGlyph name="Amacron" xMin="-66" yMin="-2" xMax="1343" yMax="1734">
      <component glyphName="A" x="0" y="0" flags="0x204"/>
      <component glyphName="Macron" x="209" y="0" flags="0x4"/>
    </TTGlyph>
    <TTGlyph name="Aogonek" xMin="-66" yMin="-523" xMax="1343" yMax="1438">
      <contour>
        <pt x="1343" y="-435" on="1"/>
        <pt x="1343" y="-446" on="0"/>
        <pt x="1321" y="-477" on="0"/>
        <pt x="1284" y="-504" on="0"/>
        <pt x="1233" y="-523" on="0"/>
        <pt x="1204" y="-523" on="1"/>
        <pt x="1181" y="-523" on="0"/>
        <pt x="1122" y="-519" on="0"/>
        <pt x="1060" y="-506" on="0"/>
        <pt x="1000" y="-480" on="0"/>
        <pt x="952" y="-437" on="0"/>
        <pt x="923" y="-373" on="0"/>
        <pt x="923" y="-328" on="1"/>
        <pt x="923" y="-267" on="0"/>
        <pt x="968" y="-169" on="0"/>
        <pt x="1033" y="-90" on="0"/>
        <pt x="1108" y="-31" on="0"/>
        <pt x="1138" y="-9" on="1"/>
        <pt x="1142" y="-6" on="0"/>
        <pt x="1149" y="0" on="0"/>
        <pt x="1153" y="2" on="1"/>
        <pt x="1134" y="2" on="0"/>
        <pt x="1078" y="3" on="0"/>
        <pt x="1036" y="3" on="1"/>
        <pt x="980" y="3" on="0"/>
        <pt x="873" y="0" on="0"/>
        <pt x="818" y="-2" on="1"/>
        <pt x="767" y="-2" on="1"/>
        <pt x="759" y="-2" on="0"/>
        <pt x="739" y="-1" on="0"/>
        <pt x="721" y="3" on="0"/>
        <pt x="709" y="13" on="0"/>
        <pt x="709" y="22" on="1"/>
        <pt x="709" y="30" on="0"/>
        <pt x="725" y="40" on="0"/>
        <pt x="747" y="46" on="0"/>
        <pt x="771" y="49" on="0"/>
        <pt x="779" y="50" on="1"/>
        <pt x="813" y="55" on="0"/>
        <pt x="877" y="68" on="0"/>
        <pt x="908" y="74" on="1"/>
        <pt x="931" y="81" on="0"/>
        <pt x="931" y="99" on="1"/>
        <pt x="931" y="101" on="0"/>
        <pt x="931" y="110" on="0"/>
        <pt x="929" y="114" on="1"/>
        <pt x="820" y="472" on="1"/>
        <pt x="818" y="480" on="0"/>
        <pt x="801" y="500" on="0"/>
        <pt x="789" y="500" on="1"/>
        <pt x="383" y="500" on="1"/>
        <pt x="369" y="500" on="0"/>
        <pt x="359" y="491" on="0"/>
        <pt x="355" y="486" on="1"/>
        <pt x="303" y="346" on="1"/>
        <pt x="290" y="312" on="0"/>
        <pt x="280" y="257" on="0"/>
        <pt x="280" y="232" on="1"/>
        <pt x="280" y="202" on="0"/>
        <pt x="286" y="166" on="1"/>
        <pt x="291" y="130" on="0"/>
        <pt x="329" y="90" on="0"/>
        <pt x="380" y="70" on="0"/>
        <pt x="438" y="63" on="0"/>
        <pt x="486" y="57" on="0"/>
        <pt x="517" y="46" on="0"/>
        <pt x="517" y="31" on="1"/>
        <pt x="517" y="22" on="0"/>
        <pt x="506" y="2" on="0"/>
        <pt x="486" y="0" on="1"/>
        <pt x="443" y="0" on="1"/>
        <pt x="384" y="2" on="0"/>
        <pt x="273" y="7" on="0"/>
        <pt x="213" y="7" on="1"/>
        <pt x="147" y="7" on="0"/>
        <pt x="40" y="0" on="0"/>
        <pt x="-14" y="0" on="1"/>
        <pt x="-27" y="0" on="1"/>
        <pt x="-66" y="0" on="0"/>
        <pt x="-66" y="26" on="1"/>
        <pt x="-66" y="43" on="0"/>
        <pt x="-31" y="49" on="0"/>
        <pt x="4" y="55" on="1"/>
        <pt x="69" y="69" on="0"/>
        <pt x="155" y="155" on="0"/>
        <pt x="213" y="266" on="0"/>
        <pt x="252" y="386" on="0"/>
        <pt x="270" y="434" on="1"/>
        <pt x="526" y="1135" on="1"/>
        <pt x="535" y="1161" on="0"/>
        <pt x="550" y="1182" on="0"/>
        <pt x="560" y="1197" on="0"/>
        <pt x="566" y="1217" on="0"/>
        <pt x="566" y="1242" on="1"/>
        <pt x="566" y="1253" on="0"/>
        <pt x="560" y="1271" on="0"/>
        <pt x="553" y="1290" on="0"/>
        <pt x="547" y="1313" on="0"/>
        <pt x="547" y="1330" on="1"/>
        <pt x="573" y="1333" on="0"/>
        <pt x="620" y="1344" on="0"/>
        <pt x="640" y="1358" on="1"/>
        <pt x="651" y="1366" on="0"/>
        <pt x="667" y="1393" on="0"/>
        <pt x="685" y="1419" on="0"/>
        <pt x="709" y="1438" on="0"/>
        <pt x="729" y="1438" on="1"/>
        <pt x="731" y="1438" on="0"/>
        <pt x="735" y="1436" on="0"/>
        <pt x="737" y="1431" on="1"/>
        <pt x="739" y="1426" on="0"/>
        <pt x="760" y="1358" on="0"/>
        <pt x="795" y="1245" on="0"/>
        <pt x="840" y="1097" on="0"/>
        <pt x="891" y="930" on="0"/>
        <pt x="946" y="750" on="0"/>
        <pt x="1000" y="575" on="0"/>
        <pt x="1049" y="412" on="0"/>
        <pt x="1091" y="278" on="0"/>
        <pt x="1121" y="179" on="0"/>
        <pt x="1128" y="156" on="1"/>
        <pt x="1139" y="123" on="0"/>
        <pt x="1187" y="73" on="0"/>
        <pt x="1216" y="64" on="1"/>
        <pt x="1245" y="54" on="0"/>
        <pt x="1292" y="52" on="0"/>
        <pt x="1325" y="50" on="0"/>
        <pt x="1343" y="38" on="0"/>
        <pt x="1343" y="19" on="1"/>
        <pt x="1343" y="13" on="0"/>
        <pt x="1335" y="6" on="0"/>
        <pt x="1323" y="2" on="0"/>
        <pt x="1310" y="1" on="0"/>
        <pt x="1306" y="0" on="1"/>
        <pt x="1240" y="0" on="1"/>
        <pt x="1205" y="-33" on="0"/>
        <pt x="1149" y="-94" on="0"/>
        <pt x="1110" y="-159" on="0"/>
        <pt x="1089" y="-233" on="0"/>
        <pt x="1089" y="-279" on="1"/>
        <pt x="1089" y="-310" on="0"/>
        <pt x="1105" y="-366" on="0"/>
        <pt x="1138" y="-408" on="0"/>
        <pt x="1188" y="-433" on="0"/>
        <pt x="1221" y="-433" on="1"/>
        <pt x="1242" y="-433" on="0"/>
        <pt x="1274" y="-424" on="0"/>
        <pt x="1298" y="-412" on="0"/>
        <pt x="1316" y="-403" on="0"/>
        <pt x="1322" y="-403" on="1"/>
        <pt x="1335" y="-403" on="0"/>
        <pt x="1343" y="-424" on="0"/>
      </contour>
      <contour>
        <pt x="758" y="574" on="1"/>
        <pt x="780" y="574" on="0"/>
        <pt x="780" y="593" on="1"/>
        <pt x="780" y="602" on="0"/>
        <pt x="779" y="607" on="1"/>
        <pt x="773" y="626" on="0"/>
        <pt x="751" y="698" on="0"/>
        <pt x="723" y="792" on="0"/>
        <pt x="690" y="899" on="0"/>
        <pt x="657" y="1007" on="0"/>
        <pt x="625" y="1108" on="0"/>
        <pt x="613" y="1149" on="1"/>
        <pt x="611" y="1151" on="0"/>
        <pt x="604" y="1161" on="0"/>
        <pt x="597" y="1161" on="1"/>
        <pt x="588" y="1161" on="0"/>
        <pt x="583" y="1144" on="1"/>
        <pt x="574" y="1119" on="0"/>
        <pt x="543" y="1027" on="0"/>
        <pt x="505" y="915" on="0"/>
        <pt x="464" y="795" on="0"/>
        <pt x="428" y="692" on="0"/>
        <pt x="402" y="617" on="0"/>
        <pt x="398" y="605" on="1"/>
        <pt x="396" y="602" on="0"/>
        <pt x="396" y="597" on="1"/>
        <pt x="396" y="574" on="0"/>
        <pt x="427" y="574" on="1"/>
      </contour>
    </TTGlyph>
    <TTGlyph name="Aring" xMin="-66" yMin="-2" xMax="1343" yMax="1867">
      <component glyphName="A" x="0" y="0" flags="0x204"/>
      <component glyphName="Ring" x="7" y="0" flags="0x4"/>
    </TTGlyph>
    <TTGlyph name="Atilde" xMin="-66" yMin="-2" xMax="1343" yMax="1814">
      <component glyphName="A" x="0" y="0" flags="0x204"/>
      <component glyphName="Tilde" x="109" y="0" flags="0x4"/>
    </TTGlyph>
    <TTGlyph name="B" xMin="54" yMin="-7" xMax="1224" yMax="1450">
      <contour>
        <pt x="54" y="1432" on="1"/>
        <pt x="390" y="1432" on="1"/>
        <pt x="430" y="1432" on="0"/>
        <pt x="496" y="1438" on="0"/>
        <pt x="577" y="1444" on="0"/>
        <pt x="691" y="1450" on="0"/>
        <pt x="779" y="1450" on="1"/>
        <pt x="880" y="1450" on="0"/>
        <pt x="1028" y="1393" on="0"/>
        <pt x="1124" y="1298" on="0"/>
        <pt x="1170" y="1176" on="0"/>
        <pt x="1170" y="1112" on="1"/>
        <pt x="1170" y="1039" on="0"/>
        <pt x="1134" y="934" on="0"/>
        <pt x="1066" y="854" on="0"/>
        <pt x="968" y="794" on="0"/>
        <pt x="907" y="766" on="1"/>
        <pt x="905" y="766" on="0"/>
        <pt x="897" y="763" on="0"/>
        <pt x="897" y="761" on="1"/>
        <pt x="897" y="758" on="0"/>
        <pt x="907" y="754" on="1"/>
        <pt x="989" y="724" on="0"/>
        <pt x="1108" y="649" on="0"/>
        <pt x="1186" y="552" on="0"/>
        <pt x="1224" y="428" on="0"/>
        <pt x="1224" y="349" on="1"/>
        <pt x="1224" y="318" on="0"/>
        <pt x="1204" y="248" on="0"/>
        <pt x="1168" y="179" on="0"/>
        <pt x="1119" y="116" on="0"/>
        <pt x="1089" y="92" on="1"/>
        <pt x="1027" y="42" on="0"/>
        <pt x="820" y="-3" on="0"/>
        <pt x="675" y="-3" on="1"/>
        <pt x="643" y="-3" on="0"/>
        <pt x="583" y="-2" on="0"/>
        <pt x="518" y="-1" on="0"/>
        <pt x="446" y="0" on="0"/>
        <pt x="402" y="0" on="1"/>
        <pt x="358" y="0" on="0"/>
        <pt x="277" y="-2" on="0"/>
        <pt x="197" y="-4" on="0"/>
        <pt x="113" y="-6" on="0"/>
        <pt x="66" y="-7" on="1"/>
        <pt x="66" y="2" on="0"/>
        <pt x="73" y="26" on="0"/>
        <pt x="82" y="31" on="1"/>
        <pt x="113" y="44" on="0"/>
        <pt x="183" y="54" on="0"/>
        <pt x="242" y="73" on="0"/>
        <pt x="281" y="116" on="0"/>
        <pt x="281" y="163" on="1"/>
        <pt x="281" y="1287" on="1"/>
        <pt x="281" y="1299" on="0"/>
        <pt x="280" y="1324" on="0"/>
        <pt x="274" y="1347" on="0"/>
        <pt x="262" y="1366" on="0"/>
        <pt x="251" y="1372" on="1"/>
        <pt x="237" y="1379" on="0"/>
        <pt x="204" y="1384" on="0"/>
        <pt x="160" y="1388" on="0"/>
        <pt x="104" y="1397" on="0"/>
        <pt x="66" y="1408" on="1"/>
        <pt x="54" y="1411" on="0"/>
        <pt x="54" y="1420" on="1"/>
      </contour>
      <contour>
        <pt x="490" y="685" on="1"/>
        <pt x="490" y="137" on="1"/>
        <pt x="529" y="92" on="0"/>
        <pt x="619" y="38" on="0"/>
        <pt x="679" y="38" on="1"/>
        <pt x="750" y="38" on="0"/>
        <pt x="857" y="102" on="0"/>
        <pt x="928" y="202" on="0"/>
        <pt x="964" y="327" on="0"/>
        <pt x="964" y="388" on="1"/>
        <pt x="964" y="458" on="0"/>
        <pt x="910" y="581" on="0"/>
        <pt x="818" y="671" on="0"/>
        <pt x="697" y="723" on="0"/>
        <pt x="630" y="723" on="1"/>
        <pt x="602" y="723" on="1"/>
        <pt x="593" y="723" on="0"/>
        <pt x="554" y="723" on="0"/>
        <pt x="523" y="721" on="1"/>
        <pt x="490" y="721" on="0"/>
      </contour>
      <contour>
        <pt x="490" y="1398" on="1"/>
        <pt x="490" y="791" on="1"/>
        <pt x="490" y="780" on="0"/>
        <pt x="501" y="765" on="0"/>
        <pt x="517" y="757" on="0"/>
        <pt x="533" y="754" on="0"/>
        <pt x="538" y="754" on="1"/>
        <pt x="616" y="754" on="0"/>
        <pt x="729" y="786" on="0"/>
        <pt x="767" y="810" on="1"/>
        <pt x="795" y="827" on="0"/>
        <pt x="848" y="881" on="0"/>
        <pt x="889" y="951" on="0"/>
        <pt x="914" y="1034" on="0"/>
        <pt x="914" y="1081" on="1"/>
        <pt x="914" y="1211" on="0"/>
        <pt x="827" y="1358" on="0"/>
        <pt x="732" y="1387" on="1"/>
        <pt x="694" y="1399" on="0"/>
        <pt x="608" y="1408" on="0"/>
        <pt x="556" y="1408" on="1"/>
        <pt x="538" y="1408" on="0"/>
        <pt x="504" y="1403" on="0"/>
      </contour>
    </TTGlyph>
    <TTGlyph name="Breve" xMin="56" yMin="1558" xMax="657" yMax="1868">
      <contour>
        <pt x="352" y="1558" on="1"/>
        <pt x="300" y="1558" on="0"/>
        <pt x="200" y="1602" on="0"/>
        <pt x="119" y="1675" on="0"/>
        <pt x="64" y="1772" on="0"/>
        <pt x="57" y="1826" on="1"/>
        <pt x="56" y="1831" on="0"/>
        <pt x="56" y="1841" on="1"/>
        <pt x="56" y="1847" on="0"/>
        <pt x="61" y="1853" on="0"/>
        <pt x="64" y="1856" on="1"/>
        <pt x="76" y="1868" on="0"/>
        <pt x="87" y="1868" on="1"/>
        <pt x="92" y="1868" on="1"/>
        <pt x="99" y="1868" on="0"/>
        <pt x="106" y="1853" on="1"/>
        <pt x="125" y="1816" on="0"/>
        <pt x="181" y="1757" on="0"/>
        <pt x="247" y="1717" on="0"/>
        <pt x="318" y="1695" on="0"/>
        <pt x="352" y="1695" on="1"/>
        <pt x="395" y="1695" on="0"/>
        <pt x="476" y="1726" on="0"/>
        <pt x="544" y="1773" on="0"/>
        <pt x="595" y="1828" on="0"/>
        <pt x="607" y="1853" on="1"/>
        <pt x="609" y="1859" on="0"/>
        <pt x="614" y="1863" on="0"/>
        <pt x="618" y="1865" on="1"/>
        <pt x="622" y="1867" on="0"/>
        <pt x="626" y="1867" on="1"/>
        <pt x="641" y="1867" on="0"/>
        <pt x="653" y="1854" on="1"/>
        <pt x="657" y="1850" on="0"/>
        <pt x="657" y="1841" on="1"/>
        <pt x="657" y="1835" on="0"/>
        <pt x="656" y="1830" on="1"/>
        <pt x="648" y="1788" on="0"/>
        <pt x="590" y="1692" on="0"/>
        <pt x="506" y="1611" on="0"/>
        <pt x="404" y="1558" on="0"/>
      </contour>
    </TTGlyph>
    <TTGlyph name="C" xMin="90" yMin="-9" xMax="1275" yMax="1446">
      <contour>
        <pt x="90" y="702" on="1"/>
        <pt x="90" y="716" on="1"/>
        <pt x="90" y="775" on="0"/>
        <pt x="113" y="906" on="0"/>
        <pt x="155" y="1036" on="0"/>
        <pt x="215" y="1158" on="0"/>
        <pt x="253" y="1209" on="1"/>
        <pt x="295" y="1264" on="0"/>
        <pt x="400" y="1351" on="0"/>
        <pt x="521" y="1413" on="0"/>
        <pt x="657" y="1446" on="0"/>
        <pt x="730" y="1446" on="1"/>
        <pt x="791" y="1446" on="0"/>
        <pt x="921" y="1423" on="0"/>
        <pt x="976" y="1400" on="1"/>
        <pt x="1021" y="1379" on="0"/>
        <pt x="1094" y="1320" on="0"/>
        <pt x="1135" y="1291" on="1"/>
        <pt x="1139" y="1286" on="0"/>
        <pt x="1148" y="1284" on="0"/>
        <pt x="1152" y="1284" on="1"/>
        <pt x="1161" y="1284" on="0"/>
        <pt x="1168" y="1297" on="1"/>
        <pt x="1179" y="1316" on="0"/>
        <pt x="1197" y="1375" on="0"/>
        <pt x="1208" y="1396" on="1"/>
        <pt x="1212" y="1405" on="0"/>
        <pt x="1222" y="1408" on="0"/>
        <pt x="1228" y="1408" on="1"/>
        <pt x="1235" y="1408" on="0"/>
        <pt x="1242" y="1398" on="0"/>
        <pt x="1242" y="1396" on="1"/>
        <pt x="1250" y="1361" on="0"/>
        <pt x="1253" y="1291" on="0"/>
        <pt x="1253" y="1253" on="1"/>
        <pt x="1253" y="1195" on="1"/>
        <pt x="1253" y="1182" on="0"/>
        <pt x="1253" y="1156" on="0"/>
        <pt x="1254" y="1142" on="1"/>
        <pt x="1258" y="1104" on="0"/>
        <pt x="1270" y="1048" on="0"/>
        <pt x="1270" y="1022" on="1"/>
        <pt x="1270" y="1007" on="0"/>
        <pt x="1261" y="974" on="0"/>
        <pt x="1247" y="974" on="1"/>
        <pt x="1241" y="974" on="0"/>
        <pt x="1220" y="1004" on="0"/>
        <pt x="1198" y="1041" on="0"/>
        <pt x="1177" y="1077" on="0"/>
        <pt x="1173" y="1083" on="1"/>
        <pt x="1145" y="1123" on="0"/>
        <pt x="1094" y="1195" on="0"/>
        <pt x="1041" y="1258" on="0"/>
        <pt x="982" y="1311" on="0"/>
        <pt x="946" y="1332" on="1"/>
        <pt x="915" y="1351" on="0"/>
        <pt x="859" y="1372" on="0"/>
        <pt x="806" y="1382" on="0"/>
        <pt x="754" y="1384" on="0"/>
        <pt x="727" y="1384" on="1"/>
        <pt x="685" y="1384" on="0"/>
        <pt x="614" y="1361" on="0"/>
        <pt x="552" y="1321" on="0"/>
        <pt x="499" y="1269" on="0"/>
        <pt x="474" y="1240" on="1"/>
        <pt x="402" y="1155" on="0"/>
        <pt x="329" y="872" on="0"/>
        <pt x="329" y="675" on="1"/>
        <pt x="329" y="577" on="0"/>
        <pt x="364" y="418" on="0"/>
        <pt x="416" y="295" on="0"/>
        <pt x="479" y="206" on="0"/>
        <pt x="507" y="178" on="1"/>
        <pt x="537" y="146" on="0"/>
        <pt x="592" y="99" on="0"/>
        <pt x="652" y="69" on="0"/>
        <pt x="722" y="54" on="0"/>
        <pt x="766" y="54" on="1"/>
        <pt x="833" y="54" on="0"/>
        <pt x="961" y="112" on="0"/>
        <pt x="1022" y="159" on="1"/>
        <pt x="1035" y="169" on="0"/>
        <pt x="1063" y="197" on="0"/>
        <pt x="1090" y="225" on="0"/>
        <pt x="1113" y="252" on="0"/>
        <pt x="1121" y="263" on="1"/>
        <pt x="1153" y="313" on="0"/>
        <pt x="1201" y="407" on="0"/>
        <pt x="1221" y="457" on="1"/>
        <pt x="1231" y="472" on="0"/>
        <pt x="1256" y="472" on="1"/>
        <pt x="1267" y="472" on="0"/>
        <pt x="1275" y="456" on="0"/>
        <pt x="1275" y="445" on="1"/>
        <pt x="1259" y="390" on="0"/>
        <pt x="1235" y="301" on="0"/>
        <pt x="1221" y="251" on="1"/>
        <pt x="1212" y="215" on="0"/>
        <pt x="1204" y="146" on="0"/>
        <pt x="1196" y="93" on="0"/>
        <pt x="1186" y="61" on="0"/>
        <pt x="1175" y="61" on="1"/>
        <pt x="1167" y="61" on="0"/>
        <pt x="1157" y="73" on="0"/>
        <pt x="1152" y="86" on="1"/>
        <pt x="1150" y="96" on="0"/>
        <pt x="1141" y="111" on="0"/>
        <pt x="1130" y="111" on="1"/>
        <pt x="1119" y="111" on="0"/>
        <pt x="1100" y="103" on="0"/>
        <pt x="1072" y="86" on="0"/>
        <pt x="1030" y="63" on="0"/>
        <pt x="995" y="48" on="1"/>
        <pt x="931" y="22" on="0"/>
        <pt x="785" y="-9" on="0"/>
        <pt x="713" y="-9" on="1"/>
        <pt x="608" y="-9" on="0"/>
        <pt x="434" y="46" on="0"/>
        <pt x="356" y="112" on="1"/>
        <pt x="294" y="165" on="0"/>
        <pt x="196" y="302" on="0"/>
        <pt x="127" y="456" on="0"/>
        <pt x="90" y="621" on="0"/>
      </contour>
    </TTGlyph>
    <TTGlyph name="Cacute" xMin="90" yMin="-9" xMax="1275" yMax="1867">
      <component glyphName="C" x="0" y="0" flags="0x204"/>
      <component glyphName="Acute" x="186" y="0" flags="0x4"/>
    </TTGlyph>
    <TTGlyph name="Caron" xMin="209" yMin="1516" xMax="758" yMax="1864">
      <contour>
        <pt x="210" y="1853" on="1"/>
        <pt x="209" y="1854" on="0"/>
        <pt x="209" y="1856" on="1"/>
        <pt x="209" y="1861" on="0"/>
        <pt x="230" y="1864" on="0"/>
        <pt x="233" y="1864" on="1"/>
        <pt x="254" y="1864" on="0"/>
        <pt x="265" y="1853" on="1"/>
        <pt x="294" y="1827" on="0"/>
        <pt x="347" y="1773" on="0"/>
        <pt x="399" y="1722" on="0"/>
        <pt x="453" y="1676" on="0"/>
        <pt x="484" y="1659" on="1"/>
        <pt x="488" y="1657" on="0"/>
        <pt x="489" y="1657" on="1"/>
        <pt x="490" y="1657" on="0"/>
        <pt x="494" y="1659" on="1"/>
        <pt x="554" y="1700" on="0"/>
        <pt x="667" y="1796" on="0"/>
        <pt x="722" y="1853" on="1"/>
        <pt x="727" y="1858" on="0"/>
        <pt x="737" y="1860" on="0"/>
        <pt x="746" y="1860" on="1"/>
        <pt x="750" y="1860" on="0"/>
        <pt x="758" y="1847" on="0"/>
        <pt x="758" y="1840" on="1"/>
        <pt x="758" y="1836" on="0"/>
        <pt x="756" y="1832" on="1"/>
        <pt x="735" y="1805" on="0"/>
        <pt x="693" y="1753" on="0"/>
        <pt x="643" y="1691" on="0"/>
        <pt x="583" y="1613" on="0"/>
        <pt x="545" y="1561" on="1"/>
        <pt x="540" y="1555" on="0"/>
        <pt x="526" y="1539" on="0"/>
        <pt x="510" y="1526" on="0"/>
        <pt x="493" y="1516" on="0"/>
        <pt x="487" y="1516" on="1"/>
        <pt x="473" y="1516" on="0"/>
        <pt x="449" y="1534" on="0"/>
        <pt x="438" y="1546" on="1"/>
        <pt x="409" y="1585" on="0"/>
        <pt x="351" y="1656" on="0"/>
        <pt x="293" y="1728" on="0"/>
        <pt x="237" y="1806" on="0"/>
      </contour>
    </TTGlyph>
    <TTGlyph name="Ccaron" xMin="90" yMin="-9" xMax="1275" yMax="1864">
      <component glyphName="C" x="0" y="0" flags="0x204"/>
      <component glyphName="Caron" x="248" y="0" flags="0x4"/>
    </TTGlyph>
    <TTGlyph name="Ccedilla" xMin="90" yMin="-505" xMax="1275" yMax="1446">
      <contour>
        <pt x="596" y="-479" on="1"/>
        <pt x="596" y="-473" on="0"/>
        <pt x="613" y="-468" on="0"/>
        <pt x="625" y="-465" on="1"/>
        <pt x="637" y="-463" on="0"/>
        <pt x="666" y="-458" on="0"/>
        <pt x="698" y="-450" on="0"/>
        <pt x="727" y="-441" on="0"/>
        <pt x="739" y="-436" on="1"/>
        <pt x="760" y="-427" on="0"/>
        <pt x="794" y="-392" on="0"/>
        <pt x="820" y="-353" on="0"/>
        <pt x="834" y="-315" on="0"/>
        <pt x="834" y="-303" on="1"/>
        <pt x="834" y="-283" on="0"/>
        <pt x="817" y="-242" on="0"/>
        <pt x="808" y="-228" on="1"/>
        <pt x="788" y="-205" on="0"/>
        <pt x="726" y="-178" on="0"/>
        <pt x="687" y="-178" on="1"/>
        <pt x="670" y="-178" on="0"/>
        <pt x="639" y="-191" on="0"/>
        <pt x="625" y="-197" on="1"/>
        <pt x="605" y="-206" on="0"/>
        <pt x="569" y="-238" on="0"/>
        <pt x="551" y="-247" on="1"/>
        <pt x="545" y="-249" on="1"/>
        <pt x="541" y="-249" on="0"/>
        <pt x="531" y="-241" on="0"/>
        <pt x="528" y="-239" on="1"/>
        <pt x="528" y="-225" on="0"/>
        <pt x="532" y="-208" on="0"/>
        <pt x="540" y="-197" on="1"/>
        <pt x="544" y="-192" on="0"/>
        <pt x="564" y="-170" on="0"/>
        <pt x="586" y="-146" on="0"/>
        <pt x="605" y="-125" on="0"/>
        <pt x="608" y="-121" on="1"/>
        <pt x="619" y="-110" on="0"/>
        <pt x="653" y="-75" on="0"/>
        <pt x="666" y="-61" on="1"/>
        <pt x="680" y="-44" on="0"/>
        <pt x="699" y="-19" on="0"/>
        <pt x="707" y="-9" on="1"/>
        <pt x="604" y="-8" on="0"/>
        <pt x="432" y="47" on="0"/>
        <pt x="356" y="112" on="1"/>
        <pt x="294" y="165" on="0"/>
        <pt x="196" y="302" on="0"/>
        <pt x="127" y="456" on="0"/>
        <pt x="90" y="621" on="0"/>
        <pt x="90" y="702" on="1"/>
        <pt x="90" y="716" on="1"/>
        <pt x="90" y="775" on="0"/>
        <pt x="113" y="906" on="0"/>
        <pt x="155" y="1036" on="0"/>
        <pt x="215" y="1158" on="0"/>
        <pt x="253" y="1209" on="1"/>
        <pt x="295" y="1264" on="0"/>
        <pt x="400" y="1351" on="0"/>
        <pt x="521" y="1413" on="0"/>
        <pt x="657" y="1446" on="0"/>
        <pt x="730" y="1446" on="1"/>
        <pt x="791" y="1446" on="0"/>
        <pt x="921" y="1423" on="0"/>
        <pt x="976" y="1400" on="1"/>
        <pt x="1021" y="1379" on="0"/>
        <pt x="1094" y="1320" on="0"/>
        <pt x="1135" y="1291" on="1"/>
        <pt x="1139" y="1286" on="0"/>
        <pt x="1148" y="1284" on="0"/>
        <pt x="1152" y="1284" on="1"/>
        <pt x="1161" y="1284" on="0"/>
        <pt x="1168" y="1297" on="1"/>
        <pt x="1179" y="1316" on="0"/>
        <pt x="1197" y="1375" on="0"/>
        <pt x="1208" y="1396" on="1"/>
        <pt x="1212" y="1405" on="0"/>
        <pt x="1222" y="1408" on="0"/>
        <pt x="1228" y="1408" on="1"/>
        <pt x="1235" y="1408" on="0"/>
        <pt x="1242" y="1398" on="0"/>
        <pt x="1242" y="1396" on="1"/>
        <pt x="1250" y="1361" on="0"/>
        <pt x="1253" y="1291" on="0"/>
        <pt x="1253" y="1253" on="1"/>
        <pt x="1253" y="1195" on="1"/>
        <pt x="1253" y="1182" on="0"/>
        <pt x="1253" y="1156" on="0"/>
        <pt x="1254" y="1142" on="1"/>
        <pt x="1258" y="1104" on="0"/>
        <pt x="1270" y="1048" on="0"/>
        <pt x="1270" y="1022" on="1"/>
        <pt x="1270" y="1007" on="0"/>
        <pt x="1261" y="974" on="0"/>
        <pt x="1247" y="974" on="1"/>
        <pt x="1241" y="974" on="0"/>
        <pt x="1220" y="1004" on="0"/>
        <pt x="1198" y="1041" on="0"/>
        <pt x="1177" y="1077" on="0"/>
        <pt x="1173" y="1083" on="1"/>
        <pt x="1145" y="1123" on="0"/>
        <pt x="1094" y="1195" on="0"/>
        <pt x="1041" y="1258" on="0"/>
        <pt x="982" y="1311" on="0"/>
        <pt x="946" y="1332" on="1"/>
        <pt x="915" y="1351" on="0"/>
        <pt x="859" y="1372" on="0"/>
        <pt x="806" y="1382" on="0"/>
        <pt x="754" y="1384" on="0"/>
        <pt x="727" y="1384" on="1"/>
        <pt x="685" y="1384" on="0"/>
        <pt x="614" y="1361" on="0"/>
        <pt x="552" y="1321" on="0"/>
        <pt x="499" y="1269" on="0"/>
        <pt x="474" y="1240" on="1"/>
        <pt x="402" y="1155" on="0"/>
        <pt x="329" y="872" on="0"/>
        <pt x="329" y="675" on="1"/>
        <pt x="329" y="577" on="0"/>
        <pt x="364" y="418" on="0"/>
        <pt x="416" y="295" on="0"/>
        <pt x="479" y="206" on="0"/>
        <pt x="507" y="178" on="1"/>
        <pt x="537" y="146" on="0"/>
        <pt x="592" y="99" on="0"/>
        <pt x="652" y="69" on="0"/>
        <pt x="722" y="54" on="0"/>
        <pt x="766" y="54" on="1"/>
        <pt x="833" y="54" on="0"/>
        <pt x="961" y="112" on="0"/>
        <pt x="1022" y="159" on="1"/>
        <pt x="1035" y="169" on="0"/>
        <pt x="1063" y="197" on="0"/>
        <pt x="1090" y="225" on="0"/>
        <pt x="1113" y="252" on="0"/>
        <pt x="1121" y="263" on="1"/>
        <pt x="1153" y="313" on="0"/>
        <pt x="1201" y="407" on="0"/>
        <pt x="1221" y="457" on="1"/>
        <pt x="1231" y="472" on="0"/>
        <pt x="1256" y="472" on="1"/>
        <pt x="1267" y="472" on="0"/>
        <pt x="1275" y="456" on="0"/>
        <pt x="1275" y="445" on="1"/>
        <pt x="1259" y="390" on="0"/>
        <pt x="1235" y="301" on="0"/>
        <pt x="1221" y="251" on="1"/>
        <pt x="1212" y="215" on="0"/>
        <pt x="1204" y="146" on="0"/>
        <pt x="1196" y="93" on="0"/>
        <pt x="1186" y="61" on="0"/>
        <pt x="1175" y="61" on="1"/>
        <pt x="1167" y="61" on="0"/>
        <pt x="1157" y="73" on="0"/>
        <pt x="1152" y="86" on="1"/>
        <pt x="1150" y="96" on="0"/>
        <pt x="1141" y="111" on="0"/>
        <pt x="1130" y="111" on="1"/>
        <pt x="1119" y="111" on="0"/>
        <pt x="1100" y="103" on="0"/>
        <pt x="1072" y="86" on="0"/>
        <pt x="1030" y="63" on="0"/>
        <pt x="995" y="48" on="1"/>
        <pt x="942" y="27" on="0"/>
        <pt x="825" y="-2" on="0"/>
        <pt x="765" y="-7" on="1"/>
        <pt x="761" y="-15" on="0"/>
        <pt x="756" y="-26" on="0"/>
        <pt x="751" y="-38" on="0"/>
        <pt x="745" y="-54" on="0"/>
        <pt x="741" y="-66" on="1"/>
        <pt x="771" y="-69" on="0"/>
        <pt x="829" y="-90" on="0"/>
        <pt x="880" y="-124" on="0"/>
        <pt x="921" y="-169" on="0"/>
        <pt x="933" y="-197" on="1"/>
        <pt x="944" y="-220" on="0"/>
        <pt x="952" y="-270" on="0"/>
        <pt x="952" y="-296" on="1"/>
        <pt x="952" y="-316" on="0"/>
        <pt x="930" y="-369" on="0"/>
        <pt x="915" y="-389" on="1"/>
        <pt x="898" y="-412" on="0"/>
        <pt x="840" y="-457" on="0"/>
        <pt x="810" y="-471" on="1"/>
        <pt x="784" y="-484" on="0"/>
        <pt x="707" y="-505" on="0"/>
        <pt x="673" y="-505" on="1"/>
        <pt x="662" y="-504" on="0"/>
        <pt x="638" y="-503" on="0"/>
        <pt x="617" y="-499" on="0"/>
        <pt x="600" y="-489" on="0"/>
      </contour>
    </TTGlyph>
    <TTGlyph name="Circumflex" xMin="213" yMin="1518" xMax="762" yMax="1867">
      <contour>
        <pt x="761" y="1530" on="1"/>
        <pt x="762" y="1529" on="0"/>
        <pt x="762" y="1527" on="1"/>
        <pt x="761" y="1524" on="0"/>
        <pt x="748" y="1518" on="0"/>
        <pt x="742" y="1518" on="1"/>
        <pt x="719" y="1518" on="0"/>
        <pt x="706" y="1530" on="1"/>
        <pt x="677" y="1556" on="0"/>
        <pt x="624" y="1610" on="0"/>
        <pt x="572" y="1661" on="0"/>
        <pt x="518" y="1707" on="0"/>
        <pt x="487" y="1724" on="1"/>
        <pt x="483" y="1726" on="0"/>
        <pt x="482" y="1726" on="1"/>
        <pt x="481" y="1726" on="0"/>
        <pt x="477" y="1724" on="1"/>
        <pt x="417" y="1683" on="0"/>
        <pt x="304" y="1587" on="0"/>
        <pt x="249" y="1530" on="1"/>
        <pt x="244" y="1525" on="0"/>
        <pt x="234" y="1523" on="0"/>
        <pt x="225" y="1523" on="1"/>
        <pt x="221" y="1523" on="0"/>
        <pt x="213" y="1536" on="0"/>
        <pt x="213" y="1543" on="1"/>
        <pt x="213" y="1547" on="0"/>
        <pt x="215" y="1551" on="1"/>
        <pt x="236" y="1578" on="0"/>
        <pt x="278" y="1630" on="0"/>
        <pt x="328" y="1692" on="0"/>
        <pt x="388" y="1770" on="0"/>
        <pt x="426" y="1822" on="1"/>
        <pt x="430" y="1828" on="0"/>
        <pt x="445" y="1844" on="0"/>
        <pt x="461" y="1857" on="0"/>
        <pt x="478" y="1867" on="0"/>
        <pt x="484" y="1867" on="1"/>
        <pt x="498" y="1867" on="0"/>
        <pt x="522" y="1849" on="0"/>
        <pt x="533" y="1837" on="1"/>
        <pt x="562" y="1798" on="0"/>
        <pt x="620" y="1727" on="0"/>
        <pt x="678" y="1655" on="0"/>
        <pt x="734" y="1576" on="0"/>
      </contour>
    </TTGlyph>
    <TTGlyph name="D" xMin="42" yMin="-7" xMax="1476" yMax="1443">
      <contour>
        <pt x="106" y="1443" on="1"/>
        <pt x="346" y="1443" on="1"/>
        <pt x="445" y="1443" on="0"/>
        <pt x="646" y="1439" on="0"/>
        <pt x="831" y="1428" on="0"/>
        <pt x="987" y="1410" on="0"/>
        <pt x="1040" y="1396" on="1"/>
        <pt x="1118" y="1373" on="0"/>
        <pt x="1253" y="1275" on="0"/>
        <pt x="1311" y="1209" on="1"/>
        <pt x="1334" y="1182" on="0"/>
        <pt x="1391" y="1091" on="0"/>
        <pt x="1442" y="973" on="0"/>
        <pt x="1476" y="835" on="0"/>
        <pt x="1476" y="761" on="1"/>
        <pt x="1476" y="586" on="0"/>
        <pt x="1345" y="305" on="0"/>
        <pt x="1221" y="187" on="1"/>
        <pt x="1215" y="184" on="0"/>
        <pt x="1192" y="166" on="0"/>
        <pt x="1166" y="145" on="0"/>
        <pt x="1143" y="127" on="0"/>
        <pt x="1138" y="123" on="1"/>
        <pt x="1115" y="104" on="0"/>
        <pt x="1048" y="70" on="0"/>
        <pt x="968" y="42" on="0"/>
        <pt x="881" y="18" on="0"/>
        <pt x="797" y="2" on="0"/>
        <pt x="723" y="-7" on="0"/>
        <pt x="696" y="-7" on="1"/>
        <pt x="657" y="-7" on="0"/>
        <pt x="575" y="0" on="0"/>
        <pt x="521" y="0" on="1"/>
        <pt x="74" y="0" on="1"/>
        <pt x="42" y="0" on="0"/>
        <pt x="42" y="21" on="1"/>
        <pt x="42" y="33" on="0"/>
        <pt x="84" y="48" on="0"/>
        <pt x="144" y="57" on="0"/>
        <pt x="212" y="64" on="0"/>
        <pt x="239" y="69" on="1"/>
        <pt x="259" y="73" on="0"/>
        <pt x="280" y="88" on="0"/>
        <pt x="284" y="97" on="1"/>
        <pt x="289" y="118" on="0"/>
        <pt x="291" y="143" on="0"/>
        <pt x="291" y="159" on="1"/>
        <pt x="291" y="1375" on="1"/>
        <pt x="288" y="1382" on="0"/>
        <pt x="243" y="1394" on="0"/>
        <pt x="180" y="1404" on="0"/>
        <pt x="108" y="1414" on="0"/>
        <pt x="78" y="1419" on="1"/>
        <pt x="62" y="1421" on="0"/>
        <pt x="62" y="1429" on="1"/>
        <pt x="62" y="1431" on="0"/>
        <pt x="73" y="1439" on="1"/>
        <pt x="77" y="1441" on="0"/>
        <pt x="92" y="1443" on="0"/>
      </contour>
      <contour>
        <pt x="521" y="1370" on="1"/>
        <pt x="521" y="808" on="1"/>
        <pt x="521" y="747" on="0"/>
        <pt x="514" y="634" on="0"/>
        <pt x="507" y="526" on="0"/>
        <pt x="500" y="419" on="0"/>
        <pt x="500" y="363" on="1"/>
        <pt x="500" y="237" on="0"/>
        <pt x="529" y="102" on="0"/>
        <pt x="555" y="73" on="1"/>
        <pt x="567" y="57" on="0"/>
        <pt x="612" y="48" on="0"/>
        <pt x="630" y="48" on="1"/>
        <pt x="708" y="48" on="0"/>
        <pt x="848" y="88" on="0"/>
        <pt x="967" y="158" on="0"/>
        <pt x="1062" y="252" on="0"/>
        <pt x="1095" y="306" on="1"/>
        <pt x="1164" y="417" on="0"/>
        <pt x="1232" y="642" on="0"/>
        <pt x="1232" y="744" on="1"/>
        <pt x="1232" y="800" on="0"/>
        <pt x="1215" y="902" on="0"/>
        <pt x="1191" y="988" on="0"/>
        <pt x="1163" y="1054" on="0"/>
        <pt x="1152" y="1073" on="1"/>
        <pt x="1137" y="1100" on="0"/>
        <pt x="1083" y="1177" on="0"/>
        <pt x="998" y="1260" on="0"/>
        <pt x="876" y="1339" on="0"/>
        <pt x="792" y="1368" on="1"/>
        <pt x="740" y="1387" on="0"/>
        <pt x="636" y="1401" on="0"/>
        <pt x="574" y="1401" on="1"/>
        <pt x="568" y="1401" on="0"/>
        <pt x="549" y="1399" on="0"/>
        <pt x="533" y="1393" on="0"/>
        <pt x="521" y="1380" on="0"/>
      </contour>
    </TTGlyph>
    <TTGlyph name="Dcaron" xMin="42" yMin="-7" xMax="1476" yMax="1864">
      <component glyphName="D" x="0" y="0" flags="0x204"/>
      <component glyphName="Caron" x="254" y="0" flags="0x4"/>
    </TTGlyph>
    <TTGlyph name="Dcroat" xMin="42" yMin="-7" xMax="1476" yMax="1443">
      <component glyphName="Eth" x="0" y="0" flags="0x204"/>
    </TTGlyph>
    <TTGlyph name="Dieresis" xMin="251" yMin="1613" xMax="837" yMax="1828">
      <contour>
        <pt x="251" y="1717" on="1"/>
        <pt x="251" y="1738" on="0"/>
        <pt x="265" y="1778" on="0"/>
        <pt x="290" y="1808" on="0"/>
        <pt x="326" y="1826" on="0"/>
        <pt x="348" y="1826" on="1"/>
        <pt x="367" y="1826" on="0"/>
        <pt x="410" y="1811" on="0"/>
        <pt x="447" y="1783" on="0"/>
        <pt x="472" y="1745" on="0"/>
        <pt x="472" y="1722" on="1"/>
        <pt x="472" y="1704" on="0"/>
        <pt x="451" y="1666" on="0"/>
        <pt x="418" y="1634" on="0"/>
        <pt x="379" y="1613" on="0"/>
        <pt x="360" y="1613" on="1"/>
        <pt x="342" y="1613" on="0"/>
        <pt x="304" y="1630" on="0"/>
        <pt x="272" y="1659" on="0"/>
        <pt x="251" y="1697" on="0"/>
      </contour>
      <contour>
        <pt x="618" y="1719" on="1"/>
        <pt x="618" y="1740" on="0"/>
        <pt x="631" y="1780" on="0"/>
        <pt x="656" y="1810" on="0"/>
        <pt x="692" y="1828" on="0"/>
        <pt x="715" y="1828" on="1"/>
        <pt x="734" y="1828" on="0"/>
        <pt x="777" y="1813" on="0"/>
        <pt x="813" y="1786" on="0"/>
        <pt x="837" y="1747" on="0"/>
        <pt x="837" y="1724" on="1"/>
        <pt x="837" y="1706" on="0"/>
        <pt x="817" y="1668" on="0"/>
        <pt x="784" y="1636" on="0"/>
        <pt x="744" y="1615" on="0"/>
        <pt x="725" y="1615" on="1"/>
        <pt x="707" y="1615" on="0"/>
        <pt x="670" y="1632" on="0"/>
        <pt x="638" y="1661" on="0"/>
        <pt x="618" y="1699" on="0"/>
      </contour>
    </TTGlyph>
    <TTGlyph name="Dotaccent" xMin="423" yMin="1601" xMax="647" yMax="1834">
      <contour>
        <pt x="423" y="1732" on="1"/>
        <pt x="423" y="1754" on="0"/>
        <pt x="443" y="1791" on="0"/>
        <pt x="475" y="1818" on="0"/>
        <pt x="515" y="1834" on="0"/>
        <pt x="535" y="1834" on="1"/>
        <pt x="561" y="1834" on="0"/>
        <pt x="602" y="1814" on="0"/>
        <pt x="631" y="1780" on="0"/>
        <pt x="647" y="1735" on="0"/>
        <pt x="647" y="1710" on="1"/>
        <pt x="647" y="1692" on="0"/>
        <pt x="630" y="1653" on="0"/>
        <pt x="601" y="1621" on="0"/>
        <pt x="564" y="1601" on="0"/>
        <pt x="544" y="1601" on="1"/>
        <pt x="520" y="1601" on="0"/>
        <pt x="476" y="1624" on="0"/>
        <pt x="443" y="1662" on="0"/>
        <pt x="423" y="1709" on="0"/>
      </contour>
    </TTGlyph>
    <TTGlyph name="E" xMin="54" yMin="-9" xMax="1191" yMax="1465">
      <contour>
        <pt x="288" y="1322" on="1"/>
        <pt x="288" y="1352" on="0"/>
        <pt x="244" y="1388" on="0"/>
        <pt x="180" y="1409" on="0"/>
        <pt x="108" y="1417" on="0"/>
        <pt x="80" y="1419" on="1"/>
        <pt x="73" y="1419" on="0"/>
        <pt x="61" y="1422" on="0"/>
        <pt x="61" y="1431" on="1"/>
        <pt x="61" y="1437" on="0"/>
        <pt x="71" y="1445" on="0"/>
        <pt x="85" y="1450" on="0"/>
        <pt x="99" y="1451" on="0"/>
        <pt x="104" y="1451" on="1"/>
        <pt x="111" y="1451" on="0"/>
        <pt x="157" y="1450" on="0"/>
        <pt x="225" y="1449" on="0"/>
        <pt x="308" y="1448" on="0"/>
        <pt x="353" y="1448" on="1"/>
        <pt x="430" y="1448" on="0"/>
        <pt x="541" y="1453" on="0"/>
        <pt x="632" y="1460" on="0"/>
        <pt x="715" y="1465" on="0"/>
        <pt x="763" y="1465" on="1"/>
        <pt x="782" y="1465" on="0"/>
        <pt x="811" y="1465" on="0"/>
        <pt x="841" y="1465" on="0"/>
        <pt x="878" y="1464" on="0"/>
        <pt x="931" y="1462" on="0"/>
        <pt x="1008" y="1460" on="0"/>
        <pt x="1063" y="1458" on="1"/>
        <pt x="1074" y="1457" on="0"/>
        <pt x="1090" y="1443" on="0"/>
        <pt x="1092" y="1432" on="1"/>
        <pt x="1094" y="1363" on="0"/>
        <pt x="1097" y="1238" on="0"/>
        <pt x="1097" y="1168" on="1"/>
        <pt x="1097" y="1152" on="0"/>
        <pt x="1092" y="1152" on="1"/>
        <pt x="1090" y="1152" on="0"/>
        <pt x="1082" y="1154" on="0"/>
        <pt x="1080" y="1159" on="1"/>
        <pt x="1072" y="1175" on="0"/>
        <pt x="1054" y="1213" on="0"/>
        <pt x="1035" y="1252" on="0"/>
        <pt x="1016" y="1288" on="0"/>
        <pt x="1007" y="1301" on="1"/>
        <pt x="994" y="1320" on="0"/>
        <pt x="952" y="1361" on="0"/>
        <pt x="900" y="1395" on="0"/>
        <pt x="841" y="1417" on="0"/>
        <pt x="812" y="1419" on="1"/>
        <pt x="794" y="1419" on="0"/>
        <pt x="767" y="1420" on="0"/>
        <pt x="741" y="1420" on="0"/>
        <pt x="713" y="1420" on="0"/>
        <pt x="694" y="1420" on="1"/>
        <pt x="655" y="1420" on="0"/>
        <pt x="572" y="1416" on="0"/>
        <pt x="533" y="1408" on="1"/>
        <pt x="524" y="1406" on="0"/>
        <pt x="506" y="1399" on="0"/>
        <pt x="506" y="1386" on="1"/>
        <pt x="506" y="761" on="1"/>
        <pt x="508" y="748" on="0"/>
        <pt x="520" y="744" on="1"/>
        <pt x="577" y="749" on="0"/>
        <pt x="706" y="756" on="0"/>
        <pt x="763" y="756" on="1"/>
        <pt x="791" y="758" on="0"/>
        <pt x="836" y="791" on="0"/>
        <pt x="870" y="838" on="0"/>
        <pt x="896" y="895" on="0"/>
        <pt x="916" y="949" on="0"/>
        <pt x="931" y="992" on="0"/>
        <pt x="938" y="1003" on="1"/>
        <pt x="941" y="1008" on="0"/>
        <pt x="947" y="1010" on="0"/>
        <pt x="961" y="1010" on="1"/>
        <pt x="967" y="1010" on="0"/>
        <pt x="980" y="1005" on="0"/>
        <pt x="980" y="1000" on="1"/>
        <pt x="980" y="964" on="0"/>
        <pt x="975" y="908" on="0"/>
        <pt x="969" y="864" on="0"/>
        <pt x="964" y="827" on="0"/>
        <pt x="964" y="810" on="1"/>
        <pt x="964" y="436" on="1"/>
        <pt x="962" y="433" on="0"/>
        <pt x="959" y="431" on="1"/>
        <pt x="954" y="426" on="0"/>
        <pt x="949" y="426" on="1"/>
        <pt x="941" y="426" on="0"/>
        <pt x="926" y="455" on="0"/>
        <pt x="911" y="499" on="0"/>
        <pt x="896" y="553" on="0"/>
        <pt x="879" y="605" on="0"/>
        <pt x="860" y="647" on="0"/>
        <pt x="848" y="657" on="1"/>
        <pt x="837" y="666" on="0"/>
        <pt x="795" y="680" on="0"/>
        <pt x="742" y="688" on="0"/>
        <pt x="682" y="693" on="0"/>
        <pt x="627" y="695" on="0"/>
        <pt x="579" y="695" on="0"/>
        <pt x="565" y="695" on="1"/>
        <pt x="543" y="695" on="0"/>
        <pt x="518" y="690" on="0"/>
        <pt x="505" y="674" on="0"/>
        <pt x="501" y="644" on="0"/>
        <pt x="501" y="618" on="1"/>
        <pt x="501" y="215" on="1"/>
        <pt x="501" y="186" on="0"/>
        <pt x="507" y="142" on="0"/>
        <pt x="522" y="109" on="0"/>
        <pt x="547" y="84" on="0"/>
        <pt x="565" y="73" on="1"/>
        <pt x="579" y="65" on="0"/>
        <pt x="614" y="50" on="0"/>
        <pt x="629" y="50" on="1"/>
        <pt x="786" y="50" on="1"/>
        <pt x="809" y="50" on="0"/>
        <pt x="846" y="51" on="0"/>
        <pt x="884" y="54" on="0"/>
        <pt x="926" y="61" on="0"/>
        <pt x="954" y="67" on="1"/>
        <pt x="984" y="74" on="0"/>
        <pt x="1036" y="108" on="0"/>
        <pt x="1083" y="156" on="0"/>
        <pt x="1125" y="216" on="0"/>
        <pt x="1144" y="249" on="1"/>
        <pt x="1147" y="254" on="0"/>
        <pt x="1163" y="287" on="0"/>
        <pt x="1172" y="296" on="1"/>
        <pt x="1173" y="298" on="0"/>
        <pt x="1177" y="298" on="1"/>
        <pt x="1181" y="298" on="0"/>
        <pt x="1184" y="291" on="1"/>
        <pt x="1191" y="278" on="0"/>
        <pt x="1191" y="239" on="1"/>
        <pt x="1191" y="227" on="0"/>
        <pt x="1177" y="178" on="0"/>
        <pt x="1172" y="156" on="1"/>
        <pt x="1167" y="138" on="0"/>
        <pt x="1161" y="84" on="0"/>
        <pt x="1151" y="33" on="0"/>
        <pt x="1132" y="-3" on="0"/>
        <pt x="1116" y="-3" on="1"/>
        <pt x="1110" y="-3" on="0"/>
        <pt x="1102" y="-2" on="0"/>
        <pt x="1099" y="-2" on="1"/>
        <pt x="1096" y="0" on="0"/>
        <pt x="1082" y="0" on="1"/>
        <pt x="345" y="0" on="1"/>
        <pt x="322" y="0" on="0"/>
        <pt x="257" y="-3" on="0"/>
        <pt x="191" y="-6" on="0"/>
        <pt x="132" y="-9" on="0"/>
        <pt x="115" y="-9" on="1"/>
        <pt x="87" y="-9" on="1"/>
        <pt x="76" y="-9" on="0"/>
        <pt x="54" y="0" on="0"/>
        <pt x="54" y="10" on="1"/>
        <pt x="54" y="19" on="0"/>
        <pt x="59" y="37" on="0"/>
        <pt x="68" y="42" on="1"/>
        <pt x="70" y="43" on="0"/>
        <pt x="85" y="45" on="0"/>
        <pt x="103" y="47" on="0"/>
        <pt x="119" y="48" on="0"/>
        <pt x="123" y="48" on="1"/>
        <pt x="147" y="50" on="0"/>
        <pt x="179" y="53" on="0"/>
        <pt x="201" y="61" on="1"/>
        <pt x="244" y="74" on="0"/>
        <pt x="288" y="117" on="0"/>
        <pt x="288" y="164" on="1"/>
      </contour>
    </TTGlyph>
    <TTGlyph name="Eacute" xMin="54" yMin="-9" xMax="1191" yMax="1867">
      <component glyphName="E" x="0" y="0" flags="0x204"/>
      <component glyphName="Acute" x="129" y="0" flags="0x4"/>
    </TTGlyph>
    <TTGlyph name="Ecaron" xMin="54" yMin="-9" xMax="1191" yMax="1873">
      <component glyphName="E" x="0" y="0" flags="0x204"/>
      <component glyphName="Caron" x="170" y="9" flags="0x4"/>
    </TTGlyph>
    <TTGlyph name="Ecircumflex" xMin="54" yMin="-9" xMax="1191" yMax="1867">
      <component glyphName="E" x="0" y="0" flags="0x204"/>
      <component glyphName="Circumflex" x="180" y="0" flags="0x4"/>
    </TTGlyph>
    <TTGlyph name="Edieresis" xMin="54" yMin="-9" xMax="1191" yMax="1828">
      <component glyphName="E" x="0" y="0" flags="0x204"/>
      <component glyphName="Dieresis" x="120" y="0" flags="0x4"/>
    </TTGlyph>
    <TTGlyph name="Edotaccent" xMin="54" yMin="-9" xMax="1191" yMax="1834">
      <component glyphName="E" x="0" y="0" flags="0x204"/>
      <component glyphName="Dotaccent" x="127" y="0" flags="0x4"/>
    </TTGlyph>
    <TTGlyph name="Egrave" xMin="54" yMin="-9" xMax="1191" yMax="1868">
      <component glyphName="E" x="0" y="0" flags="0x204"/>
      <component glyphName="Grave" x="54" y="0" flags="0x4"/>
    </TTGlyph>
    <TTGlyph name="Emacron" xMin="54" yMin="-9" xMax="1191" yMax="1734">
      <component glyphName="E" x="0" y="0" flags="0x204"/>
      <component glyphName="Macron" x="225" y="0" flags="0x4"/>
    </TTGlyph>
    <TTGlyph name="Eogonek" xMin="54" yMin="-523" xMax="1191" yMax="1465">
      <contour>
        <pt x="1105" y="-435" on="1"/>
        <pt x="1105" y="-446" on="0"/>
        <pt x="1083" y="-477" on="0"/>
        <pt x="1046" y="-504" on="0"/>
        <pt x="995" y="-523" on="0"/>
        <pt x="966" y="-523" on="1"/>
        <pt x="943" y="-523" on="0"/>
        <pt x="884" y="-519" on="0"/>
        <pt x="822" y="-506" on="0"/>
        <pt x="762" y="-480" on="0"/>
        <pt x="714" y="-437" on="0"/>
        <pt x="685" y="-373" on="0"/>
        <pt x="685" y="-328" on="1"/>
        <pt x="685" y="-267" on="0"/>
        <pt x="730" y="-169" on="0"/>
        <pt x="795" y="-90" on="0"/>
        <pt x="870" y="-31" on="0"/>
        <pt x="900" y="-9" on="1"/>
        <pt x="912" y="0" on="1"/>
        <pt x="345" y="0" on="1"/>
        <pt x="322" y="0" on="0"/>
        <pt x="257" y="-3" on="0"/>
        <pt x="191" y="-6" on="0"/>
        <pt x="132" y="-9" on="0"/>
        <pt x="115" y="-9" on="1"/>
        <pt x="87" y="-9" on="1"/>
        <pt x="76" y="-9" on="0"/>
        <pt x="54" y="0" on="0"/>
        <pt x="54" y="10" on="1"/>
        <pt x="54" y="19" on="0"/>
        <pt x="59" y="37" on="0"/>
        <pt x="68" y="42" on="1"/>
        <pt x="70" y="43" on="0"/>
        <pt x="85" y="45" on="0"/>
        <pt x="103" y="47" on="0"/>
        <pt x="119" y="48" on="0"/>
        <pt x="123" y="48" on="1"/>
        <pt x="147" y="50" on="0"/>
        <pt x="179" y="53" on="0"/>
        <pt x="201" y="61" on="1"/>
        <pt x="244" y="74" on="0"/>
        <pt x="288" y="117" on="0"/>
        <pt x="288" y="164" on="1"/>
        <pt x="288" y="1322" on="1"/>
        <pt x="288" y="1352" on="0"/>
        <pt x="244" y="1388" on="0"/>
        <pt x="180" y="1409" on="0"/>
        <pt x="108" y="1417" on="0"/>
        <pt x="80" y="1419" on="1"/>
        <pt x="73" y="1419" on="0"/>
        <pt x="61" y="1422" on="0"/>
        <pt x="61" y="1431" on="1"/>
        <pt x="61" y="1437" on="0"/>
        <pt x="71" y="1445" on="0"/>
        <pt x="85" y="1450" on="0"/>
        <pt x="99" y="1451" on="0"/>
        <pt x="104" y="1451" on="1"/>
        <pt x="111" y="1451" on="0"/>
        <pt x="157" y="1450" on="0"/>
        <pt x="225" y="1449" on="0"/>
        <pt x="308" y="1448" on="0"/>
        <pt x="353" y="1448" on="1"/>
        <pt x="430" y="1448" on="0"/>
        <pt x="541" y="1453" on="0"/>
        <pt x="632" y="1460" on="0"/>
        <pt x="715" y="1465" on="0"/>
        <pt x="763" y="1465" on="1"/>
        <pt x="782" y="1465" on="0"/>
        <pt x="811" y="1465" on="0"/>
        <pt x="841" y="1465" on="0"/>
        <pt x="878" y="1464" on="0"/>
        <pt x="931" y="1462" on="0"/>
        <pt x="1008" y="1460" on="0"/>
        <pt x="1063" y="1458" on="1"/>
        <pt x="1074" y="1457" on="0"/>
        <pt x="1090" y="1443" on="0"/>
        <pt x="1092" y="1432" on="1"/>
        <pt x="1094" y="1363" on="0"/>
        <pt x="1097" y="1238" on="0"/>
        <pt x="1097" y="1168" on="1"/>
        <pt x="1097" y="1152" on="0"/>
        <pt x="1092" y="1152" on="1"/>
        <pt x="1090" y="1152" on="0"/>
        <pt x="1082" y="1154" on="0"/>
        <pt x="1080" y="1159" on="1"/>
        <pt x="1072" y="1175" on="0"/>
        <pt x="1054" y="1213" on="0"/>
        <pt x="1035" y="1252" on="0"/>
        <pt x="1016" y="1288" on="0"/>
        <pt x="1007" y="1301" on="1"/>
        <pt x="994" y="1320" on="0"/>
        <pt x="952" y="1361" on="0"/>
        <pt x="900" y="1395" on="0"/>
        <pt x="841" y="1417" on="0"/>
        <pt x="812" y="1419" on="1"/>
        <pt x="794" y="1419" on="0"/>
        <pt x="767" y="1420" on="0"/>
        <pt x="741" y="1420" on="0"/>
        <pt x="713" y="1420" on="0"/>
        <pt x="694" y="1420" on="1"/>
        <pt x="655" y="1420" on="0"/>
        <pt x="572" y="1416" on="0"/>
        <pt x="533" y="1408" on="1"/>
        <pt x="524" y="1406" on="0"/>
        <pt x="506" y="1399" on="0"/>
        <pt x="506" y="1386" on="1"/>
        <pt x="506" y="761" on="1"/>
        <pt x="508" y="748" on="0"/>
        <pt x="520" y="744" on="1"/>
        <pt x="577" y="749" on="0"/>
        <pt x="706" y="756" on="0"/>
        <pt x="763" y="756" on="1"/>
        <pt x="791" y="758" on="0"/>
        <pt x="836" y="791" on="0"/>
        <pt x="870" y="838" on="0"/>
        <pt x="896" y="895" on="0"/>
        <pt x="916" y="949" on="0"/>
        <pt x="931" y="992" on="0"/>
        <pt x="938" y="1003" on="1"/>
        <pt x="941" y="1008" on="0"/>
        <pt x="947" y="1010" on="0"/>
        <pt x="961" y="1010" on="1"/>
        <pt x="967" y="1010" on="0"/>
        <pt x="980" y="1005" on="0"/>
        <pt x="980" y="1000" on="1"/>
        <pt x="980" y="964" on="0"/>
        <pt x="975" y="908" on="0"/>
        <pt x="969" y="864" on="0"/>
        <pt x="964" y="827" on="0"/>
        <pt x="964" y="810" on="1"/>
        <pt x="964" y="436" on="1"/>
        <pt x="962" y="433" on="0"/>
        <pt x="959" y="431" on="1"/>
        <pt x="954" y="426" on="0"/>
        <pt x="949" y="426" on="1"/>
        <pt x="941" y="426" on="0"/>
        <pt x="926" y="455" on="0"/>
        <pt x="911" y="499" on="0"/>
        <pt x="896" y="553" on="0"/>
        <pt x="879" y="605" on="0"/>
        <pt x="860" y="647" on="0"/>
        <pt x="848" y="657" on="1"/>
        <pt x="837" y="666" on="0"/>
        <pt x="795" y="680" on="0"/>
        <pt x="742" y="688" on="0"/>
        <pt x="682" y="693" on="0"/>
        <pt x="627" y="695" on="0"/>
        <pt x="579" y="695" on="0"/>
        <pt x="565" y="695" on="1"/>
        <pt x="543" y="695" on="0"/>
        <pt x="518" y="690" on="0"/>
        <pt x="505" y="674" on="0"/>
        <pt x="501" y="644" on="0"/>
        <pt x="501" y="618" on="1"/>
        <pt x="501" y="215" on="1"/>
        <pt x="501" y="186" on="0"/>
        <pt x="507" y="142" on="0"/>
        <pt x="522" y="109" on="0"/>
        <pt x="547" y="84" on="0"/>
        <pt x="565" y="73" on="1"/>
        <pt x="579" y="65" on="0"/>
        <pt x="614" y="50" on="0"/>
        <pt x="629" y="50" on="1"/>
        <pt x="786" y="50" on="1"/>
        <pt x="809" y="50" on="0"/>
        <pt x="846" y="51" on="0"/>
        <pt x="884" y="54" on="0"/>
        <pt x="926" y="61" on="0"/>
        <pt x="954" y="67" on="1"/>
        <pt x="984" y="74" on="0"/>
        <pt x="1036" y="108" on="0"/>
        <pt x="1083" y="156" on="0"/>
        <pt x="1125" y="216" on="0"/>
        <pt x="1144" y="249" on="1"/>
        <pt x="1147" y="254" on="0"/>
        <pt x="1163" y="287" on="0"/>
        <pt x="1172" y="296" on="1"/>
        <pt x="1173" y="298" on="0"/>
        <pt x="1177" y="298" on="1"/>
        <pt x="1181" y="298" on="0"/>
        <pt x="1184" y="291" on="1"/>
        <pt x="1191" y="278" on="0"/>
        <pt x="1191" y="239" on="1"/>
        <pt x="1191" y="227" on="0"/>
        <pt x="1177" y="178" on="0"/>
        <pt x="1172" y="156" on="1"/>
        <pt x="1167" y="138" on="0"/>
        <pt x="1161" y="84" on="0"/>
        <pt x="1151" y="33" on="0"/>
        <pt x="1132" y="-3" on="0"/>
        <pt x="1116" y="-3" on="1"/>
        <pt x="1110" y="-3" on="0"/>
        <pt x="1102" y="-2" on="0"/>
        <pt x="1099" y="-2" on="1"/>
        <pt x="1096" y="0" on="0"/>
        <pt x="1082" y="0" on="1"/>
        <pt x="1002" y="0" on="1"/>
        <pt x="967" y="-33" on="0"/>
        <pt x="911" y="-94" on="0"/>
        <pt x="872" y="-159" on="0"/>
        <pt x="851" y="-233" on="0"/>
        <pt x="851" y="-279" on="1"/>
        <pt x="851" y="-310" on="0"/>
        <pt x="867" y="-366" on="0"/>
        <pt x="900" y="-408" on="0"/>
        <pt x="950" y="-433" on="0"/>
        <pt x="983" y="-433" on="1"/>
        <pt x="1004" y="-433" on="0"/>
        <pt x="1036" y="-424" on="0"/>
        <pt x="1060" y="-412" on="0"/>
        <pt x="1078" y="-403" on="0"/>
        <pt x="1084" y="-403" on="1"/>
        <pt x="1097" y="-403" on="0"/>
        <pt x="1105" y="-424" on="0"/>
      </contour>
    </TTGlyph>
    <TTGlyph name="Eth" xMin="42" yMin="-7" xMax="1476" yMax="1443">
      <contour>
        <pt x="521" y="808" on="1"/>
        <pt x="521" y="772" on="1"/>
        <pt x="533" y="772" on="0"/>
        <pt x="580" y="773" on="0"/>
        <pt x="631" y="773" on="0"/>
        <pt x="678" y="773" on="0"/>
        <pt x="690" y="773" on="1"/>
        <pt x="702" y="773" on="0"/>
        <pt x="749" y="773" on="0"/>
        <pt x="801" y="773" on="0"/>
        <pt x="849" y="772" on="0"/>
        <pt x="861" y="772" on="1"/>
        <pt x="872" y="772" on="0"/>
        <pt x="889" y="739" on="0"/>
        <pt x="889" y="723" on="1"/>
        <pt x="889" y="717" on="0"/>
        <pt x="883" y="699" on="0"/>
        <pt x="875" y="681" on="0"/>
        <pt x="865" y="668" on="0"/>
        <pt x="861" y="668" on="1"/>
        <pt x="844" y="668" on="0"/>
        <pt x="788" y="670" on="0"/>
        <pt x="727" y="671" on="0"/>
        <pt x="670" y="673" on="0"/>
        <pt x="654" y="673" on="1"/>
        <pt x="646" y="673" on="0"/>
        <pt x="607" y="673" on="0"/>
        <pt x="563" y="671" on="0"/>
        <pt x="525" y="669" on="0"/>
        <pt x="517" y="668" on="1"/>
        <pt x="512" y="588" on="0"/>
        <pt x="500" y="441" on="0"/>
        <pt x="500" y="363" on="1"/>
        <pt x="500" y="237" on="0"/>
        <pt x="529" y="102" on="0"/>
        <pt x="555" y="73" on="1"/>
        <pt x="567" y="57" on="0"/>
        <pt x="612" y="48" on="0"/>
        <pt x="630" y="48" on="1"/>
        <pt x="708" y="48" on="0"/>
        <pt x="848" y="88" on="0"/>
        <pt x="967" y="158" on="0"/>
        <pt x="1062" y="252" on="0"/>
        <pt x="1095" y="306" on="1"/>
        <pt x="1164" y="417" on="0"/>
        <pt x="1232" y="642" on="0"/>
        <pt x="1232" y="744" on="1"/>
        <pt x="1232" y="800" on="0"/>
        <pt x="1215" y="902" on="0"/>
        <pt x="1191" y="988" on="0"/>
        <pt x="1163" y="1054" on="0"/>
        <pt x="1152" y="1073" on="1"/>
        <pt x="1137" y="1100" on="0"/>
        <pt x="1083" y="1177" on="0"/>
        <pt x="998" y="1260" on="0"/>
        <pt x="876" y="1339" on="0"/>
        <pt x="792" y="1368" on="1"/>
        <pt x="740" y="1387" on="0"/>
        <pt x="636" y="1401" on="0"/>
        <pt x="574" y="1401" on="1"/>
        <pt x="568" y="1401" on="0"/>
        <pt x="549" y="1399" on="0"/>
        <pt x="533" y="1393" on="0"/>
        <pt x="521" y="1380" on="0"/>
        <pt x="521" y="1370" on="1"/>
      </contour>
      <contour>
        <pt x="81" y="668" on="1"/>
        <pt x="76" y="668" on="0"/>
        <pt x="66" y="679" on="0"/>
        <pt x="57" y="696" on="0"/>
        <pt x="52" y="715" on="0"/>
        <pt x="52" y="723" on="1"/>
        <pt x="52" y="744" on="0"/>
        <pt x="68" y="772" on="0"/>
        <pt x="76" y="772" on="1"/>
        <pt x="103" y="769" on="0"/>
        <pt x="156" y="767" on="0"/>
        <pt x="183" y="767" on="1"/>
        <pt x="210" y="767" on="0"/>
        <pt x="264" y="769" on="0"/>
        <pt x="291" y="772" on="1"/>
        <pt x="291" y="1375" on="1"/>
        <pt x="288" y="1382" on="0"/>
        <pt x="243" y="1394" on="0"/>
        <pt x="180" y="1404" on="0"/>
        <pt x="108" y="1414" on="0"/>
        <pt x="78" y="1419" on="1"/>
        <pt x="62" y="1421" on="0"/>
        <pt x="62" y="1429" on="1"/>
        <pt x="62" y="1431" on="0"/>
        <pt x="73" y="1439" on="1"/>
        <pt x="77" y="1441" on="0"/>
        <pt x="92" y="1443" on="0"/>
        <pt x="106" y="1443" on="1"/>
        <pt x="346" y="1443" on="1"/>
        <pt x="445" y="1443" on="0"/>
        <pt x="646" y="1439" on="0"/>
        <pt x="831" y="1428" on="0"/>
        <pt x="987" y="1410" on="0"/>
        <pt x="1040" y="1396" on="1"/>
        <pt x="1118" y="1373" on="0"/>
        <pt x="1253" y="1275" on="0"/>
        <pt x="1311" y="1209" on="1"/>
        <pt x="1334" y="1182" on="0"/>
        <pt x="1391" y="1091" on="0"/>
        <pt x="1442" y="973" on="0"/>
        <pt x="1476" y="835" on="0"/>
        <pt x="1476" y="761" on="1"/>
        <pt x="1476" y="586" on="0"/>
        <pt x="1345" y="305" on="0"/>
        <pt x="1221" y="187" on="1"/>
        <pt x="1215" y="184" on="0"/>
        <pt x="1192" y="166" on="0"/>
        <pt x="1166" y="145" on="0"/>
        <pt x="1143" y="127" on="0"/>
        <pt x="1138" y="123" on="1"/>
        <pt x="1115" y="104" on="0"/>
        <pt x="1048" y="70" on="0"/>
        <pt x="968" y="42" on="0"/>
        <pt x="881" y="18" on="0"/>
        <pt x="797" y="2" on="0"/>
        <pt x="723" y="-7" on="0"/>
        <pt x="696" y="-7" on="1"/>
        <pt x="657" y="-7" on="0"/>
        <pt x="575" y="0" on="0"/>
        <pt x="521" y="0" on="1"/>
        <pt x="74" y="0" on="1"/>
        <pt x="42" y="0" on="0"/>
        <pt x="42" y="21" on="1"/>
        <pt x="42" y="33" on="0"/>
        <pt x="84" y="48" on="0"/>
        <pt x="144" y="57" on="0"/>
        <pt x="212" y="64" on="0"/>
        <pt x="239" y="69" on="1"/>
        <pt x="259" y="73" on="0"/>
        <pt x="280" y="88" on="0"/>
        <pt x="284" y="97" on="1"/>
        <pt x="289" y="118" on="0"/>
        <pt x="291" y="143" on="0"/>
        <pt x="291" y="159" on="1"/>
        <pt x="291" y="668" on="1"/>
        <pt x="267" y="666" on="0"/>
        <pt x="220" y="664" on="0"/>
        <pt x="196" y="664" on="1"/>
        <pt x="167" y="664" on="0"/>
        <pt x="110" y="666" on="0"/>
      </contour>
    </TTGlyph>
    <TTGlyph name="Euro" xMin="84" yMin="0" xMax="1101" yMax="1450">
      <contour>
        <pt x="400" y="782" on="1"/>
        <pt x="397" y="753" on="0"/>
        <pt x="397" y="730" on="1"/>
        <pt x="397" y="719" on="0"/>
        <pt x="398" y="702" on="0"/>
        <pt x="398" y="695" on="1"/>
        <pt x="900" y="695" on="1"/>
        <pt x="912" y="695" on="0"/>
        <pt x="932" y="693" on="0"/>
        <pt x="945" y="690" on="1"/>
        <pt x="952" y="676" on="0"/>
        <pt x="952" y="663" on="1"/>
        <pt x="952" y="649" on="0"/>
        <pt x="938" y="630" on="0"/>
        <pt x="921" y="616" on="1"/>
        <pt x="390" y="616" on="1"/>
        <pt x="395" y="548" on="1"/>
        <pt x="398" y="512" on="0"/>
        <pt x="411" y="440" on="0"/>
        <pt x="430" y="371" on="0"/>
        <pt x="452" y="308" on="0"/>
        <pt x="464" y="282" on="1"/>
        <pt x="478" y="249" on="0"/>
        <pt x="530" y="183" on="0"/>
        <pt x="597" y="129" on="0"/>
        <pt x="675" y="95" on="0"/>
        <pt x="715" y="95" on="1"/>
        <pt x="743" y="95" on="0"/>
        <pt x="781" y="98" on="0"/>
        <pt x="818" y="108" on="0"/>
        <pt x="861" y="129" on="0"/>
        <pt x="893" y="147" on="1"/>
        <pt x="936" y="172" on="0"/>
        <pt x="997" y="221" on="0"/>
        <pt x="1018" y="251" on="1"/>
        <pt x="1029" y="268" on="0"/>
        <pt x="1049" y="300" on="0"/>
        <pt x="1059" y="317" on="1"/>
        <pt x="1062" y="322" on="0"/>
        <pt x="1075" y="327" on="0"/>
        <pt x="1082" y="327" on="1"/>
        <pt x="1091" y="327" on="0"/>
        <pt x="1097" y="314" on="0"/>
        <pt x="1101" y="303" on="1"/>
        <pt x="1098" y="286" on="0"/>
        <pt x="1085" y="260" on="0"/>
        <pt x="1078" y="246" on="1"/>
        <pt x="1075" y="239" on="0"/>
        <pt x="1046" y="191" on="0"/>
        <pt x="1002" y="132" on="0"/>
        <pt x="947" y="76" on="0"/>
        <pt x="919" y="61" on="1"/>
        <pt x="902" y="49" on="0"/>
        <pt x="849" y="27" on="0"/>
        <pt x="790" y="10" on="0"/>
        <pt x="733" y="0" on="0"/>
        <pt x="712" y="0" on="1"/>
        <pt x="694" y="0" on="0"/>
        <pt x="641" y="7" on="0"/>
        <pt x="581" y="22" on="0"/>
        <pt x="516" y="46" on="0"/>
        <pt x="485" y="64" on="1"/>
        <pt x="453" y="82" on="0"/>
        <pt x="397" y="128" on="0"/>
        <pt x="352" y="175" on="0"/>
        <pt x="320" y="219" on="0"/>
        <pt x="312" y="235" on="1"/>
        <pt x="290" y="277" on="0"/>
        <pt x="258" y="371" on="0"/>
        <pt x="241" y="434" on="1"/>
        <pt x="227" y="489" on="0"/>
        <pt x="214" y="589" on="0"/>
        <pt x="210" y="623" on="1"/>
        <pt x="99" y="623" on="1"/>
        <pt x="85" y="637" on="0"/>
        <pt x="85" y="650" on="1"/>
        <pt x="85" y="661" on="0"/>
        <pt x="98" y="682" on="0"/>
        <pt x="115" y="695" on="1"/>
        <pt x="215" y="695" on="1"/>
        <pt x="215" y="711" on="1"/>
        <pt x="215" y="727" on="0"/>
        <pt x="215" y="764" on="0"/>
        <pt x="217" y="784" on="1"/>
        <pt x="94" y="784" on="1"/>
        <pt x="90" y="789" on="0"/>
        <pt x="84" y="801" on="0"/>
        <pt x="84" y="808" on="1"/>
        <pt x="84" y="822" on="0"/>
        <pt x="103" y="851" on="0"/>
        <pt x="115" y="851" on="1"/>
        <pt x="175" y="851" on="1"/>
        <pt x="224" y="851" on="1"/>
        <pt x="225" y="899" on="0"/>
        <pt x="236" y="979" on="0"/>
        <pt x="243" y="1002" on="1"/>
        <pt x="252" y="1036" on="0"/>
        <pt x="273" y="1107" on="0"/>
        <pt x="284" y="1131" on="1"/>
        <pt x="298" y="1167" on="0"/>
        <pt x="350" y="1246" on="0"/>
        <pt x="414" y="1317" on="0"/>
        <pt x="485" y="1375" on="0"/>
        <pt x="520" y="1391" on="1"/>
        <pt x="548" y="1405" on="0"/>
        <pt x="616" y="1427" on="0"/>
        <pt x="681" y="1442" on="0"/>
        <pt x="732" y="1450" on="0"/>
        <pt x="743" y="1450" on="1"/>
        <pt x="781" y="1450" on="0"/>
        <pt x="852" y="1436" on="0"/>
        <pt x="921" y="1415" on="0"/>
        <pt x="987" y="1388" on="0"/>
        <pt x="1021" y="1375" on="1"/>
        <pt x="1038" y="1370" on="0"/>
        <pt x="1071" y="1351" on="0"/>
        <pt x="1085" y="1344" on="1"/>
        <pt x="1092" y="1314" on="0"/>
        <pt x="1099" y="1262" on="0"/>
        <pt x="1101" y="1227" on="1"/>
        <pt x="1101" y="1209" on="0"/>
        <pt x="1099" y="1183" on="0"/>
        <pt x="1097" y="1160" on="0"/>
        <pt x="1093" y="1136" on="0"/>
        <pt x="1092" y="1119" on="1"/>
        <pt x="1090" y="1101" on="0"/>
        <pt x="1086" y="1063" on="0"/>
        <pt x="1082" y="1045" on="1"/>
        <pt x="1075" y="1036" on="0"/>
        <pt x="1066" y="1036" on="1"/>
        <pt x="1059" y="1036" on="0"/>
        <pt x="1047" y="1041" on="1"/>
        <pt x="1046" y="1058" on="0"/>
        <pt x="1041" y="1083" on="0"/>
        <pt x="1037" y="1097" on="1"/>
        <pt x="1029" y="1120" on="0"/>
        <pt x="1015" y="1164" on="0"/>
        <pt x="1006" y="1185" on="1"/>
        <pt x="997" y="1199" on="0"/>
        <pt x="982" y="1241" on="0"/>
        <pt x="973" y="1254" on="1"/>
        <pt x="976" y="1248" on="0"/>
        <pt x="959" y="1268" on="0"/>
        <pt x="932" y="1300" on="0"/>
        <pt x="900" y="1332" on="0"/>
        <pt x="888" y="1337" on="1"/>
        <pt x="857" y="1351" on="0"/>
        <pt x="786" y="1368" on="0"/>
        <pt x="743" y="1368" on="1"/>
        <pt x="722" y="1368" on="0"/>
        <pt x="665" y="1352" on="0"/>
        <pt x="608" y="1326" on="0"/>
        <pt x="557" y="1293" on="0"/>
        <pt x="542" y="1275" on="1"/>
        <pt x="494" y="1220" on="0"/>
        <pt x="432" y="1107" on="0"/>
        <pt x="418" y="1041" on="1"/>
        <pt x="416" y="1036" on="0"/>
        <pt x="412" y="1025" on="0"/>
        <pt x="408" y="1000" on="0"/>
        <pt x="405" y="957" on="0"/>
        <pt x="405" y="922" on="1"/>
        <pt x="405" y="917" on="0"/>
        <pt x="405" y="898" on="0"/>
        <pt x="404" y="877" on="0"/>
        <pt x="404" y="857" on="0"/>
        <pt x="404" y="851" on="1"/>
        <pt x="992" y="851" on="1"/>
        <pt x="1001" y="841" on="0"/>
        <pt x="1001" y="823" on="1"/>
        <pt x="1001" y="815" on="0"/>
        <pt x="988" y="796" on="0"/>
        <pt x="969" y="782" on="1"/>
      </contour>
    </TTGlyph>
    <TTGlyph name="F" xMin="35" yMin="-3" xMax="1047" yMax="1451">
      <contour>
        <pt x="284" y="83" on="1"/>
        <pt x="284" y="1348" on="1"/>
        <pt x="284" y="1359" on="0"/>
        <pt x="255" y="1375" on="0"/>
        <pt x="209" y="1386" on="0"/>
        <pt x="154" y="1393" on="0"/>
        <pt x="102" y="1398" on="0"/>
        <pt x="58" y="1402" on="0"/>
        <pt x="48" y="1405" on="1"/>
        <pt x="35" y="1406" on="0"/>
        <pt x="35" y="1420" on="1"/>
        <pt x="35" y="1427" on="0"/>
        <pt x="54" y="1432" on="0"/>
        <pt x="61" y="1432" on="1"/>
        <pt x="358" y="1432" on="1"/>
        <pt x="386" y="1432" on="0"/>
        <pt x="472" y="1438" on="0"/>
        <pt x="570" y="1444" on="0"/>
        <pt x="672" y="1450" on="0"/>
        <pt x="716" y="1450" on="1"/>
        <pt x="976" y="1450" on="1"/>
        <pt x="977" y="1451" on="0"/>
        <pt x="988" y="1451" on="1"/>
        <pt x="1009" y="1451" on="1"/>
        <pt x="1024" y="1451" on="0"/>
        <pt x="1033" y="1422" on="0"/>
        <pt x="1033" y="1410" on="1"/>
        <pt x="1037" y="1358" on="0"/>
        <pt x="1047" y="1249" on="0"/>
        <pt x="1047" y="1197" on="1"/>
        <pt x="1047" y="1186" on="0"/>
        <pt x="1034" y="1171" on="0"/>
        <pt x="1022" y="1171" on="1"/>
        <pt x="1014" y="1171" on="0"/>
        <pt x="998" y="1178" on="0"/>
        <pt x="991" y="1194" on="1"/>
        <pt x="983" y="1211" on="0"/>
        <pt x="963" y="1253" on="0"/>
        <pt x="939" y="1293" on="0"/>
        <pt x="913" y="1326" on="0"/>
        <pt x="901" y="1334" on="1"/>
        <pt x="868" y="1357" on="0"/>
        <pt x="798" y="1383" on="0"/>
        <pt x="723" y="1395" on="0"/>
        <pt x="645" y="1398" on="0"/>
        <pt x="604" y="1398" on="1"/>
        <pt x="535" y="1398" on="1"/>
        <pt x="510" y="1398" on="0"/>
        <pt x="477" y="1383" on="0"/>
        <pt x="477" y="1353" on="1"/>
        <pt x="477" y="791" on="1"/>
        <pt x="477" y="780" on="0"/>
        <pt x="495" y="770" on="0"/>
        <pt x="500" y="768" on="1"/>
        <pt x="521" y="771" on="0"/>
        <pt x="569" y="773" on="0"/>
        <pt x="592" y="773" on="1"/>
        <pt x="628" y="773" on="0"/>
        <pt x="701" y="775" on="0"/>
        <pt x="765" y="784" on="0"/>
        <pt x="816" y="802" on="0"/>
        <pt x="829" y="818" on="1"/>
        <pt x="833" y="824" on="0"/>
        <pt x="842" y="850" on="0"/>
        <pt x="850" y="880" on="0"/>
        <pt x="857" y="906" on="0"/>
        <pt x="860" y="912" on="1"/>
        <pt x="865" y="927" on="0"/>
        <pt x="867" y="962" on="0"/>
        <pt x="871" y="992" on="0"/>
        <pt x="885" y="1012" on="0"/>
        <pt x="903" y="1012" on="1"/>
        <pt x="925" y="1012" on="0"/>
        <pt x="934" y="978" on="0"/>
        <pt x="934" y="960" on="1"/>
        <pt x="934" y="576" on="1"/>
        <pt x="934" y="571" on="0"/>
        <pt x="934" y="560" on="0"/>
        <pt x="936" y="554" on="1"/>
        <pt x="938" y="538" on="0"/>
        <pt x="939" y="513" on="0"/>
        <pt x="939" y="509" on="1"/>
        <pt x="939" y="498" on="0"/>
        <pt x="928" y="480" on="0"/>
        <pt x="917" y="477" on="1"/>
        <pt x="904" y="477" on="0"/>
        <pt x="896" y="497" on="1"/>
        <pt x="886" y="523" on="0"/>
        <pt x="880" y="582" on="0"/>
        <pt x="866" y="637" on="0"/>
        <pt x="837" y="684" on="0"/>
        <pt x="804" y="699" on="1"/>
        <pt x="792" y="705" on="0"/>
        <pt x="756" y="713" on="0"/>
        <pt x="717" y="718" on="0"/>
        <pt x="679" y="721" on="0"/>
        <pt x="666" y="721" on="1"/>
        <pt x="661" y="721" on="0"/>
        <pt x="612" y="723" on="0"/>
        <pt x="585" y="723" on="1"/>
        <pt x="556" y="723" on="0"/>
        <pt x="508" y="720" on="0"/>
        <pt x="503" y="716" on="1"/>
        <pt x="494" y="708" on="0"/>
        <pt x="488" y="696" on="0"/>
        <pt x="488" y="680" on="1"/>
        <pt x="488" y="86" on="1"/>
        <pt x="489" y="72" on="0"/>
        <pt x="524" y="59" on="0"/>
        <pt x="575" y="53" on="0"/>
        <pt x="633" y="51" on="0"/>
        <pt x="683" y="46" on="0"/>
        <pt x="716" y="32" on="0"/>
        <pt x="716" y="17" on="1"/>
        <pt x="716" y="9" on="0"/>
        <pt x="705" y="1" on="0"/>
        <pt x="689" y="-2" on="0"/>
        <pt x="672" y="-3" on="0"/>
        <pt x="666" y="-3" on="1"/>
        <pt x="613" y="-3" on="0"/>
        <pt x="529" y="-1" on="0"/>
        <pt x="453" y="2" on="0"/>
        <pt x="381" y="5" on="0"/>
        <pt x="341" y="5" on="1"/>
        <pt x="318" y="5" on="0"/>
        <pt x="272" y="2" on="0"/>
        <pt x="247" y="0" on="1"/>
        <pt x="200" y="-3" on="0"/>
        <pt x="152" y="-3" on="1"/>
        <pt x="102" y="-3" on="1"/>
        <pt x="97" y="-3" on="0"/>
        <pt x="85" y="0" on="0"/>
        <pt x="85" y="9" on="1"/>
        <pt x="85" y="19" on="0"/>
        <pt x="97" y="27" on="0"/>
        <pt x="114" y="31" on="1"/>
        <pt x="142" y="37" on="0"/>
        <pt x="202" y="42" on="0"/>
        <pt x="252" y="49" on="0"/>
        <pt x="284" y="65" on="0"/>
      </contour>
    </TTGlyph>
    <TTGlyph name="G" xMin="89" yMin="-22" xMax="1380" yMax="1458">
      <contour>
        <pt x="89" y="687" on="1"/>
        <pt x="89" y="809" on="0"/>
        <pt x="137" y="1027" on="0"/>
        <pt x="235" y="1210" on="0"/>
        <pt x="384" y="1351" on="0"/>
        <pt x="485" y="1396" on="1"/>
        <pt x="557" y="1428" on="0"/>
        <pt x="707" y="1458" on="0"/>
        <pt x="788" y="1458" on="1"/>
        <pt x="839" y="1458" on="0"/>
        <pt x="940" y="1450" on="0"/>
        <pt x="1033" y="1427" on="0"/>
        <pt x="1115" y="1386" on="0"/>
        <pt x="1148" y="1353" on="1"/>
        <pt x="1162" y="1341" on="0"/>
        <pt x="1175" y="1341" on="1"/>
        <pt x="1180" y="1341" on="0"/>
        <pt x="1192" y="1355" on="0"/>
        <pt x="1202" y="1374" on="0"/>
        <pt x="1211" y="1394" on="0"/>
        <pt x="1214" y="1400" on="1"/>
        <pt x="1222" y="1417" on="0"/>
        <pt x="1236" y="1417" on="1"/>
        <pt x="1248" y="1417" on="0"/>
        <pt x="1260" y="1405" on="0"/>
        <pt x="1262" y="1396" on="1"/>
        <pt x="1262" y="1341" on="1"/>
        <pt x="1262" y="1317" on="0"/>
        <pt x="1260" y="1264" on="0"/>
        <pt x="1257" y="1213" on="0"/>
        <pt x="1255" y="1166" on="0"/>
        <pt x="1255" y="1149" on="1"/>
        <pt x="1255" y="986" on="1"/>
        <pt x="1255" y="967" on="0"/>
        <pt x="1243" y="967" on="1"/>
        <pt x="1237" y="967" on="0"/>
        <pt x="1223" y="991" on="0"/>
        <pt x="1209" y="1024" on="0"/>
        <pt x="1197" y="1057" on="0"/>
        <pt x="1193" y="1066" on="1"/>
        <pt x="1176" y="1114" on="0"/>
        <pt x="1125" y="1205" on="0"/>
        <pt x="1068" y="1281" on="0"/>
        <pt x="1008" y="1338" on="0"/>
        <pt x="982" y="1353" on="1"/>
        <pt x="930" y="1383" on="0"/>
        <pt x="826" y="1405" on="0"/>
        <pt x="788" y="1405" on="1"/>
        <pt x="746" y="1405" on="0"/>
        <pt x="685" y="1393" on="0"/>
        <pt x="638" y="1373" on="0"/>
        <pt x="604" y="1350" on="0"/>
        <pt x="591" y="1339" on="1"/>
        <pt x="526" y="1285" on="0"/>
        <pt x="436" y="1160" on="0"/>
        <pt x="378" y="1032" on="0"/>
        <pt x="346" y="910" on="0"/>
        <pt x="331" y="810" on="0"/>
        <pt x="328" y="739" on="0"/>
        <pt x="328" y="727" on="1"/>
        <pt x="328" y="710" on="0"/>
        <pt x="331" y="626" on="0"/>
        <pt x="346" y="514" on="0"/>
        <pt x="380" y="383" on="0"/>
        <pt x="443" y="255" on="0"/>
        <pt x="540" y="140" on="0"/>
        <pt x="610" y="99" on="1"/>
        <pt x="664" y="66" on="0"/>
        <pt x="779" y="43" on="0"/>
        <pt x="840" y="43" on="1"/>
        <pt x="867" y="43" on="0"/>
        <pt x="919" y="53" on="0"/>
        <pt x="958" y="72" on="0"/>
        <pt x="982" y="99" on="0"/>
        <pt x="982" y="116" on="1"/>
        <pt x="982" y="533" on="1"/>
        <pt x="982" y="550" on="0"/>
        <pt x="954" y="568" on="0"/>
        <pt x="911" y="578" on="0"/>
        <pt x="861" y="582" on="0"/>
        <pt x="818" y="590" on="0"/>
        <pt x="790" y="604" on="0"/>
        <pt x="790" y="618" on="1"/>
        <pt x="790" y="633" on="0"/>
        <pt x="831" y="645" on="0"/>
        <pt x="855" y="645" on="1"/>
        <pt x="868" y="645" on="0"/>
        <pt x="918" y="638" on="0"/>
        <pt x="1014" y="627" on="0"/>
        <pt x="1167" y="616" on="0"/>
        <pt x="1283" y="612" on="1"/>
        <pt x="1291" y="612" on="0"/>
        <pt x="1324" y="608" on="0"/>
        <pt x="1356" y="600" on="0"/>
        <pt x="1380" y="587" on="0"/>
        <pt x="1380" y="578" on="1"/>
        <pt x="1380" y="566" on="0"/>
        <pt x="1336" y="551" on="0"/>
        <pt x="1280" y="542" on="0"/>
        <pt x="1227" y="537" on="0"/>
        <pt x="1217" y="535" on="1"/>
        <pt x="1206" y="524" on="0"/>
        <pt x="1200" y="514" on="0"/>
        <pt x="1200" y="505" on="1"/>
        <pt x="1200" y="131" on="1"/>
        <pt x="1200" y="118" on="0"/>
        <pt x="1219" y="118" on="1"/>
        <pt x="1236" y="118" on="0"/>
        <pt x="1266" y="128" on="0"/>
        <pt x="1295" y="139" on="0"/>
        <pt x="1324" y="149" on="0"/>
        <pt x="1340" y="149" on="1"/>
        <pt x="1348" y="149" on="0"/>
        <pt x="1361" y="144" on="0"/>
        <pt x="1361" y="135" on="1"/>
        <pt x="1361" y="126" on="0"/>
        <pt x="1345" y="110" on="0"/>
        <pt x="1324" y="98" on="0"/>
        <pt x="1304" y="90" on="0"/>
        <pt x="1300" y="88" on="1"/>
        <pt x="1198" y="32" on="0"/>
        <pt x="971" y="-22" on="0"/>
        <pt x="854" y="-22" on="1"/>
        <pt x="779" y="-22" on="0"/>
        <pt x="622" y="2" on="0"/>
        <pt x="473" y="54" on="0"/>
        <pt x="338" y="136" on="0"/>
        <pt x="286" y="194" on="1"/>
        <pt x="241" y="245" on="0"/>
        <pt x="169" y="365" on="0"/>
        <pt x="117" y="493" on="0"/>
        <pt x="89" y="625" on="0"/>
      </contour>
    </TTGlyph>
    <TTGlyph name="Gbreve" xMin="89" yMin="-22" xMax="1380" yMax="1868">
      <component glyphName="G" x="0" y="0" flags="0x204"/>
      <component glyphName="Breve" x="440" y="0" flags="0x4"/>
    </TTGlyph>
    <TTGlyph name="Gcommaaccent" xMin="89" yMin="-523" xMax="1380" yMax="1458">
      <component glyphName="G" x="0" y="0" flags="0x204"/>
      <component glyphName="commaaccent" x="806" y="0" flags="0x4"/>
    </TTGlyph>
    <TTGlyph name="Grave" xMin="194" yMin="1499" xMax="619" yMax="1868">
      <contour>
        <pt x="196" y="1785" on="1"/>
        <pt x="195" y="1790" on="0"/>
        <pt x="194" y="1801" on="0"/>
        <pt x="194" y="1806" on="1"/>
        <pt x="194" y="1830" on="0"/>
        <pt x="219" y="1861" on="0"/>
        <pt x="250" y="1866" on="1"/>
        <pt x="256" y="1867" on="0"/>
        <pt x="268" y="1868" on="0"/>
        <pt x="274" y="1868" on="1"/>
        <pt x="297" y="1868" on="0"/>
        <pt x="340" y="1851" on="0"/>
        <pt x="354" y="1833" on="1"/>
        <pt x="448" y="1720" on="0"/>
        <pt x="585" y="1577" on="0"/>
        <pt x="615" y="1536" on="1"/>
        <pt x="617" y="1532" on="0"/>
        <pt x="617" y="1527" on="1"/>
        <pt x="619" y="1516" on="0"/>
        <pt x="597" y="1502" on="0"/>
        <pt x="589" y="1501" on="1"/>
        <pt x="583" y="1500" on="1"/>
        <pt x="582" y="1499" on="0"/>
        <pt x="581" y="1499" on="1"/>
        <pt x="580" y="1499" on="0"/>
        <pt x="578" y="1501" on="1"/>
        <pt x="546" y="1522" on="0"/>
        <pt x="464" y="1573" on="0"/>
        <pt x="380" y="1626" on="0"/>
        <pt x="302" y="1676" on="0"/>
        <pt x="274" y="1695" on="1"/>
        <pt x="244" y="1715" on="0"/>
        <pt x="199" y="1765" on="0"/>
      </contour>
    </TTGlyph>
    <TTGlyph name="H" xMin="77" yMin="-7" xMax="1565" yMax="1446">
      <contour>
        <pt x="77" y="19" on="1"/>
        <pt x="77" y="49" on="0"/>
        <pt x="115" y="52" on="1"/>
        <pt x="255" y="64" on="1"/>
        <pt x="262" y="66" on="0"/>
        <pt x="281" y="79" on="0"/>
        <pt x="281" y="90" on="1"/>
        <pt x="281" y="1318" on="1"/>
        <pt x="281" y="1348" on="0"/>
        <pt x="269" y="1369" on="0"/>
        <pt x="255" y="1374" on="1"/>
        <pt x="236" y="1379" on="0"/>
        <pt x="191" y="1386" on="0"/>
        <pt x="149" y="1392" on="0"/>
        <pt x="115" y="1397" on="0"/>
        <pt x="108" y="1401" on="1"/>
        <pt x="103" y="1403" on="0"/>
        <pt x="100" y="1416" on="0"/>
        <pt x="100" y="1420" on="1"/>
        <pt x="100" y="1428" on="0"/>
        <pt x="113" y="1436" on="0"/>
        <pt x="131" y="1440" on="0"/>
        <pt x="151" y="1441" on="0"/>
        <pt x="159" y="1441" on="1"/>
        <pt x="210" y="1441" on="1"/>
        <pt x="235" y="1441" on="0"/>
        <pt x="272" y="1439" on="0"/>
        <pt x="305" y="1436" on="0"/>
        <pt x="335" y="1434" on="0"/>
        <pt x="352" y="1434" on="1"/>
        <pt x="393" y="1434" on="0"/>
        <pt x="467" y="1438" on="0"/>
        <pt x="543" y="1442" on="0"/>
        <pt x="625" y="1446" on="0"/>
        <pt x="674" y="1446" on="1"/>
        <pt x="678" y="1446" on="0"/>
        <pt x="693" y="1443" on="0"/>
        <pt x="707" y="1437" on="0"/>
        <pt x="717" y="1428" on="0"/>
        <pt x="717" y="1422" on="1"/>
        <pt x="717" y="1411" on="0"/>
        <pt x="700" y="1402" on="0"/>
        <pt x="693" y="1398" on="1"/>
        <pt x="685" y="1398" on="0"/>
        <pt x="646" y="1396" on="0"/>
        <pt x="602" y="1392" on="0"/>
        <pt x="563" y="1387" on="0"/>
        <pt x="556" y="1384" on="1"/>
        <pt x="548" y="1384" on="0"/>
        <pt x="526" y="1379" on="0"/>
        <pt x="504" y="1368" on="0"/>
        <pt x="489" y="1349" on="0"/>
        <pt x="489" y="1336" on="1"/>
        <pt x="489" y="794" on="1"/>
        <pt x="489" y="770" on="0"/>
        <pt x="513" y="770" on="1"/>
        <pt x="1095" y="770" on="1"/>
        <pt x="1104" y="770" on="0"/>
        <pt x="1119" y="781" on="0"/>
        <pt x="1119" y="792" on="1"/>
        <pt x="1119" y="1315" on="1"/>
        <pt x="1119" y="1340" on="0"/>
        <pt x="1096" y="1370" on="0"/>
        <pt x="1061" y="1386" on="0"/>
        <pt x="1020" y="1391" on="0"/>
        <pt x="1001" y="1391" on="1"/>
        <pt x="911" y="1391" on="1"/>
        <pt x="898" y="1391" on="0"/>
        <pt x="875" y="1410" on="0"/>
        <pt x="875" y="1422" on="1"/>
        <pt x="875" y="1435" on="0"/>
        <pt x="897" y="1446" on="0"/>
        <pt x="913" y="1446" on="1"/>
        <pt x="972" y="1446" on="1"/>
        <pt x="1019" y="1446" on="0"/>
        <pt x="1087" y="1444" on="0"/>
        <pt x="1145" y="1441" on="0"/>
        <pt x="1200" y="1439" on="0"/>
        <pt x="1235" y="1439" on="1"/>
        <pt x="1263" y="1439" on="0"/>
        <pt x="1308" y="1441" on="0"/>
        <pt x="1358" y="1444" on="0"/>
        <pt x="1420" y="1446" on="0"/>
        <pt x="1465" y="1446" on="1"/>
        <pt x="1537" y="1446" on="1"/>
        <pt x="1553" y="1446" on="0"/>
        <pt x="1565" y="1432" on="0"/>
        <pt x="1565" y="1427" on="1"/>
        <pt x="1565" y="1418" on="0"/>
        <pt x="1541" y="1404" on="0"/>
        <pt x="1520" y="1400" on="1"/>
        <pt x="1491" y="1394" on="0"/>
        <pt x="1426" y="1390" on="0"/>
        <pt x="1369" y="1377" on="0"/>
        <pt x="1332" y="1347" on="0"/>
        <pt x="1332" y="1315" on="1"/>
        <pt x="1332" y="170" on="1"/>
        <pt x="1332" y="131" on="0"/>
        <pt x="1358" y="92" on="0"/>
        <pt x="1403" y="74" on="0"/>
        <pt x="1463" y="69" on="0"/>
        <pt x="1498" y="64" on="1"/>
        <pt x="1521" y="59" on="0"/>
        <pt x="1551" y="45" on="0"/>
        <pt x="1551" y="24" on="1"/>
        <pt x="1551" y="7" on="0"/>
        <pt x="1528" y="-7" on="0"/>
        <pt x="1510" y="-7" on="1"/>
        <pt x="1454" y="-7" on="1"/>
        <pt x="1437" y="-7" on="0"/>
        <pt x="1380" y="-5" on="0"/>
        <pt x="1320" y="-2" on="0"/>
        <pt x="1269" y="0" on="0"/>
        <pt x="1259" y="0" on="1"/>
        <pt x="1208" y="0" on="0"/>
        <pt x="1141" y="-2" on="0"/>
        <pt x="1077" y="-5" on="0"/>
        <pt x="1000" y="-7" on="0"/>
        <pt x="939" y="-7" on="1"/>
        <pt x="922" y="-7" on="0"/>
        <pt x="899" y="6" on="0"/>
        <pt x="899" y="24" on="1"/>
        <pt x="899" y="31" on="0"/>
        <pt x="910" y="52" on="0"/>
        <pt x="922" y="54" on="1"/>
        <pt x="1060" y="71" on="1"/>
        <pt x="1081" y="74" on="0"/>
        <pt x="1104" y="93" on="0"/>
        <pt x="1116" y="124" on="0"/>
        <pt x="1119" y="164" on="0"/>
        <pt x="1119" y="187" on="1"/>
        <pt x="1119" y="664" on="1"/>
        <pt x="1119" y="678" on="0"/>
        <pt x="1100" y="702" on="0"/>
        <pt x="1084" y="702" on="1"/>
        <pt x="513" y="702" on="1"/>
        <pt x="502" y="702" on="0"/>
        <pt x="489" y="694" on="0"/>
        <pt x="489" y="683" on="1"/>
        <pt x="489" y="147" on="1"/>
        <pt x="489" y="111" on="0"/>
        <pt x="534" y="75" on="0"/>
        <pt x="598" y="59" on="0"/>
        <pt x="668" y="56" on="0"/>
        <pt x="693" y="52" on="1"/>
        <pt x="705" y="48" on="0"/>
        <pt x="710" y="30" on="0"/>
        <pt x="710" y="21" on="1"/>
        <pt x="710" y="0" on="0"/>
        <pt x="683" y="-7" on="0"/>
        <pt x="669" y="-7" on="1"/>
        <pt x="628" y="-7" on="0"/>
        <pt x="571" y="-5" on="0"/>
        <pt x="511" y="-4" on="0"/>
        <pt x="433" y="-2" on="0"/>
        <pt x="371" y="-2" on="1"/>
        <pt x="347" y="-2" on="0"/>
        <pt x="303" y="-4" on="0"/>
        <pt x="258" y="-5" on="0"/>
        <pt x="211" y="-7" on="0"/>
        <pt x="183" y="-7" on="1"/>
        <pt x="110" y="-7" on="1"/>
        <pt x="94" y="-3" on="0"/>
        <pt x="77" y="3" on="0"/>
      </contour>
    </TTGlyph>
    <TTGlyph name="Hungarumlaut" xMin="138" yMin="1500" xMax="820" yMax="1867">
      <contour>
        <pt x="563" y="1784" on="1"/>
        <pt x="559" y="1764" on="0"/>
        <pt x="518" y="1716" on="0"/>
        <pt x="483" y="1696" on="1"/>
        <pt x="444" y="1674" on="0"/>
        <pt x="363" y="1624" on="0"/>
        <pt x="286" y="1573" on="0"/>
        <pt x="216" y="1525" on="0"/>
        <pt x="186" y="1505" on="1"/>
        <pt x="176" y="1500" on="0"/>
        <pt x="172" y="1500" on="1"/>
        <pt x="171" y="1500" on="0"/>
        <pt x="170" y="1501" on="0"/>
        <pt x="169" y="1501" on="1"/>
        <pt x="161" y="1503" on="0"/>
        <pt x="138" y="1516" on="0"/>
        <pt x="140" y="1527" on="1"/>
        <pt x="140" y="1529" on="0"/>
        <pt x="142" y="1535" on="0"/>
        <pt x="144" y="1538" on="1"/>
        <pt x="172" y="1577" on="0"/>
        <pt x="302" y="1719" on="0"/>
        <pt x="405" y="1833" on="1"/>
        <pt x="419" y="1850" on="0"/>
        <pt x="463" y="1867" on="0"/>
        <pt x="487" y="1867" on="1"/>
        <pt x="492" y="1867" on="0"/>
        <pt x="503" y="1866" on="0"/>
        <pt x="509" y="1865" on="1"/>
        <pt x="540" y="1860" on="0"/>
        <pt x="565" y="1829" on="0"/>
        <pt x="565" y="1805" on="1"/>
        <pt x="565" y="1800" on="0"/>
        <pt x="564" y="1789" on="0"/>
      </contour>
      <contour>
        <pt x="818" y="1784" on="1"/>
        <pt x="814" y="1764" on="0"/>
        <pt x="773" y="1716" on="0"/>
        <pt x="738" y="1696" on="1"/>
        <pt x="699" y="1674" on="0"/>
        <pt x="618" y="1624" on="0"/>
        <pt x="541" y="1573" on="0"/>
        <pt x="471" y="1525" on="0"/>
        <pt x="441" y="1505" on="1"/>
        <pt x="431" y="1500" on="0"/>
        <pt x="427" y="1500" on="1"/>
        <pt x="426" y="1500" on="0"/>
        <pt x="425" y="1501" on="0"/>
        <pt x="424" y="1501" on="1"/>
        <pt x="416" y="1503" on="0"/>
        <pt x="393" y="1516" on="0"/>
        <pt x="395" y="1527" on="1"/>
        <pt x="395" y="1529" on="0"/>
        <pt x="397" y="1535" on="0"/>
        <pt x="399" y="1538" on="1"/>
        <pt x="427" y="1577" on="0"/>
        <pt x="557" y="1719" on="0"/>
        <pt x="660" y="1833" on="1"/>
        <pt x="674" y="1850" on="0"/>
        <pt x="718" y="1867" on="0"/>
        <pt x="742" y="1867" on="1"/>
        <pt x="747" y="1867" on="0"/>
        <pt x="758" y="1866" on="0"/>
        <pt x="764" y="1865" on="1"/>
        <pt x="795" y="1860" on="0"/>
        <pt x="820" y="1829" on="0"/>
        <pt x="820" y="1805" on="1"/>
        <pt x="820" y="1800" on="0"/>
        <pt x="819" y="1789" on="0"/>
      </contour>
    </TTGlyph>
    <TTGlyph name="I" xMin="67" yMin="-5" xMax="750" yMax="1438">
      <contour>
        <pt x="283" y="145" on="1"/>
        <pt x="283" y="1272" on="1"/>
        <pt x="283" y="1314" on="0"/>
        <pt x="253" y="1357" on="0"/>
        <pt x="208" y="1376" on="0"/>
        <pt x="156" y="1378" on="0"/>
        <pt x="111" y="1381" on="0"/>
        <pt x="81" y="1393" on="0"/>
        <pt x="81" y="1412" on="1"/>
        <pt x="81" y="1425" on="0"/>
        <pt x="106" y="1432" on="0"/>
        <pt x="117" y="1432" on="1"/>
        <pt x="173" y="1432" on="1"/>
        <pt x="198" y="1432" on="0"/>
        <pt x="239" y="1429" on="0"/>
        <pt x="276" y="1425" on="0"/>
        <pt x="315" y="1422" on="0"/>
        <pt x="339" y="1422" on="1"/>
        <pt x="388" y="1422" on="0"/>
        <pt x="462" y="1427" on="0"/>
        <pt x="530" y="1433" on="0"/>
        <pt x="598" y="1438" on="0"/>
        <pt x="640" y="1438" on="1"/>
        <pt x="707" y="1438" on="1"/>
        <pt x="721" y="1438" on="0"/>
        <pt x="739" y="1427" on="0"/>
        <pt x="744" y="1426" on="1"/>
        <pt x="748" y="1415" on="0"/>
        <pt x="750" y="1413" on="0"/>
        <pt x="750" y="1405" on="1"/>
        <pt x="750" y="1394" on="0"/>
        <pt x="715" y="1380" on="0"/>
        <pt x="670" y="1371" on="0"/>
        <pt x="624" y="1366" on="0"/>
        <pt x="614" y="1363" on="1"/>
        <pt x="598" y="1360" on="0"/>
        <pt x="562" y="1355" on="0"/>
        <pt x="532" y="1344" on="0"/>
        <pt x="512" y="1323" on="0"/>
        <pt x="512" y="1304" on="1"/>
        <pt x="512" y="116" on="1"/>
        <pt x="512" y="95" on="0"/>
        <pt x="543" y="72" on="0"/>
        <pt x="589" y="61" on="0"/>
        <pt x="644" y="57" on="0"/>
        <pt x="690" y="51" on="0"/>
        <pt x="721" y="38" on="0"/>
        <pt x="721" y="24" on="1"/>
        <pt x="721" y="13" on="0"/>
        <pt x="709" y="7" on="0"/>
        <pt x="704" y="5" on="1"/>
        <pt x="690" y="1" on="0"/>
        <pt x="650" y="-5" on="0"/>
        <pt x="635" y="-5" on="1"/>
        <pt x="599" y="-5" on="0"/>
        <pt x="539" y="-1" on="0"/>
        <pt x="483" y="3" on="0"/>
        <pt x="427" y="7" on="0"/>
        <pt x="394" y="7" on="1"/>
        <pt x="378" y="7" on="0"/>
        <pt x="321" y="5" on="0"/>
        <pt x="256" y="2" on="0"/>
        <pt x="192" y="0" on="0"/>
        <pt x="169" y="0" on="1"/>
        <pt x="90" y="0" on="1"/>
        <pt x="85" y="0" on="0"/>
        <pt x="67" y="10" on="0"/>
        <pt x="67" y="21" on="1"/>
        <pt x="67" y="41" on="0"/>
        <pt x="84" y="45" on="1"/>
        <pt x="106" y="51" on="0"/>
        <pt x="141" y="58" on="0"/>
        <pt x="179" y="65" on="0"/>
        <pt x="225" y="73" on="0"/>
        <pt x="259" y="80" on="1"/>
        <pt x="276" y="85" on="0"/>
        <pt x="283" y="119" on="0"/>
      </contour>
    </TTGlyph>
    <TTGlyph name="Iacute" xMin="67" yMin="-5" xMax="822" yMax="1867">
      <component glyphName="I" x="0" y="0" flags="0x204"/>
      <component glyphName="Acute" x="-135" y="0" flags="0x4"/>
    </TTGlyph>
    <TTGlyph name="Icircumflex" xMin="67" yMin="-5" xMax="750" yMax="1867">
      <component glyphName="I" x="0" y="0" flags="0x204"/>
      <component glyphName="Circumflex" x="-85" y="0" flags="0x4"/>
    </TTGlyph>
    <TTGlyph name="Idieresis" xMin="67" yMin="-5" xMax="750" yMax="1828">
      <component glyphName="I" x="0" y="0" flags="0x204"/>
      <component glyphName="Dieresis" x="-142" y="0" flags="0x4"/>
    </TTGlyph>
    <TTGlyph name="Idotaccent" xMin="67" yMin="-5" xMax="750" yMax="1834">
      <component glyphName="I" x="0" y="0" flags="0x204"/>
      <component glyphName="Dotaccent" x="-134" y="0" flags="0x4"/>
    </TTGlyph>
    <TTGlyph name="Igrave" xMin="22" yMin="-5" xMax="750" yMax="1868">
      <component glyphName="I" x="0" y="0" flags="0x204"/>
      <component glyphName="Grave" x="-172" y="0" flags="0x4"/>
    </TTGlyph>
    <TTGlyph name="Imacron" xMin="67" yMin="-5" xMax="750" yMax="1734">
      <component glyphName="I" x="0" y="0" flags="0x204"/>
      <component glyphName="Macron" x="-31" y="0" flags="0x4"/>
    </TTGlyph>
    <TTGlyph name="Iogonek" xMin="67" yMin="-523" xMax="750" yMax="1438">
      <contour>
        <pt x="632" y="-435" on="1"/>
        <pt x="632" y="-446" on="0"/>
        <pt x="610" y="-477" on="0"/>
        <pt x="573" y="-504" on="0"/>
        <pt x="522" y="-523" on="0"/>
        <pt x="493" y="-523" on="1"/>
        <pt x="470" y="-523" on="0"/>
        <pt x="411" y="-519" on="0"/>
        <pt x="349" y="-506" on="0"/>
        <pt x="289" y="-480" on="0"/>
        <pt x="241" y="-437" on="0"/>
        <pt x="212" y="-373" on="0"/>
        <pt x="212" y="-328" on="1"/>
        <pt x="212" y="-267" on="0"/>
        <pt x="257" y="-169" on="0"/>
        <pt x="322" y="-90" on="0"/>
        <pt x="397" y="-31" on="0"/>
        <pt x="427" y="-9" on="1"/>
        <pt x="433" y="-5" on="0"/>
        <pt x="442" y="3" on="0"/>
        <pt x="447" y="6" on="1"/>
        <pt x="434" y="7" on="0"/>
        <pt x="408" y="7" on="0"/>
        <pt x="394" y="7" on="1"/>
        <pt x="378" y="7" on="0"/>
        <pt x="321" y="5" on="0"/>
        <pt x="256" y="2" on="0"/>
        <pt x="192" y="0" on="0"/>
        <pt x="169" y="0" on="1"/>
        <pt x="90" y="0" on="1"/>
        <pt x="85" y="0" on="0"/>
        <pt x="67" y="10" on="0"/>
        <pt x="67" y="21" on="1"/>
        <pt x="67" y="41" on="0"/>
        <pt x="84" y="45" on="1"/>
        <pt x="106" y="51" on="0"/>
        <pt x="141" y="58" on="0"/>
        <pt x="179" y="65" on="0"/>
        <pt x="225" y="73" on="0"/>
        <pt x="259" y="80" on="1"/>
        <pt x="276" y="85" on="0"/>
        <pt x="283" y="119" on="0"/>
        <pt x="283" y="145" on="1"/>
        <pt x="283" y="1272" on="1"/>
        <pt x="283" y="1314" on="0"/>
        <pt x="253" y="1357" on="0"/>
        <pt x="208" y="1376" on="0"/>
        <pt x="156" y="1378" on="0"/>
        <pt x="111" y="1381" on="0"/>
        <pt x="81" y="1393" on="0"/>
        <pt x="81" y="1412" on="1"/>
        <pt x="81" y="1425" on="0"/>
        <pt x="106" y="1432" on="0"/>
        <pt x="117" y="1432" on="1"/>
        <pt x="173" y="1432" on="1"/>
        <pt x="198" y="1432" on="0"/>
        <pt x="239" y="1429" on="0"/>
        <pt x="276" y="1425" on="0"/>
        <pt x="315" y="1422" on="0"/>
        <pt x="339" y="1422" on="1"/>
        <pt x="388" y="1422" on="0"/>
        <pt x="462" y="1427" on="0"/>
        <pt x="530" y="1433" on="0"/>
        <pt x="598" y="1438" on="0"/>
        <pt x="640" y="1438" on="1"/>
        <pt x="707" y="1438" on="1"/>
        <pt x="721" y="1438" on="0"/>
        <pt x="739" y="1427" on="0"/>
        <pt x="744" y="1426" on="1"/>
        <pt x="748" y="1415" on="0"/>
        <pt x="750" y="1413" on="0"/>
        <pt x="750" y="1405" on="1"/>
        <pt x="750" y="1394" on="0"/>
        <pt x="715" y="1380" on="0"/>
        <pt x="670" y="1371" on="0"/>
        <pt x="624" y="1366" on="0"/>
        <pt x="614" y="1363" on="1"/>
        <pt x="598" y="1360" on="0"/>
        <pt x="562" y="1355" on="0"/>
        <pt x="532" y="1344" on="0"/>
        <pt x="512" y="1323" on="0"/>
        <pt x="512" y="1304" on="1"/>
        <pt x="512" y="116" on="1"/>
        <pt x="512" y="95" on="0"/>
        <pt x="543" y="72" on="0"/>
        <pt x="589" y="61" on="0"/>
        <pt x="644" y="57" on="0"/>
        <pt x="690" y="51" on="0"/>
        <pt x="721" y="38" on="0"/>
        <pt x="721" y="24" on="1"/>
        <pt x="721" y="13" on="0"/>
        <pt x="709" y="7" on="0"/>
        <pt x="704" y="5" on="1"/>
        <pt x="690" y="1" on="0"/>
        <pt x="650" y="-5" on="0"/>
        <pt x="635" y="-5" on="1"/>
        <pt x="604" y="-5" on="0"/>
        <pt x="553" y="-2" on="0"/>
        <pt x="529" y="0" on="1"/>
        <pt x="494" y="-33" on="0"/>
        <pt x="438" y="-94" on="0"/>
        <pt x="399" y="-159" on="0"/>
        <pt x="378" y="-233" on="0"/>
        <pt x="378" y="-279" on="1"/>
        <pt x="378" y="-310" on="0"/>
        <pt x="394" y="-366" on="0"/>
        <pt x="427" y="-408" on="0"/>
        <pt x="477" y="-433" on="0"/>
        <pt x="510" y="-433" on="1"/>
        <pt x="531" y="-433" on="0"/>
        <pt x="563" y="-424" on="0"/>
        <pt x="587" y="-412" on="0"/>
        <pt x="605" y="-403" on="0"/>
        <pt x="611" y="-403" on="1"/>
        <pt x="624" y="-403" on="0"/>
        <pt x="632" y="-424" on="0"/>
      </contour>
    </TTGlyph>
    <TTGlyph name="J" xMin="-130" yMin="-424" xMax="701" yMax="1434">
      <contour>
        <pt x="-130" y="-298" on="1"/>
        <pt x="-130" y="-280" on="0"/>
        <pt x="-119" y="-248" on="0"/>
        <pt x="-98" y="-223" on="0"/>
        <pt x="-67" y="-208" on="0"/>
        <pt x="-48" y="-208" on="1"/>
        <pt x="-22" y="-208" on="0"/>
        <pt x="10" y="-231" on="0"/>
        <pt x="30" y="-265" on="0"/>
        <pt x="46" y="-306" on="0"/>
        <pt x="66" y="-340" on="0"/>
        <pt x="97" y="-363" on="0"/>
        <pt x="123" y="-363" on="1"/>
        <pt x="162" y="-363" on="0"/>
        <pt x="214" y="-334" on="0"/>
        <pt x="230" y="-306" on="1"/>
        <pt x="250" y="-272" on="0"/>
        <pt x="272" y="-184" on="0"/>
        <pt x="282" y="-88" on="0"/>
        <pt x="284" y="7" on="0"/>
        <pt x="284" y="48" on="1"/>
        <pt x="284" y="1299" on="1"/>
        <pt x="284" y="1318" on="0"/>
        <pt x="265" y="1343" on="0"/>
        <pt x="236" y="1359" on="0"/>
        <pt x="201" y="1368" on="0"/>
        <pt x="185" y="1372" on="1"/>
        <pt x="163" y="1377" on="0"/>
        <pt x="100" y="1380" on="0"/>
        <pt x="66" y="1391" on="1"/>
        <pt x="54" y="1394" on="0"/>
        <pt x="54" y="1412" on="1"/>
        <pt x="54" y="1434" on="0"/>
        <pt x="80" y="1434" on="1"/>
        <pt x="168" y="1434" on="0"/>
        <pt x="325" y="1426" on="0"/>
        <pt x="389" y="1426" on="1"/>
        <pt x="437" y="1426" on="0"/>
        <pt x="503" y="1428" on="0"/>
        <pt x="562" y="1431" on="0"/>
        <pt x="626" y="1434" on="0"/>
        <pt x="671" y="1434" on="1"/>
        <pt x="682" y="1434" on="0"/>
        <pt x="701" y="1429" on="0"/>
        <pt x="701" y="1420" on="1"/>
        <pt x="701" y="1397" on="0"/>
        <pt x="673" y="1387" on="1"/>
        <pt x="630" y="1378" on="0"/>
        <pt x="562" y="1371" on="0"/>
        <pt x="515" y="1348" on="0"/>
        <pt x="490" y="1296" on="0"/>
        <pt x="490" y="1242" on="1"/>
        <pt x="490" y="163" on="1"/>
        <pt x="490" y="-22" on="0"/>
        <pt x="401" y="-194" on="1"/>
        <pt x="376" y="-245" on="0"/>
        <pt x="303" y="-329" on="0"/>
        <pt x="213" y="-390" on="0"/>
        <pt x="109" y="-424" on="0"/>
        <pt x="54" y="-424" on="1"/>
        <pt x="26" y="-424" on="0"/>
        <pt x="-39" y="-411" on="0"/>
        <pt x="-94" y="-382" on="0"/>
        <pt x="-130" y="-334" on="0"/>
      </contour>
    </TTGlyph>
    <TTGlyph name="K" xMin="59" yMin="-19" xMax="1566" yMax="1446">
      <contour>
        <pt x="284" y="99" on="1"/>
        <pt x="284" y="1220" on="1"/>
        <pt x="284" y="1252" on="0"/>
        <pt x="277" y="1317" on="0"/>
        <pt x="270" y="1344" on="1"/>
        <pt x="264" y="1362" on="0"/>
        <pt x="228" y="1380" on="0"/>
        <pt x="181" y="1388" on="0"/>
        <pt x="130" y="1390" on="0"/>
        <pt x="87" y="1396" on="0"/>
        <pt x="59" y="1409" on="0"/>
        <pt x="59" y="1424" on="1"/>
        <pt x="59" y="1430" on="0"/>
        <pt x="68" y="1446" on="0"/>
        <pt x="80" y="1446" on="1"/>
        <pt x="116" y="1446" on="1"/>
        <pt x="161" y="1446" on="0"/>
        <pt x="225" y="1443" on="0"/>
        <pt x="281" y="1440" on="0"/>
        <pt x="337" y="1438" on="0"/>
        <pt x="374" y="1438" on="1"/>
        <pt x="400" y="1438" on="0"/>
        <pt x="448" y="1440" on="0"/>
        <pt x="497" y="1441" on="0"/>
        <pt x="549" y="1443" on="0"/>
        <pt x="580" y="1443" on="1"/>
        <pt x="645" y="1443" on="1"/>
        <pt x="656" y="1443" on="0"/>
        <pt x="673" y="1439" on="0"/>
        <pt x="673" y="1426" on="1"/>
        <pt x="673" y="1410" on="0"/>
        <pt x="645" y="1396" on="0"/>
        <pt x="604" y="1391" on="0"/>
        <pt x="555" y="1388" on="0"/>
        <pt x="514" y="1379" on="0"/>
        <pt x="486" y="1358" on="0"/>
        <pt x="486" y="1337" on="1"/>
        <pt x="486" y="730" on="1"/>
        <pt x="494" y="730" on="0"/>
        <pt x="516" y="741" on="0"/>
        <pt x="538" y="759" on="0"/>
        <pt x="559" y="781" on="0"/>
        <pt x="567" y="792" on="1"/>
        <pt x="581" y="812" on="0"/>
        <pt x="603" y="845" on="0"/>
        <pt x="624" y="874" on="0"/>
        <pt x="643" y="901" on="0"/>
        <pt x="654" y="915" on="1"/>
        <pt x="715" y="996" on="0"/>
        <pt x="836" y="1144" on="0"/>
        <pt x="901" y="1221" on="1"/>
        <pt x="921" y="1247" on="0"/>
        <pt x="946" y="1300" on="0"/>
        <pt x="946" y="1329" on="1"/>
        <pt x="946" y="1344" on="0"/>
        <pt x="918" y="1377" on="0"/>
        <pt x="900" y="1382" on="1"/>
        <pt x="888" y="1386" on="0"/>
        <pt x="855" y="1391" on="0"/>
        <pt x="819" y="1395" on="0"/>
        <pt x="784" y="1400" on="0"/>
        <pt x="770" y="1405" on="1"/>
        <pt x="762" y="1407" on="0"/>
        <pt x="754" y="1419" on="0"/>
        <pt x="754" y="1427" on="1"/>
        <pt x="754" y="1431" on="0"/>
        <pt x="757" y="1435" on="0"/>
        <pt x="759" y="1438" on="1"/>
        <pt x="762" y="1440" on="0"/>
        <pt x="775" y="1442" on="0"/>
        <pt x="789" y="1443" on="0"/>
        <pt x="801" y="1443" on="0"/>
        <pt x="803" y="1443" on="1"/>
        <pt x="840" y="1443" on="0"/>
        <pt x="899" y="1440" on="0"/>
        <pt x="953" y="1435" on="0"/>
        <pt x="1003" y="1432" on="0"/>
        <pt x="1031" y="1432" on="1"/>
        <pt x="1079" y="1432" on="0"/>
        <pt x="1175" y="1443" on="0"/>
        <pt x="1208" y="1443" on="1"/>
        <pt x="1280" y="1443" on="1"/>
        <pt x="1305" y="1443" on="0"/>
        <pt x="1318" y="1434" on="1"/>
        <pt x="1327" y="1429" on="0"/>
        <pt x="1327" y="1424" on="1"/>
        <pt x="1327" y="1421" on="0"/>
        <pt x="1323" y="1419" on="1"/>
        <pt x="1283" y="1403" on="0"/>
        <pt x="1198" y="1379" on="0"/>
        <pt x="1157" y="1362" on="1"/>
        <pt x="1145" y="1357" on="0"/>
        <pt x="1118" y="1341" on="0"/>
        <pt x="1090" y="1322" on="0"/>
        <pt x="1066" y="1303" on="0"/>
        <pt x="1057" y="1294" on="1"/>
        <pt x="1023" y="1261" on="0"/>
        <pt x="979" y="1219" on="0"/>
        <pt x="948" y="1187" on="0"/>
        <pt x="923" y="1161" on="0"/>
        <pt x="908" y="1145" on="1"/>
        <pt x="884" y="1118" on="0"/>
        <pt x="839" y="1067" on="0"/>
        <pt x="792" y="1013" on="0"/>
        <pt x="742" y="954" on="0"/>
        <pt x="713" y="920" on="1"/>
        <pt x="699" y="906" on="0"/>
        <pt x="676" y="881" on="0"/>
        <pt x="676" y="865" on="1"/>
        <pt x="676" y="861" on="0"/>
        <pt x="697" y="832" on="0"/>
        <pt x="729" y="791" on="0"/>
        <pt x="768" y="744" on="0"/>
        <pt x="804" y="700" on="0"/>
        <pt x="833" y="664" on="0"/>
        <pt x="839" y="656" on="1"/>
        <pt x="894" y="596" on="0"/>
        <pt x="992" y="473" on="0"/>
        <pt x="1047" y="407" on="1"/>
        <pt x="1063" y="388" on="0"/>
        <pt x="1117" y="326" on="0"/>
        <pt x="1181" y="253" on="0"/>
        <pt x="1252" y="179" on="0"/>
        <pt x="1319" y="114" on="0"/>
        <pt x="1378" y="68" on="0"/>
        <pt x="1398" y="61" on="1"/>
        <pt x="1408" y="56" on="0"/>
        <pt x="1463" y="43" on="0"/>
        <pt x="1521" y="27" on="0"/>
        <pt x="1566" y="10" on="0"/>
        <pt x="1566" y="2" on="1"/>
        <pt x="1566" y="-5" on="0"/>
        <pt x="1554" y="-13" on="0"/>
        <pt x="1537" y="-18" on="0"/>
        <pt x="1516" y="-19" on="0"/>
        <pt x="1507" y="-19" on="1"/>
        <pt x="1484" y="-19" on="1"/>
        <pt x="1464" y="-19" on="0"/>
        <pt x="1429" y="-15" on="0"/>
        <pt x="1393" y="-9" on="0"/>
        <pt x="1350" y="-5" on="0"/>
        <pt x="1323" y="-5" on="1"/>
        <pt x="1131" y="-5" on="1"/>
        <pt x="1122" y="-5" on="0"/>
        <pt x="1112" y="3" on="1"/>
        <pt x="1072" y="54" on="0"/>
        <pt x="990" y="149" on="0"/>
        <pt x="904" y="246" on="0"/>
        <pt x="816" y="347" on="0"/>
        <pt x="770" y="403" on="1"/>
        <pt x="717" y="469" on="0"/>
        <pt x="647" y="557" on="0"/>
        <pt x="590" y="623" on="0"/>
        <pt x="536" y="677" on="0"/>
        <pt x="500" y="708" on="1"/>
        <pt x="498" y="709" on="0"/>
        <pt x="494" y="711" on="0"/>
        <pt x="490" y="711" on="1"/>
        <pt x="486" y="711" on="0"/>
        <pt x="486" y="704" on="1"/>
        <pt x="486" y="125" on="1"/>
        <pt x="486" y="98" on="0"/>
        <pt x="529" y="64" on="0"/>
        <pt x="588" y="45" on="0"/>
        <pt x="647" y="38" on="0"/>
        <pt x="663" y="38" on="1"/>
        <pt x="678" y="38" on="0"/>
        <pt x="692" y="26" on="0"/>
        <pt x="692" y="17" on="1"/>
        <pt x="692" y="0" on="0"/>
        <pt x="664" y="-7" on="0"/>
        <pt x="644" y="-7" on="1"/>
        <pt x="599" y="-7" on="0"/>
        <pt x="531" y="-4" on="0"/>
        <pt x="474" y="0" on="0"/>
        <pt x="419" y="3" on="0"/>
        <pt x="388" y="3" on="1"/>
        <pt x="352" y="3" on="0"/>
        <pt x="274" y="2" on="0"/>
        <pt x="200" y="1" on="0"/>
        <pt x="133" y="0" on="0"/>
        <pt x="107" y="0" on="1"/>
        <pt x="78" y="0" on="0"/>
        <pt x="78" y="22" on="1"/>
        <pt x="78" y="29" on="0"/>
        <pt x="81" y="47" on="0"/>
        <pt x="90" y="48" on="1"/>
        <pt x="106" y="50" on="0"/>
        <pt x="144" y="52" on="0"/>
        <pt x="161" y="52" on="1"/>
        <pt x="183" y="52" on="1"/>
        <pt x="204" y="52" on="0"/>
        <pt x="251" y="57" on="0"/>
        <pt x="265" y="64" on="1"/>
        <pt x="284" y="75" on="0"/>
      </contour>
    </TTGlyph>
    <TTGlyph name="Kcommaaccent" xMin="59" yMin="-523" xMax="1566" yMax="1446">
      <component glyphName="K" x="0" y="0" flags="0x204"/>
      <component glyphName="commaaccent" x="767" y="0" flags="0x4"/>
    </TTGlyph>
    <TTGlyph name="L" xMin="62" yMin="-19" xMax="1221" yMax="1465">
      <contour>
        <pt x="282" y="83" on="1"/>
        <pt x="282" y="784" on="1"/>
        <pt x="282" y="815" on="0"/>
        <pt x="286" y="924" on="0"/>
        <pt x="292" y="1050" on="0"/>
        <pt x="296" y="1180" on="0"/>
        <pt x="296" y="1232" on="1"/>
        <pt x="296" y="1302" on="0"/>
        <pt x="290" y="1334" on="1"/>
        <pt x="288" y="1353" on="0"/>
        <pt x="261" y="1376" on="0"/>
        <pt x="222" y="1389" on="0"/>
        <pt x="173" y="1394" on="0"/>
        <pt x="128" y="1399" on="0"/>
        <pt x="89" y="1404" on="0"/>
        <pt x="78" y="1410" on="1"/>
        <pt x="65" y="1417" on="0"/>
        <pt x="65" y="1427" on="1"/>
        <pt x="65" y="1435" on="0"/>
        <pt x="68" y="1441" on="0"/>
        <pt x="72" y="1443" on="1"/>
        <pt x="84" y="1447" on="0"/>
        <pt x="107" y="1450" on="0"/>
        <pt x="116" y="1450" on="1"/>
        <pt x="154" y="1450" on="1"/>
        <pt x="199" y="1450" on="0"/>
        <pt x="264" y="1447" on="0"/>
        <pt x="320" y="1442" on="0"/>
        <pt x="374" y="1439" on="0"/>
        <pt x="408" y="1439" on="1"/>
        <pt x="445" y="1439" on="0"/>
        <pt x="508" y="1447" on="0"/>
        <pt x="565" y="1457" on="0"/>
        <pt x="618" y="1465" on="0"/>
        <pt x="645" y="1465" on="1"/>
        <pt x="681" y="1465" on="1"/>
        <pt x="692" y="1465" on="0"/>
        <pt x="718" y="1461" on="0"/>
        <pt x="718" y="1448" on="1"/>
        <pt x="718" y="1431" on="0"/>
        <pt x="695" y="1424" on="1"/>
        <pt x="678" y="1419" on="0"/>
        <pt x="633" y="1412" on="0"/>
        <pt x="605" y="1401" on="1"/>
        <pt x="579" y="1395" on="0"/>
        <pt x="546" y="1381" on="0"/>
        <pt x="538" y="1377" on="1"/>
        <pt x="527" y="1370" on="0"/>
        <pt x="510" y="1348" on="0"/>
        <pt x="510" y="1327" on="1"/>
        <pt x="510" y="121" on="1"/>
        <pt x="510" y="99" on="0"/>
        <pt x="534" y="75" on="0"/>
        <pt x="571" y="63" on="0"/>
        <pt x="614" y="61" on="0"/>
        <pt x="633" y="61" on="1"/>
        <pt x="655" y="61" on="0"/>
        <pt x="735" y="65" on="0"/>
        <pt x="823" y="73" on="0"/>
        <pt x="906" y="86" on="0"/>
        <pt x="932" y="95" on="1"/>
        <pt x="967" y="107" on="0"/>
        <pt x="1026" y="132" on="0"/>
        <pt x="1046" y="151" on="1"/>
        <pt x="1049" y="153" on="0"/>
        <pt x="1063" y="166" on="0"/>
        <pt x="1080" y="185" on="0"/>
        <pt x="1096" y="207" on="0"/>
        <pt x="1102" y="218" on="1"/>
        <pt x="1108" y="226" on="0"/>
        <pt x="1117" y="238" on="0"/>
        <pt x="1121" y="242" on="1"/>
        <pt x="1125" y="247" on="0"/>
        <pt x="1137" y="271" on="0"/>
        <pt x="1152" y="301" on="0"/>
        <pt x="1168" y="332" on="0"/>
        <pt x="1176" y="346" on="1"/>
        <pt x="1183" y="355" on="0"/>
        <pt x="1196" y="367" on="0"/>
        <pt x="1207" y="367" on="1"/>
        <pt x="1218" y="367" on="0"/>
        <pt x="1221" y="342" on="0"/>
        <pt x="1221" y="330" on="1"/>
        <pt x="1221" y="306" on="0"/>
        <pt x="1210" y="257" on="0"/>
        <pt x="1196" y="209" on="0"/>
        <pt x="1180" y="161" on="0"/>
        <pt x="1176" y="137" on="1"/>
        <pt x="1171" y="114" on="0"/>
        <pt x="1168" y="65" on="0"/>
        <pt x="1161" y="24" on="0"/>
        <pt x="1142" y="-2" on="0"/>
        <pt x="1121" y="-2" on="1"/>
        <pt x="437" y="-2" on="1"/>
        <pt x="375" y="-2" on="0"/>
        <pt x="292" y="-7" on="0"/>
        <pt x="224" y="-14" on="0"/>
        <pt x="157" y="-19" on="0"/>
        <pt x="112" y="-19" on="1"/>
        <pt x="95" y="-19" on="0"/>
        <pt x="72" y="-13" on="0"/>
        <pt x="65" y="0" on="1"/>
        <pt x="64" y="4" on="0"/>
        <pt x="62" y="8" on="0"/>
        <pt x="62" y="19" on="1"/>
        <pt x="62" y="32" on="0"/>
        <pt x="85" y="43" on="0"/>
        <pt x="91" y="45" on="1"/>
        <pt x="102" y="47" on="0"/>
        <pt x="146" y="48" on="0"/>
        <pt x="164" y="50" on="1"/>
        <pt x="173" y="51" on="0"/>
        <pt x="201" y="55" on="0"/>
        <pt x="234" y="63" on="0"/>
        <pt x="268" y="75" on="0"/>
      </contour>
    </TTGlyph>
    <TTGlyph name="Lacute" xMin="62" yMin="-19" xMax="1221" yMax="1867">
      <component glyphName="L" x="0" y="0" flags="0x204"/>
      <component glyphName="Acute" x="-153" y="0" flags="0x4"/>
    </TTGlyph>
    <TTGlyph name="Lcaron" xMin="62" yMin="-19" xMax="1221" yMax="1470">
      <component glyphName="L" x="0" y="0" flags="0x204"/>
      <component glyphName="quoteright" x="745" y="0" flags="0x4"/>
    </TTGlyph>
    <TTGlyph name="Lcommaaccent" xMin="62" yMin="-523" xMax="1221" yMax="1465">
      <component glyphName="L" x="0" y="0" flags="0x204"/>
      <component glyphName="commaaccent" x="613" y="0" flags="0x4"/>
    </TTGlyph>
    <TTGlyph name="Lslash" xMin="62" yMin="-19" xMax="1221" yMax="1465">
      <contour>
        <pt x="282" y="83" on="1"/>
        <pt x="282" y="497" on="1"/>
        <pt x="235" y="479" on="0"/>
        <pt x="143" y="442" on="0"/>
        <pt x="96" y="425" on="1"/>
        <pt x="87" y="425" on="0"/>
        <pt x="77" y="443" on="0"/>
        <pt x="75" y="449" on="1"/>
        <pt x="75" y="450" on="0"/>
        <pt x="74" y="451" on="0"/>
        <pt x="74" y="452" on="1"/>
        <pt x="72" y="457" on="0"/>
        <pt x="70" y="465" on="0"/>
        <pt x="70" y="469" on="1"/>
        <pt x="70" y="477" on="0"/>
        <pt x="75" y="478" on="1"/>
        <pt x="127" y="498" on="0"/>
        <pt x="230" y="541" on="0"/>
        <pt x="282" y="563" on="1"/>
        <pt x="282" y="784" on="1"/>
        <pt x="282" y="815" on="0"/>
        <pt x="286" y="924" on="0"/>
        <pt x="292" y="1050" on="0"/>
        <pt x="296" y="1180" on="0"/>
        <pt x="296" y="1232" on="1"/>
        <pt x="296" y="1302" on="0"/>
        <pt x="290" y="1334" on="1"/>
        <pt x="288" y="1353" on="0"/>
        <pt x="261" y="1376" on="0"/>
        <pt x="222" y="1389" on="0"/>
        <pt x="173" y="1394" on="0"/>
        <pt x="128" y="1399" on="0"/>
        <pt x="89" y="1404" on="0"/>
        <pt x="78" y="1410" on="1"/>
        <pt x="65" y="1417" on="0"/>
        <pt x="65" y="1427" on="1"/>
        <pt x="65" y="1435" on="0"/>
        <pt x="68" y="1441" on="0"/>
        <pt x="72" y="1443" on="1"/>
        <pt x="84" y="1447" on="0"/>
        <pt x="107" y="1450" on="0"/>
        <pt x="116" y="1450" on="1"/>
        <pt x="154" y="1450" on="1"/>
        <pt x="199" y="1450" on="0"/>
        <pt x="264" y="1447" on="0"/>
        <pt x="320" y="1442" on="0"/>
        <pt x="374" y="1439" on="0"/>
        <pt x="408" y="1439" on="1"/>
        <pt x="445" y="1439" on="0"/>
        <pt x="508" y="1447" on="0"/>
        <pt x="565" y="1457" on="0"/>
        <pt x="618" y="1465" on="0"/>
        <pt x="645" y="1465" on="1"/>
        <pt x="681" y="1465" on="1"/>
        <pt x="692" y="1465" on="0"/>
        <pt x="718" y="1461" on="0"/>
        <pt x="718" y="1448" on="1"/>
        <pt x="718" y="1431" on="0"/>
        <pt x="695" y="1424" on="1"/>
        <pt x="678" y="1419" on="0"/>
        <pt x="633" y="1412" on="0"/>
        <pt x="605" y="1401" on="1"/>
        <pt x="579" y="1395" on="0"/>
        <pt x="546" y="1381" on="0"/>
        <pt x="538" y="1377" on="1"/>
        <pt x="527" y="1370" on="0"/>
        <pt x="510" y="1348" on="0"/>
        <pt x="510" y="1327" on="1"/>
        <pt x="510" y="658" on="1"/>
        <pt x="602" y="696" on="0"/>
        <pt x="784" y="768" on="0"/>
        <pt x="878" y="800" on="1"/>
        <pt x="883" y="802" on="0"/>
        <pt x="895" y="788" on="0"/>
        <pt x="900" y="777" on="1"/>
        <pt x="903" y="768" on="0"/>
        <pt x="903" y="759" on="1"/>
        <pt x="903" y="748" on="0"/>
        <pt x="899" y="747" on="1"/>
        <pt x="800" y="708" on="0"/>
        <pt x="607" y="629" on="0"/>
        <pt x="510" y="589" on="1"/>
        <pt x="510" y="121" on="1"/>
        <pt x="510" y="99" on="0"/>
        <pt x="534" y="75" on="0"/>
        <pt x="571" y="63" on="0"/>
        <pt x="614" y="61" on="0"/>
        <pt x="633" y="61" on="1"/>
        <pt x="655" y="61" on="0"/>
        <pt x="735" y="65" on="0"/>
        <pt x="823" y="73" on="0"/>
        <pt x="906" y="86" on="0"/>
        <pt x="932" y="95" on="1"/>
        <pt x="967" y="107" on="0"/>
        <pt x="1026" y="132" on="0"/>
        <pt x="1046" y="151" on="1"/>
        <pt x="1049" y="153" on="0"/>
        <pt x="1063" y="166" on="0"/>
        <pt x="1080" y="185" on="0"/>
        <pt x="1096" y="207" on="0"/>
        <pt x="1102" y="218" on="1"/>
        <pt x="1108" y="226" on="0"/>
        <pt x="1117" y="238" on="0"/>
        <pt x="1121" y="242" on="1"/>
        <pt x="1125" y="247" on="0"/>
        <pt x="1137" y="271" on="0"/>
        <pt x="1152" y="301" on="0"/>
        <pt x="1168" y="332" on="0"/>
        <pt x="1176" y="346" on="1"/>
        <pt x="1183" y="355" on="0"/>
        <pt x="1196" y="367" on="0"/>
        <pt x="1207" y="367" on="1"/>
        <pt x="1218" y="367" on="0"/>
        <pt x="1221" y="342" on="0"/>
        <pt x="1221" y="330" on="1"/>
        <pt x="1221" y="306" on="0"/>
        <pt x="1210" y="257" on="0"/>
        <pt x="1196" y="209" on="0"/>
        <pt x="1180" y="161" on="0"/>
        <pt x="1176" y="137" on="1"/>
        <pt x="1171" y="114" on="0"/>
        <pt x="1168" y="65" on="0"/>
        <pt x="1161" y="24" on="0"/>
        <pt x="1142" y="-2" on="0"/>
        <pt x="1121" y="-2" on="1"/>
        <pt x="437" y="-2" on="1"/>
        <pt x="375" y="-2" on="0"/>
        <pt x="292" y="-7" on="0"/>
        <pt x="224" y="-14" on="0"/>
        <pt x="157" y="-19" on="0"/>
        <pt x="112" y="-19" on="1"/>
        <pt x="95" y="-19" on="0"/>
        <pt x="72" y="-13" on="0"/>
        <pt x="65" y="0" on="1"/>
        <pt x="64" y="4" on="0"/>
        <pt x="62" y="8" on="0"/>
        <pt x="62" y="19" on="1"/>
        <pt x="62" y="32" on="0"/>
        <pt x="85" y="43" on="0"/>
        <pt x="91" y="45" on="1"/>
        <pt x="102" y="47" on="0"/>
        <pt x="146" y="48" on="0"/>
        <pt x="164" y="50" on="1"/>
        <pt x="173" y="51" on="0"/>
        <pt x="201" y="55" on="0"/>
        <pt x="234" y="63" on="0"/>
        <pt x="268" y="75" on="0"/>
      </contour>
    </TTGlyph>
    <TTGlyph name="M" xMin="37" yMin="-3" xMax="1814" yMax="1448">
      <contour>
        <pt x="305" y="9" on="1"/>
        <pt x="251" y="9" on="0"/>
        <pt x="153" y="0" on="0"/>
        <pt x="94" y="0" on="1"/>
        <pt x="54" y="0" on="1"/>
        <pt x="45" y="0" on="0"/>
        <pt x="37" y="23" on="0"/>
        <pt x="37" y="29" on="1"/>
        <pt x="37" y="39" on="0"/>
        <pt x="42" y="54" on="0"/>
        <pt x="49" y="55" on="1"/>
        <pt x="60" y="58" on="0"/>
        <pt x="90" y="62" on="0"/>
        <pt x="122" y="65" on="0"/>
        <pt x="151" y="66" on="0"/>
        <pt x="162" y="66" on="1"/>
        <pt x="186" y="66" on="0"/>
        <pt x="231" y="88" on="0"/>
        <pt x="245" y="104" on="1"/>
        <pt x="255" y="117" on="0"/>
        <pt x="269" y="142" on="0"/>
        <pt x="280" y="186" on="0"/>
        <pt x="287" y="256" on="0"/>
        <pt x="291" y="313" on="1"/>
        <pt x="338" y="1171" on="1"/>
        <pt x="338" y="1202" on="0"/>
        <pt x="324" y="1265" on="0"/>
        <pt x="293" y="1320" on="0"/>
        <pt x="243" y="1360" on="0"/>
        <pt x="207" y="1368" on="1"/>
        <pt x="204" y="1369" on="0"/>
        <pt x="178" y="1372" on="0"/>
        <pt x="148" y="1376" on="0"/>
        <pt x="122" y="1379" on="0"/>
        <pt x="118" y="1379" on="1"/>
        <pt x="98" y="1383" on="0"/>
        <pt x="75" y="1391" on="0"/>
        <pt x="75" y="1412" on="1"/>
        <pt x="75" y="1421" on="0"/>
        <pt x="77" y="1438" on="0"/>
        <pt x="84" y="1438" on="1"/>
        <pt x="125" y="1438" on="1"/>
        <pt x="151" y="1438" on="0"/>
        <pt x="196" y="1434" on="0"/>
        <pt x="242" y="1428" on="0"/>
        <pt x="293" y="1424" on="0"/>
        <pt x="324" y="1424" on="1"/>
        <pt x="419" y="1424" on="1"/>
        <pt x="436" y="1424" on="0"/>
        <pt x="465" y="1429" on="0"/>
        <pt x="489" y="1429" on="1"/>
        <pt x="507" y="1429" on="0"/>
        <pt x="547" y="1420" on="0"/>
        <pt x="556" y="1406" on="1"/>
        <pt x="573" y="1386" on="0"/>
        <pt x="597" y="1337" on="0"/>
        <pt x="606" y="1310" on="1"/>
        <pt x="942" y="426" on="1"/>
        <pt x="946" y="416" on="0"/>
        <pt x="954" y="403" on="0"/>
        <pt x="959" y="403" on="1"/>
        <pt x="966" y="403" on="0"/>
        <pt x="974" y="419" on="0"/>
        <pt x="976" y="426" on="1"/>
        <pt x="1354" y="1417" on="1"/>
        <pt x="1360" y="1428" on="0"/>
        <pt x="1383" y="1434" on="0"/>
        <pt x="1397" y="1434" on="1"/>
        <pt x="1447" y="1434" on="0"/>
        <pt x="1540" y="1438" on="0"/>
        <pt x="1633" y="1444" on="0"/>
        <pt x="1728" y="1448" on="0"/>
        <pt x="1781" y="1448" on="1"/>
        <pt x="1784" y="1448" on="0"/>
        <pt x="1795" y="1448" on="0"/>
        <pt x="1806" y="1445" on="0"/>
        <pt x="1814" y="1439" on="0"/>
        <pt x="1814" y="1434" on="1"/>
        <pt x="1814" y="1420" on="0"/>
        <pt x="1790" y="1391" on="0"/>
        <pt x="1772" y="1391" on="1"/>
        <pt x="1722" y="1391" on="0"/>
        <pt x="1656" y="1367" on="0"/>
        <pt x="1622" y="1330" on="1"/>
        <pt x="1607" y="1315" on="0"/>
        <pt x="1589" y="1277" on="0"/>
        <pt x="1578" y="1234" on="0"/>
        <pt x="1575" y="1189" on="0"/>
        <pt x="1575" y="1168" on="1"/>
        <pt x="1591" y="100" on="1"/>
        <pt x="1598" y="79" on="0"/>
        <pt x="1652" y="63" on="0"/>
        <pt x="1718" y="58" on="0"/>
        <pt x="1781" y="55" on="0"/>
        <pt x="1798" y="47" on="1"/>
        <pt x="1810" y="42" on="0"/>
        <pt x="1814" y="27" on="0"/>
        <pt x="1814" y="21" on="1"/>
        <pt x="1814" y="5" on="0"/>
        <pt x="1781" y="-2" on="0"/>
        <pt x="1753" y="-2" on="1"/>
        <pt x="1721" y="-2" on="0"/>
        <pt x="1665" y="0" on="0"/>
        <pt x="1610" y="1" on="0"/>
        <pt x="1550" y="3" on="0"/>
        <pt x="1513" y="3" on="1"/>
        <pt x="1360" y="3" on="1"/>
        <pt x="1331" y="3" on="0"/>
        <pt x="1277" y="2" on="0"/>
        <pt x="1250" y="0" on="1"/>
        <pt x="1218" y="-3" on="0"/>
        <pt x="1186" y="-3" on="1"/>
        <pt x="1178" y="-3" on="0"/>
        <pt x="1161" y="-2" on="0"/>
        <pt x="1146" y="4" on="0"/>
        <pt x="1137" y="17" on="0"/>
        <pt x="1137" y="28" on="1"/>
        <pt x="1137" y="48" on="0"/>
        <pt x="1187" y="61" on="0"/>
        <pt x="1222" y="61" on="1"/>
        <pt x="1264" y="61" on="1"/>
        <pt x="1285" y="61" on="0"/>
        <pt x="1322" y="63" on="0"/>
        <pt x="1350" y="73" on="0"/>
        <pt x="1367" y="92" on="0"/>
        <pt x="1367" y="109" on="1"/>
        <pt x="1354" y="1171" on="1"/>
        <pt x="1354" y="1176" on="0"/>
        <pt x="1350" y="1194" on="0"/>
        <pt x="1345" y="1194" on="1"/>
        <pt x="1338" y="1194" on="0"/>
        <pt x="1331" y="1189" on="0"/>
        <pt x="1329" y="1187" on="1"/>
        <pt x="881" y="21" on="1"/>
        <pt x="877" y="5" on="0"/>
        <pt x="869" y="5" on="1"/>
        <pt x="861" y="5" on="0"/>
        <pt x="855" y="21" on="1"/>
        <pt x="409" y="1197" on="1"/>
        <pt x="406" y="1209" on="0"/>
        <pt x="397" y="1209" on="1"/>
        <pt x="393" y="1209" on="0"/>
        <pt x="388" y="1205" on="0"/>
        <pt x="388" y="1197" on="1"/>
        <pt x="362" y="242" on="1"/>
        <pt x="362" y="230" on="0"/>
        <pt x="365" y="191" on="0"/>
        <pt x="372" y="149" on="0"/>
        <pt x="383" y="109" on="0"/>
        <pt x="392" y="95" on="1"/>
        <pt x="405" y="74" on="0"/>
        <pt x="458" y="55" on="0"/>
        <pt x="519" y="48" on="0"/>
        <pt x="580" y="46" on="0"/>
        <pt x="601" y="43" on="1"/>
        <pt x="613" y="42" on="0"/>
        <pt x="622" y="26" on="0"/>
        <pt x="622" y="17" on="1"/>
        <pt x="622" y="11" on="0"/>
        <pt x="609" y="3" on="0"/>
        <pt x="590" y="-2" on="0"/>
        <pt x="566" y="-3" on="0"/>
        <pt x="556" y="-3" on="1"/>
        <pt x="519" y="-3" on="0"/>
        <pt x="455" y="1" on="0"/>
        <pt x="395" y="5" on="0"/>
        <pt x="337" y="9" on="0"/>
      </contour>
    </TTGlyph>
    <TTGlyph name="Macron" xMin="144" yMin="1629" xMax="731" yMax="1734">
      <contour>
        <pt x="179" y="1629" on="1"/>
        <pt x="170" y="1629" on="0"/>
        <pt x="157" y="1640" on="0"/>
        <pt x="148" y="1656" on="0"/>
        <pt x="144" y="1674" on="0"/>
        <pt x="144" y="1682" on="1"/>
        <pt x="144" y="1692" on="0"/>
        <pt x="153" y="1714" on="0"/>
        <pt x="159" y="1720" on="1"/>
        <pt x="164" y="1725" on="0"/>
        <pt x="179" y="1734" on="0"/>
        <pt x="190" y="1734" on="1"/>
        <pt x="253" y="1730" on="0"/>
        <pt x="369" y="1728" on="0"/>
        <pt x="425" y="1728" on="1"/>
        <pt x="557" y="1728" on="0"/>
        <pt x="676" y="1734" on="1"/>
        <pt x="684" y="1734" on="0"/>
        <pt x="708" y="1731" on="0"/>
        <pt x="713" y="1726" on="1"/>
        <pt x="724" y="1715" on="0"/>
        <pt x="731" y="1696" on="0"/>
        <pt x="731" y="1682" on="1"/>
        <pt x="731" y="1675" on="0"/>
        <pt x="725" y="1657" on="0"/>
        <pt x="715" y="1640" on="0"/>
        <pt x="698" y="1629" on="0"/>
        <pt x="688" y="1629" on="1"/>
        <pt x="640" y="1631" on="0"/>
        <pt x="554" y="1633" on="0"/>
        <pt x="512" y="1633" on="1"/>
      </contour>
    </TTGlyph>
    <TTGlyph name="N" xMin="44" yMin="0" xMax="1514" yMax="1432">
      <contour>
        <pt x="386" y="208" on="1"/>
        <pt x="386" y="187" on="0"/>
        <pt x="406" y="155" on="0"/>
        <pt x="434" y="132" on="0"/>
        <pt x="464" y="116" on="0"/>
        <pt x="473" y="111" on="1"/>
        <pt x="482" y="106" on="0"/>
        <pt x="513" y="96" on="0"/>
        <pt x="549" y="88" on="0"/>
        <pt x="585" y="83" on="0"/>
        <pt x="599" y="83" on="1"/>
        <pt x="607" y="83" on="0"/>
        <pt x="625" y="81" on="0"/>
        <pt x="641" y="73" on="0"/>
        <pt x="652" y="60" on="0"/>
        <pt x="652" y="50" on="1"/>
        <pt x="652" y="24" on="0"/>
        <pt x="622" y="5" on="0"/>
        <pt x="604" y="5" on="1"/>
        <pt x="475" y="3" on="0"/>
        <pt x="219" y="0" on="0"/>
        <pt x="88" y="0" on="1"/>
        <pt x="68" y="0" on="0"/>
        <pt x="44" y="8" on="0"/>
        <pt x="44" y="31" on="1"/>
        <pt x="44" y="47" on="0"/>
        <pt x="67" y="63" on="0"/>
        <pt x="85" y="69" on="1"/>
        <pt x="112" y="78" on="0"/>
        <pt x="184" y="97" on="0"/>
        <pt x="250" y="134" on="0"/>
        <pt x="296" y="199" on="0"/>
        <pt x="298" y="254" on="1"/>
        <pt x="307" y="490" on="0"/>
        <pt x="329" y="954" on="0"/>
        <pt x="329" y="1195" on="1"/>
        <pt x="329" y="1212" on="0"/>
        <pt x="321" y="1237" on="0"/>
        <pt x="306" y="1259" on="0"/>
        <pt x="286" y="1279" on="0"/>
        <pt x="274" y="1291" on="1"/>
        <pt x="269" y="1296" on="0"/>
        <pt x="245" y="1315" on="0"/>
        <pt x="215" y="1337" on="0"/>
        <pt x="181" y="1361" on="0"/>
        <pt x="165" y="1372" on="1"/>
        <pt x="150" y="1381" on="0"/>
        <pt x="127" y="1391" on="0"/>
        <pt x="107" y="1398" on="0"/>
        <pt x="87" y="1405" on="0"/>
        <pt x="75" y="1410" on="1"/>
        <pt x="66" y="1413" on="0"/>
        <pt x="66" y="1420" on="1"/>
        <pt x="66" y="1422" on="0"/>
        <pt x="68" y="1429" on="0"/>
        <pt x="75" y="1429" on="1"/>
        <pt x="115" y="1432" on="0"/>
        <pt x="170" y="1432" on="1"/>
        <pt x="213" y="1432" on="1"/>
        <pt x="263" y="1432" on="0"/>
        <pt x="370" y="1429" on="0"/>
        <pt x="436" y="1429" on="1"/>
        <pt x="450" y="1429" on="0"/>
        <pt x="459" y="1417" on="1"/>
        <pt x="1159" y="453" on="1"/>
        <pt x="1172" y="436" on="0"/>
        <pt x="1187" y="436" on="1"/>
        <pt x="1204" y="436" on="0"/>
        <pt x="1204" y="453" on="1"/>
        <pt x="1204" y="1251" on="1"/>
        <pt x="1204" y="1282" on="0"/>
        <pt x="1182" y="1321" on="0"/>
        <pt x="1128" y="1347" on="0"/>
        <pt x="1037" y="1366" on="0"/>
        <pt x="969" y="1377" on="1"/>
        <pt x="940" y="1381" on="0"/>
        <pt x="924" y="1392" on="0"/>
        <pt x="924" y="1408" on="1"/>
        <pt x="924" y="1415" on="0"/>
        <pt x="934" y="1423" on="0"/>
        <pt x="948" y="1426" on="0"/>
        <pt x="964" y="1427" on="0"/>
        <pt x="969" y="1427" on="1"/>
        <pt x="1035" y="1427" on="1"/>
        <pt x="1074" y="1427" on="0"/>
        <pt x="1181" y="1417" on="0"/>
        <pt x="1253" y="1417" on="1"/>
        <pt x="1280" y="1417" on="0"/>
        <pt x="1362" y="1422" on="0"/>
        <pt x="1400" y="1422" on="1"/>
        <pt x="1415" y="1422" on="0"/>
        <pt x="1437" y="1421" on="0"/>
        <pt x="1457" y="1419" on="0"/>
        <pt x="1478" y="1415" on="0"/>
        <pt x="1492" y="1412" on="1"/>
        <pt x="1514" y="1406" on="0"/>
        <pt x="1514" y="1391" on="1"/>
        <pt x="1514" y="1376" on="0"/>
        <pt x="1495" y="1372" on="1"/>
        <pt x="1441" y="1368" on="0"/>
        <pt x="1363" y="1345" on="0"/>
        <pt x="1312" y="1298" on="0"/>
        <pt x="1286" y="1223" on="0"/>
        <pt x="1284" y="1166" on="1"/>
        <pt x="1280" y="1085" on="1"/>
        <pt x="1272" y="945" on="0"/>
        <pt x="1263" y="732" on="0"/>
        <pt x="1257" y="555" on="0"/>
        <pt x="1255" y="400" on="0"/>
        <pt x="1255" y="317" on="1"/>
        <pt x="1255" y="258" on="1"/>
        <pt x="1255" y="232" on="0"/>
        <pt x="1256" y="171" on="0"/>
        <pt x="1256" y="133" on="1"/>
        <pt x="1256" y="50" on="1"/>
        <pt x="1256" y="41" on="0"/>
        <pt x="1245" y="10" on="0"/>
        <pt x="1232" y="10" on="1"/>
        <pt x="1216" y="10" on="0"/>
        <pt x="1191" y="31" on="0"/>
        <pt x="1173" y="57" on="1"/>
        <pt x="428" y="1114" on="1"/>
        <pt x="418" y="1125" on="0"/>
        <pt x="411" y="1137" on="0"/>
        <pt x="400" y="1137" on="1"/>
        <pt x="391" y="1137" on="0"/>
        <pt x="386" y="1115" on="0"/>
        <pt x="386" y="1104" on="1"/>
      </contour>
    </TTGlyph>
    <TTGlyph name="Nacute" xMin="44" yMin="0" xMax="1514" yMax="1867">
      <component glyphName="N" x="0" y="0" flags="0x204"/>
      <component glyphName="Acute" x="263" y="0" flags="0x4"/>
    </TTGlyph>
    <TTGlyph name="Ncaron" xMin="44" yMin="0" xMax="1514" yMax="1864">
      <component glyphName="N" x="0" y="0" flags="0x204"/>
      <component glyphName="Caron" x="301" y="0" flags="0x4"/>
    </TTGlyph>
    <TTGlyph name="Ncommaaccent" xMin="44" yMin="-523" xMax="1514" yMax="1432">
      <component glyphName="N" x="0" y="0" flags="0x204"/>
      <component glyphName="commaaccent" x="770" y="0" flags="0x4"/>
    </TTGlyph>
    <TTGlyph name="Ntilde" xMin="44" yMin="0" xMax="1514" yMax="1814">
      <component glyphName="N" x="0" y="0" flags="0x204"/>
      <component glyphName="Tilde" x="244" y="0" flags="0x4"/>
    </TTGlyph>
    <TTGlyph name="O" xMin="87" yMin="-26" xMax="1532" yMax="1446">
      <contour>
        <pt x="803" y="-26" on="1"/>
        <pt x="657" y="-26" on="0"/>
        <pt x="400" y="89" on="0"/>
        <pt x="293" y="201" on="1"/>
        <pt x="247" y="248" on="0"/>
        <pt x="171" y="369" on="0"/>
        <pt x="117" y="517" on="0"/>
        <pt x="87" y="694" on="0"/>
        <pt x="87" y="798" on="1"/>
        <pt x="87" y="872" on="0"/>
        <pt x="142" y="1027" on="0"/>
        <pt x="238" y="1170" on="0"/>
        <pt x="368" y="1293" on="0"/>
        <pt x="443" y="1337" on="1"/>
        <pt x="545" y="1399" on="0"/>
        <pt x="748" y="1446" on="0"/>
        <pt x="834" y="1446" on="1"/>
        <pt x="877" y="1446" on="0"/>
        <pt x="971" y="1432" on="0"/>
        <pt x="1056" y="1410" on="0"/>
        <pt x="1127" y="1384" on="0"/>
        <pt x="1147" y="1372" on="1"/>
        <pt x="1195" y="1343" on="0"/>
        <pt x="1295" y="1257" on="0"/>
        <pt x="1383" y="1157" on="0"/>
        <pt x="1454" y="1052" on="0"/>
        <pt x="1474" y="1005" on="1"/>
        <pt x="1508" y="927" on="0"/>
        <pt x="1532" y="771" on="0"/>
        <pt x="1532" y="687" on="1"/>
        <pt x="1532" y="597" on="0"/>
        <pt x="1495" y="440" on="0"/>
        <pt x="1425" y="302" on="0"/>
        <pt x="1324" y="181" on="0"/>
        <pt x="1260" y="126" on="1"/>
        <pt x="1213" y="87" on="0"/>
        <pt x="1115" y="30" on="0"/>
        <pt x="1004" y="-8" on="0"/>
        <pt x="878" y="-26" on="0"/>
      </contour>
      <contour>
        <pt x="348" y="695" on="1"/>
        <pt x="348" y="647" on="0"/>
        <pt x="358" y="548" on="0"/>
        <pt x="380" y="451" on="0"/>
        <pt x="415" y="361" on="0"/>
        <pt x="440" y="322" on="1"/>
        <pt x="472" y="269" on="0"/>
        <pt x="551" y="168" on="0"/>
        <pt x="648" y="87" on="0"/>
        <pt x="765" y="38" on="0"/>
        <pt x="834" y="38" on="1"/>
        <pt x="899" y="38" on="0"/>
        <pt x="1021" y="101" on="0"/>
        <pt x="1125" y="204" on="0"/>
        <pt x="1208" y="334" on="0"/>
        <pt x="1234" y="401" on="1"/>
        <pt x="1237" y="411" on="0"/>
        <pt x="1256" y="464" on="0"/>
        <pt x="1276" y="540" on="0"/>
        <pt x="1291" y="636" on="0"/>
        <pt x="1291" y="690" on="1"/>
        <pt x="1291" y="738" on="0"/>
        <pt x="1276" y="850" on="0"/>
        <pt x="1245" y="969" on="0"/>
        <pt x="1199" y="1089" on="0"/>
        <pt x="1168" y="1144" on="1"/>
        <pt x="1141" y="1191" on="0"/>
        <pt x="1069" y="1282" on="0"/>
        <pt x="978" y="1353" on="0"/>
        <pt x="868" y="1396" on="0"/>
        <pt x="803" y="1396" on="1"/>
        <pt x="741" y="1396" on="0"/>
        <pt x="629" y="1344" on="0"/>
        <pt x="537" y="1267" on="0"/>
        <pt x="468" y="1180" on="0"/>
        <pt x="447" y="1144" on="1"/>
        <pt x="431" y="1116" on="0"/>
        <pt x="396" y="1032" on="0"/>
        <pt x="367" y="920" on="0"/>
        <pt x="348" y="779" on="0"/>
      </contour>
    </TTGlyph>
    <TTGlyph name="OE" xMin="87" yMin="-26" xMax="2229" yMax="1465">
      <contour>
        <pt x="1326" y="187" on="1"/>
        <pt x="1310" y="171" on="0"/>
        <pt x="1277" y="140" on="0"/>
        <pt x="1260" y="126" on="1"/>
        <pt x="1203" y="79" on="0"/>
        <pt x="1144" y="47" on="1"/>
        <pt x="1149" y="48" on="0"/>
        <pt x="1159" y="48" on="0"/>
        <pt x="1161" y="48" on="1"/>
        <pt x="1185" y="50" on="0"/>
        <pt x="1217" y="53" on="0"/>
        <pt x="1239" y="61" on="1"/>
        <pt x="1282" y="74" on="0"/>
        <pt x="1326" y="117" on="0"/>
        <pt x="1326" y="164" on="1"/>
      </contour>
      <contour>
        <pt x="348" y="695" on="1"/>
        <pt x="348" y="647" on="0"/>
        <pt x="358" y="548" on="0"/>
        <pt x="380" y="451" on="0"/>
        <pt x="415" y="361" on="0"/>
        <pt x="440" y="322" on="1"/>
        <pt x="472" y="269" on="0"/>
        <pt x="551" y="168" on="0"/>
        <pt x="648" y="87" on="0"/>
        <pt x="765" y="38" on="0"/>
        <pt x="834" y="38" on="1"/>
        <pt x="899" y="38" on="0"/>
        <pt x="1021" y="101" on="0"/>
        <pt x="1125" y="204" on="0"/>
        <pt x="1208" y="334" on="0"/>
        <pt x="1234" y="401" on="1"/>
        <pt x="1237" y="411" on="0"/>
        <pt x="1256" y="464" on="0"/>
        <pt x="1276" y="540" on="0"/>
        <pt x="1291" y="636" on="0"/>
        <pt x="1291" y="690" on="1"/>
        <pt x="1291" y="738" on="0"/>
        <pt x="1276" y="850" on="0"/>
        <pt x="1245" y="969" on="0"/>
        <pt x="1199" y="1089" on="0"/>
        <pt x="1168" y="1144" on="1"/>
        <pt x="1141" y="1191" on="0"/>
        <pt x="1069" y="1282" on="0"/>
        <pt x="978" y="1353" on="0"/>
        <pt x="868" y="1396" on="0"/>
        <pt x="803" y="1396" on="1"/>
        <pt x="741" y="1396" on="0"/>
        <pt x="629" y="1344" on="0"/>
        <pt x="537" y="1267" on="0"/>
        <pt x="468" y="1180" on="0"/>
        <pt x="447" y="1144" on="1"/>
        <pt x="431" y="1116" on="0"/>
        <pt x="396" y="1032" on="0"/>
        <pt x="367" y="920" on="0"/>
        <pt x="348" y="779" on="0"/>
      </contour>
      <contour>
        <pt x="1326" y="1322" on="1"/>
        <pt x="1326" y="1352" on="0"/>
        <pt x="1282" y="1388" on="0"/>
        <pt x="1218" y="1409" on="0"/>
        <pt x="1146" y="1417" on="0"/>
        <pt x="1118" y="1419" on="1"/>
        <pt x="1111" y="1419" on="0"/>
        <pt x="1099" y="1422" on="0"/>
        <pt x="1099" y="1431" on="1"/>
        <pt x="1099" y="1437" on="0"/>
        <pt x="1109" y="1445" on="0"/>
        <pt x="1123" y="1450" on="0"/>
        <pt x="1137" y="1451" on="0"/>
        <pt x="1142" y="1451" on="1"/>
        <pt x="1149" y="1451" on="0"/>
        <pt x="1195" y="1450" on="0"/>
        <pt x="1263" y="1449" on="0"/>
        <pt x="1346" y="1448" on="0"/>
        <pt x="1391" y="1448" on="1"/>
        <pt x="1468" y="1448" on="0"/>
        <pt x="1579" y="1453" on="0"/>
        <pt x="1670" y="1460" on="0"/>
        <pt x="1753" y="1465" on="0"/>
        <pt x="1801" y="1465" on="1"/>
        <pt x="1820" y="1465" on="0"/>
        <pt x="1849" y="1465" on="0"/>
        <pt x="1879" y="1465" on="0"/>
        <pt x="1916" y="1464" on="0"/>
        <pt x="1969" y="1462" on="0"/>
        <pt x="2046" y="1460" on="0"/>
        <pt x="2101" y="1458" on="1"/>
        <pt x="2112" y="1457" on="0"/>
        <pt x="2128" y="1443" on="0"/>
        <pt x="2130" y="1432" on="1"/>
        <pt x="2132" y="1363" on="0"/>
        <pt x="2135" y="1238" on="0"/>
        <pt x="2135" y="1168" on="1"/>
        <pt x="2135" y="1152" on="0"/>
        <pt x="2130" y="1152" on="1"/>
        <pt x="2128" y="1152" on="0"/>
        <pt x="2120" y="1154" on="0"/>
        <pt x="2118" y="1159" on="1"/>
        <pt x="2110" y="1175" on="0"/>
        <pt x="2092" y="1213" on="0"/>
        <pt x="2073" y="1252" on="0"/>
        <pt x="2054" y="1288" on="0"/>
        <pt x="2045" y="1301" on="1"/>
        <pt x="2032" y="1320" on="0"/>
        <pt x="1990" y="1361" on="0"/>
        <pt x="1938" y="1395" on="0"/>
        <pt x="1879" y="1417" on="0"/>
        <pt x="1850" y="1419" on="1"/>
        <pt x="1832" y="1419" on="0"/>
        <pt x="1805" y="1420" on="0"/>
        <pt x="1779" y="1420" on="0"/>
        <pt x="1751" y="1420" on="0"/>
        <pt x="1732" y="1420" on="1"/>
        <pt x="1693" y="1420" on="0"/>
        <pt x="1610" y="1416" on="0"/>
        <pt x="1571" y="1408" on="1"/>
        <pt x="1562" y="1406" on="0"/>
        <pt x="1544" y="1399" on="0"/>
        <pt x="1544" y="1386" on="1"/>
        <pt x="1544" y="761" on="1"/>
        <pt x="1546" y="748" on="0"/>
        <pt x="1558" y="744" on="1"/>
        <pt x="1615" y="749" on="0"/>
        <pt x="1744" y="756" on="0"/>
        <pt x="1801" y="756" on="1"/>
        <pt x="1829" y="758" on="0"/>
        <pt x="1874" y="791" on="0"/>
        <pt x="1908" y="838" on="0"/>
        <pt x="1934" y="895" on="0"/>
        <pt x="1954" y="949" on="0"/>
        <pt x="1969" y="992" on="0"/>
        <pt x="1976" y="1003" on="1"/>
        <pt x="1979" y="1008" on="0"/>
        <pt x="1985" y="1010" on="0"/>
        <pt x="1999" y="1010" on="1"/>
        <pt x="2005" y="1010" on="0"/>
        <pt x="2018" y="1005" on="0"/>
        <pt x="2018" y="1000" on="1"/>
        <pt x="2018" y="964" on="0"/>
        <pt x="2013" y="908" on="0"/>
        <pt x="2007" y="864" on="0"/>
        <pt x="2002" y="827" on="0"/>
        <pt x="2002" y="810" on="1"/>
        <pt x="2002" y="436" on="1"/>
        <pt x="2000" y="433" on="0"/>
        <pt x="1997" y="431" on="1"/>
        <pt x="1992" y="426" on="0"/>
        <pt x="1987" y="426" on="1"/>
        <pt x="1979" y="426" on="0"/>
        <pt x="1964" y="455" on="0"/>
        <pt x="1949" y="499" on="0"/>
        <pt x="1934" y="553" on="0"/>
        <pt x="1917" y="605" on="0"/>
        <pt x="1898" y="647" on="0"/>
        <pt x="1886" y="657" on="1"/>
        <pt x="1875" y="666" on="0"/>
        <pt x="1833" y="680" on="0"/>
        <pt x="1780" y="688" on="0"/>
        <pt x="1720" y="693" on="0"/>
        <pt x="1665" y="695" on="0"/>
        <pt x="1617" y="695" on="0"/>
        <pt x="1603" y="695" on="1"/>
        <pt x="1581" y="695" on="0"/>
        <pt x="1556" y="690" on="0"/>
        <pt x="1543" y="674" on="0"/>
        <pt x="1539" y="644" on="0"/>
        <pt x="1539" y="618" on="1"/>
        <pt x="1539" y="215" on="1"/>
        <pt x="1539" y="186" on="0"/>
        <pt x="1545" y="142" on="0"/>
        <pt x="1560" y="109" on="0"/>
        <pt x="1585" y="84" on="0"/>
        <pt x="1603" y="73" on="1"/>
        <pt x="1617" y="65" on="0"/>
        <pt x="1652" y="50" on="0"/>
        <pt x="1667" y="50" on="1"/>
        <pt x="1824" y="50" on="1"/>
        <pt x="1847" y="50" on="0"/>
        <pt x="1884" y="51" on="0"/>
        <pt x="1922" y="54" on="0"/>
        <pt x="1964" y="61" on="0"/>
        <pt x="1992" y="67" on="1"/>
        <pt x="2022" y="74" on="0"/>
        <pt x="2074" y="108" on="0"/>
        <pt x="2121" y="156" on="0"/>
        <pt x="2163" y="216" on="0"/>
        <pt x="2182" y="249" on="1"/>
        <pt x="2185" y="254" on="0"/>
        <pt x="2201" y="287" on="0"/>
        <pt x="2210" y="296" on="1"/>
        <pt x="2211" y="298" on="0"/>
        <pt x="2215" y="298" on="1"/>
        <pt x="2219" y="298" on="0"/>
        <pt x="2222" y="291" on="1"/>
        <pt x="2229" y="278" on="0"/>
        <pt x="2229" y="239" on="1"/>
        <pt x="2229" y="227" on="0"/>
        <pt x="2215" y="178" on="0"/>
        <pt x="2210" y="156" on="1"/>
        <pt x="2205" y="138" on="0"/>
        <pt x="2199" y="84" on="0"/>
        <pt x="2189" y="33" on="0"/>
        <pt x="2170" y="-3" on="0"/>
        <pt x="2154" y="-3" on="1"/>
        <pt x="2148" y="-3" on="0"/>
        <pt x="2140" y="-2" on="0"/>
        <pt x="2137" y="-2" on="1"/>
        <pt x="2134" y="0" on="0"/>
        <pt x="2120" y="0" on="1"/>
        <pt x="1383" y="0" on="1"/>
        <pt x="1360" y="0" on="0"/>
        <pt x="1295" y="-3" on="0"/>
        <pt x="1229" y="-6" on="0"/>
        <pt x="1170" y="-9" on="0"/>
        <pt x="1153" y="-9" on="1"/>
        <pt x="1125" y="-9" on="1"/>
        <pt x="1114" y="-9" on="0"/>
        <pt x="1092" y="0" on="0"/>
        <pt x="1092" y="10" on="1"/>
        <pt x="1092" y="22" on="1"/>
        <pt x="1031" y="-2" on="0"/>
        <pt x="889" y="-26" on="0"/>
        <pt x="803" y="-26" on="1"/>
        <pt x="657" y="-26" on="0"/>
        <pt x="400" y="89" on="0"/>
        <pt x="293" y="201" on="1"/>
        <pt x="247" y="248" on="0"/>
        <pt x="171" y="369" on="0"/>
        <pt x="117" y="517" on="0"/>
        <pt x="87" y="694" on="0"/>
        <pt x="87" y="798" on="1"/>
        <pt x="87" y="872" on="0"/>
        <pt x="142" y="1027" on="0"/>
        <pt x="238" y="1170" on="0"/>
        <pt x="368" y="1293" on="0"/>
        <pt x="443" y="1337" on="1"/>
        <pt x="545" y="1399" on="0"/>
        <pt x="748" y="1446" on="0"/>
        <pt x="834" y="1446" on="1"/>
        <pt x="877" y="1446" on="0"/>
        <pt x="971" y="1434" on="0"/>
        <pt x="1057" y="1414" on="0"/>
        <pt x="1128" y="1391" on="0"/>
        <pt x="1148" y="1379" on="1"/>
        <pt x="1192" y="1353" on="0"/>
        <pt x="1284" y="1274" on="0"/>
        <pt x="1326" y="1227" on="1"/>
      </contour>
    </TTGlyph>
    <TTGlyph name="Oacute" xMin="87" yMin="-26" xMax="1532" yMax="1867">
      <component glyphName="O" x="0" y="0" flags="0x204"/>
      <component glyphName="Acute" x="306" y="0" flags="0x4"/>
    </TTGlyph>
    <TTGlyph name="Ocircumflex" xMin="87" yMin="-26" xMax="1532" yMax="1867">
      <component glyphName="O" x="0" y="0" flags="0x204"/>
      <component glyphName="Circumflex" x="339" y="0" flags="0x4"/>
    </TTGlyph>
    <TTGlyph name="Odieresis" xMin="87" yMin="-26" xMax="1532" yMax="1828">
      <component glyphName="O" x="0" y="0" flags="0x204"/>
      <component glyphName="Dieresis" x="275" y="0" flags="0x4"/>
    </TTGlyph>
    <TTGlyph name="Ograve" xMin="87" yMin="-26" xMax="1532" yMax="1868">
      <component glyphName="O" x="0" y="0" flags="0x204"/>
      <component glyphName="Grave" x="213" y="0" flags="0x4"/>
    </TTGlyph>
    <TTGlyph name="Ohungarumlaut" xMin="87" yMin="-26" xMax="1532" yMax="1867">
      <component glyphName="O" x="0" y="0" flags="0x204"/>
      <component glyphName="Hungarumlaut" x="529" y="0" flags="0x4"/>
    </TTGlyph>
    <TTGlyph name="Omacron" xMin="87" yMin="-26" xMax="1532" yMax="1734">
      <component glyphName="O" x="0" y="0" flags="0x204"/>
      <component glyphName="Macron" x="369" y="0" flags="0x4"/>
    </TTGlyph>
    <TTGlyph name="Oslash" xMin="87" yMin="-166" xMax="1532" yMax="1540">
      <contour>
        <pt x="348" y="695" on="1"/>
        <pt x="348" y="647" on="0"/>
        <pt x="358" y="548" on="0"/>
        <pt x="380" y="451" on="0"/>
        <pt x="415" y="361" on="0"/>
        <pt x="440" y="322" on="1"/>
        <pt x="463" y="283" on="0"/>
        <pt x="518" y="207" on="0"/>
        <pt x="551" y="173" on="1"/>
        <pt x="994" y="1339" on="1"/>
        <pt x="952" y="1365" on="0"/>
        <pt x="858" y="1396" on="0"/>
        <pt x="803" y="1396" on="1"/>
        <pt x="741" y="1396" on="0"/>
        <pt x="629" y="1344" on="0"/>
        <pt x="537" y="1267" on="0"/>
        <pt x="468" y="1180" on="0"/>
        <pt x="447" y="1144" on="1"/>
        <pt x="431" y="1116" on="0"/>
        <pt x="396" y="1032" on="0"/>
        <pt x="367" y="920" on="0"/>
        <pt x="348" y="779" on="0"/>
      </contour>
      <contour>
        <pt x="634" y="100" on="1"/>
        <pt x="677" y="71" on="0"/>
        <pt x="777" y="38" on="0"/>
        <pt x="834" y="38" on="1"/>
        <pt x="899" y="38" on="0"/>
        <pt x="1021" y="101" on="0"/>
        <pt x="1125" y="204" on="0"/>
        <pt x="1208" y="334" on="0"/>
        <pt x="1234" y="401" on="1"/>
        <pt x="1237" y="411" on="0"/>
        <pt x="1256" y="464" on="0"/>
        <pt x="1276" y="540" on="0"/>
        <pt x="1291" y="636" on="0"/>
        <pt x="1291" y="690" on="1"/>
        <pt x="1291" y="738" on="0"/>
        <pt x="1276" y="850" on="0"/>
        <pt x="1245" y="969" on="0"/>
        <pt x="1199" y="1089" on="0"/>
        <pt x="1168" y="1144" on="1"/>
        <pt x="1150" y="1176" on="0"/>
        <pt x="1106" y="1239" on="0"/>
        <pt x="1077" y="1266" on="1"/>
      </contour>
      <contour>
        <pt x="537" y="-156" on="1"/>
        <pt x="531" y="-166" on="0"/>
        <pt x="506" y="-166" on="1"/>
        <pt x="492" y="-166" on="0"/>
        <pt x="480" y="-161" on="1"/>
        <pt x="457" y="-150" on="0"/>
        <pt x="436" y="-134" on="0"/>
        <pt x="436" y="-125" on="1"/>
        <pt x="501" y="45" on="1"/>
        <pt x="386" y="102" on="0"/>
        <pt x="293" y="201" on="1"/>
        <pt x="247" y="248" on="0"/>
        <pt x="171" y="369" on="0"/>
        <pt x="117" y="517" on="0"/>
        <pt x="87" y="694" on="0"/>
        <pt x="87" y="798" on="1"/>
        <pt x="87" y="872" on="0"/>
        <pt x="142" y="1027" on="0"/>
        <pt x="238" y="1170" on="0"/>
        <pt x="368" y="1293" on="0"/>
        <pt x="443" y="1337" on="1"/>
        <pt x="545" y="1399" on="0"/>
        <pt x="748" y="1446" on="0"/>
        <pt x="834" y="1446" on="1"/>
        <pt x="879" y="1446" on="0"/>
        <pt x="977" y="1431" on="0"/>
        <pt x="1023" y="1422" on="1"/>
        <pt x="1066" y="1533" on="1"/>
        <pt x="1069" y="1540" on="0"/>
        <pt x="1090" y="1540" on="1"/>
        <pt x="1100" y="1540" on="0"/>
        <pt x="1117" y="1538" on="0"/>
        <pt x="1122" y="1536" on="1"/>
        <pt x="1128" y="1533" on="0"/>
        <pt x="1142" y="1525" on="0"/>
        <pt x="1156" y="1515" on="0"/>
        <pt x="1165" y="1503" on="0"/>
        <pt x="1165" y="1496" on="1"/>
        <pt x="1123" y="1391" on="1"/>
        <pt x="1131" y="1387" on="0"/>
        <pt x="1143" y="1381" on="0"/>
        <pt x="1148" y="1379" on="1"/>
        <pt x="1196" y="1350" on="0"/>
        <pt x="1295" y="1262" on="0"/>
        <pt x="1384" y="1160" on="0"/>
        <pt x="1454" y="1052" on="0"/>
        <pt x="1474" y="1005" on="1"/>
        <pt x="1508" y="927" on="0"/>
        <pt x="1532" y="771" on="0"/>
        <pt x="1532" y="687" on="1"/>
        <pt x="1532" y="597" on="0"/>
        <pt x="1495" y="440" on="0"/>
        <pt x="1425" y="302" on="0"/>
        <pt x="1324" y="181" on="0"/>
        <pt x="1260" y="126" on="1"/>
        <pt x="1213" y="87" on="0"/>
        <pt x="1115" y="30" on="0"/>
        <pt x="1004" y="-8" on="0"/>
        <pt x="878" y="-26" on="0"/>
        <pt x="803" y="-26" on="1"/>
        <pt x="749" y="-26" on="0"/>
        <pt x="647" y="-11" on="0"/>
        <pt x="597" y="3" on="1"/>
      </contour>
    </TTGlyph>
    <TTGlyph name="Otilde" xMin="87" yMin="-26" xMax="1532" yMax="1814">
      <component glyphName="O" x="0" y="0" flags="0x204"/>
      <component glyphName="Tilde" x="275" y="0" flags="0x4"/>
    </TTGlyph>
    <TTGlyph name="P" xMin="51" yMin="-3" xMax="1189" yMax="1439">
      <contour>
        <pt x="71" y="14" on="1"/>
        <pt x="71" y="45" on="0"/>
        <pt x="115" y="45" on="1"/>
        <pt x="146" y="45" on="0"/>
        <pt x="212" y="56" on="0"/>
        <pt x="241" y="64" on="1"/>
        <pt x="257" y="68" on="0"/>
        <pt x="281" y="85" on="0"/>
        <pt x="281" y="107" on="1"/>
        <pt x="281" y="1336" on="1"/>
        <pt x="275" y="1350" on="0"/>
        <pt x="242" y="1370" on="0"/>
        <pt x="198" y="1382" on="0"/>
        <pt x="149" y="1390" on="0"/>
        <pt x="104" y="1396" on="0"/>
        <pt x="67" y="1403" on="0"/>
        <pt x="58" y="1408" on="1"/>
        <pt x="51" y="1410" on="0"/>
        <pt x="51" y="1422" on="1"/>
        <pt x="51" y="1431" on="0"/>
        <pt x="58" y="1432" on="1"/>
        <pt x="62" y="1434" on="0"/>
        <pt x="78" y="1438" on="0"/>
        <pt x="101" y="1438" on="1"/>
        <pt x="109" y="1438" on="0"/>
        <pt x="168" y="1435" on="0"/>
        <pt x="238" y="1430" on="0"/>
        <pt x="301" y="1427" on="0"/>
        <pt x="312" y="1427" on="1"/>
        <pt x="447" y="1427" on="1"/>
        <pt x="451" y="1427" on="0"/>
        <pt x="482" y="1429" on="0"/>
        <pt x="518" y="1430" on="0"/>
        <pt x="547" y="1432" on="0"/>
        <pt x="549" y="1432" on="1"/>
        <pt x="583" y="1437" on="0"/>
        <pt x="651" y="1439" on="0"/>
        <pt x="686" y="1439" on="1"/>
        <pt x="747" y="1439" on="0"/>
        <pt x="876" y="1430" on="0"/>
        <pt x="933" y="1408" on="1"/>
        <pt x="991" y="1386" on="0"/>
        <pt x="1085" y="1313" on="0"/>
        <pt x="1152" y="1220" on="0"/>
        <pt x="1189" y="1110" on="0"/>
        <pt x="1189" y="1052" on="1"/>
        <pt x="1189" y="950" on="0"/>
        <pt x="1116" y="801" on="0"/>
        <pt x="1035" y="742" on="1"/>
        <pt x="985" y="706" on="0"/>
        <pt x="842" y="657" on="0"/>
        <pt x="751" y="657" on="1"/>
        <pt x="712" y="657" on="0"/>
        <pt x="636" y="660" on="0"/>
        <pt x="596" y="664" on="1"/>
        <pt x="591" y="664" on="0"/>
        <pt x="577" y="668" on="0"/>
        <pt x="566" y="668" on="1"/>
        <pt x="547" y="668" on="1"/>
        <pt x="538" y="668" on="0"/>
        <pt x="537" y="664" on="1"/>
        <pt x="521" y="659" on="0"/>
        <pt x="499" y="634" on="0"/>
        <pt x="499" y="604" on="1"/>
        <pt x="499" y="412" on="1"/>
        <pt x="499" y="344" on="0"/>
        <pt x="488" y="184" on="0"/>
        <pt x="488" y="111" on="1"/>
        <pt x="488" y="90" on="0"/>
        <pt x="506" y="73" on="0"/>
        <pt x="523" y="69" on="1"/>
        <pt x="568" y="58" on="0"/>
        <pt x="648" y="49" on="0"/>
        <pt x="691" y="40" on="1"/>
        <pt x="706" y="35" on="0"/>
        <pt x="713" y="24" on="0"/>
        <pt x="713" y="17" on="1"/>
        <pt x="713" y="11" on="0"/>
        <pt x="702" y="4" on="0"/>
        <pt x="687" y="-1" on="0"/>
        <pt x="672" y="-3" on="0"/>
        <pt x="667" y="-3" on="1"/>
        <pt x="655" y="-3" on="0"/>
        <pt x="620" y="-2" on="0"/>
        <pt x="585" y="-1" on="0"/>
        <pt x="554" y="0" on="0"/>
        <pt x="545" y="0" on="1"/>
        <pt x="243" y="0" on="1"/>
        <pt x="205" y="0" on="0"/>
        <pt x="136" y="-3" on="0"/>
        <pt x="120" y="-3" on="1"/>
        <pt x="83" y="-3" on="1"/>
        <pt x="71" y="-2" on="0"/>
      </contour>
      <contour>
        <pt x="518" y="702" on="1"/>
        <pt x="536" y="697" on="0"/>
        <pt x="571" y="690" on="0"/>
        <pt x="597" y="690" on="1"/>
        <pt x="642" y="690" on="0"/>
        <pt x="734" y="711" on="0"/>
        <pt x="772" y="732" on="1"/>
        <pt x="808" y="751" on="0"/>
        <pt x="877" y="813" on="0"/>
        <pt x="931" y="896" on="0"/>
        <pt x="964" y="999" on="0"/>
        <pt x="964" y="1060" on="1"/>
        <pt x="964" y="1124" on="0"/>
        <pt x="936" y="1223" on="0"/>
        <pt x="881" y="1299" on="0"/>
        <pt x="798" y="1356" on="0"/>
        <pt x="743" y="1379" on="1"/>
        <pt x="713" y="1392" on="0"/>
        <pt x="648" y="1403" on="0"/>
        <pt x="613" y="1403" on="1"/>
        <pt x="581" y="1403" on="0"/>
        <pt x="528" y="1398" on="0"/>
        <pt x="499" y="1387" on="1"/>
        <pt x="499" y="751" on="1"/>
        <pt x="499" y="735" on="0"/>
        <pt x="504" y="707" on="0"/>
      </contour>
    </TTGlyph>
    <TTGlyph name="Q" xMin="86" yMin="-240" xMax="2204" yMax="1432">
      <contour>
        <pt x="806" y="1432" on="1"/>
        <pt x="804" y="1432" on="1"/>
        <pt x="856" y="1432" on="0"/>
        <pt x="971" y="1410" on="0"/>
        <pt x="1085" y="1371" on="0"/>
        <pt x="1188" y="1314" on="0"/>
        <pt x="1228" y="1280" on="1"/>
        <pt x="1299" y="1218" on="0"/>
        <pt x="1399" y="1097" on="0"/>
        <pt x="1461" y="966" on="0"/>
        <pt x="1489" y="818" on="0"/>
        <pt x="1489" y="730" on="1"/>
        <pt x="1489" y="637" on="0"/>
        <pt x="1447" y="449" on="0"/>
        <pt x="1361" y="280" on="0"/>
        <pt x="1229" y="140" on="0"/>
        <pt x="1140" y="95" on="1"/>
        <pt x="1125" y="87" on="0"/>
        <pt x="1084" y="70" on="0"/>
        <pt x="1043" y="54" on="0"/>
        <pt x="1006" y="40" on="0"/>
        <pt x="994" y="36" on="1"/>
        <pt x="990" y="32" on="0"/>
        <pt x="984" y="28" on="0"/>
        <pt x="984" y="26" on="1"/>
        <pt x="984" y="21" on="0"/>
        <pt x="994" y="17" on="1"/>
        <pt x="1029" y="6" on="0"/>
        <pt x="1100" y="-9" on="0"/>
        <pt x="1134" y="-17" on="1"/>
        <pt x="1246" y="-40" on="0"/>
        <pt x="1467" y="-76" on="0"/>
        <pt x="1582" y="-92" on="1"/>
        <pt x="1700" y="-107" on="0"/>
        <pt x="1926" y="-118" on="0"/>
        <pt x="2032" y="-118" on="1"/>
        <pt x="2100" y="-118" on="0"/>
        <pt x="2167" y="-114" on="0"/>
        <pt x="2172" y="-114" on="1"/>
        <pt x="2191" y="-114" on="0"/>
        <pt x="2204" y="-120" on="0"/>
        <pt x="2204" y="-125" on="1"/>
        <pt x="2204" y="-127" on="0"/>
        <pt x="2195" y="-133" on="0"/>
        <pt x="2183" y="-139" on="0"/>
        <pt x="2170" y="-143" on="0"/>
        <pt x="2167" y="-144" on="1"/>
        <pt x="2148" y="-149" on="0"/>
        <pt x="2108" y="-159" on="0"/>
        <pt x="2072" y="-168" on="0"/>
        <pt x="2043" y="-175" on="0"/>
        <pt x="2034" y="-178" on="1"/>
        <pt x="2027" y="-180" on="0"/>
        <pt x="1945" y="-199" on="0"/>
        <pt x="1885" y="-211" on="1"/>
        <pt x="1832" y="-220" on="0"/>
        <pt x="1744" y="-231" on="0"/>
        <pt x="1660" y="-238" on="0"/>
        <pt x="1573" y="-240" on="0"/>
        <pt x="1522" y="-240" on="1"/>
        <pt x="1474" y="-240" on="0"/>
        <pt x="1386" y="-237" on="0"/>
        <pt x="1298" y="-229" on="0"/>
        <pt x="1206" y="-215" on="0"/>
        <pt x="1153" y="-204" on="1"/>
        <pt x="1033" y="-179" on="0"/>
        <pt x="786" y="-87" on="0"/>
        <pt x="678" y="-26" on="1"/>
        <pt x="637" y="-3" on="0"/>
        <pt x="560" y="43" on="0"/>
        <pt x="487" y="93" on="0"/>
        <pt x="414" y="149" on="0"/>
        <pt x="378" y="183" on="1"/>
        <pt x="352" y="207" on="0"/>
        <pt x="290" y="276" on="0"/>
        <pt x="229" y="353" on="0"/>
        <pt x="176" y="432" on="0"/>
        <pt x="159" y="467" on="1"/>
        <pt x="86" y="609" on="0"/>
        <pt x="86" y="770" on="1"/>
        <pt x="86" y="877" on="0"/>
        <pt x="156" y="1073" on="0"/>
        <pt x="224" y="1164" on="1"/>
        <pt x="266" y="1219" on="0"/>
        <pt x="381" y="1313" on="0"/>
        <pt x="526" y="1384" on="0"/>
        <pt x="703" y="1427" on="0"/>
      </contour>
      <contour>
        <pt x="792" y="1368" on="1"/>
        <pt x="732" y="1368" on="0"/>
        <pt x="654" y="1347" on="0"/>
        <pt x="617" y="1329" on="1"/>
        <pt x="577" y="1309" on="0"/>
        <pt x="514" y="1255" on="0"/>
        <pt x="465" y="1192" on="0"/>
        <pt x="426" y="1126" on="0"/>
        <pt x="410" y="1095" on="1"/>
        <pt x="395" y="1065" on="0"/>
        <pt x="369" y="1008" on="0"/>
        <pt x="347" y="947" on="0"/>
        <pt x="331" y="879" on="0"/>
        <pt x="325" y="837" on="1"/>
        <pt x="320" y="792" on="0"/>
        <pt x="313" y="675" on="0"/>
        <pt x="313" y="623" on="1"/>
        <pt x="313" y="551" on="0"/>
        <pt x="339" y="402" on="0"/>
        <pt x="366" y="334" on="1"/>
        <pt x="403" y="239" on="0"/>
        <pt x="521" y="106" on="0"/>
        <pt x="612" y="54" on="1"/>
        <pt x="664" y="25" on="0"/>
        <pt x="759" y="9" on="0"/>
        <pt x="811" y="9" on="1"/>
        <pt x="847" y="9" on="0"/>
        <pt x="919" y="36" on="0"/>
        <pt x="987" y="79" on="0"/>
        <pt x="1044" y="131" on="0"/>
        <pt x="1065" y="156" on="1"/>
        <pt x="1091" y="186" on="0"/>
        <pt x="1129" y="242" on="0"/>
        <pt x="1159" y="294" on="0"/>
        <pt x="1183" y="347" on="0"/>
        <pt x="1195" y="374" on="1"/>
        <pt x="1216" y="419" on="0"/>
        <pt x="1242" y="507" on="0"/>
        <pt x="1257" y="596" on="0"/>
        <pt x="1262" y="689" on="0"/>
        <pt x="1262" y="740" on="1"/>
        <pt x="1262" y="781" on="0"/>
        <pt x="1258" y="874" on="0"/>
        <pt x="1247" y="917" on="1"/>
        <pt x="1233" y="968" on="0"/>
        <pt x="1192" y="1075" on="0"/>
        <pt x="1142" y="1173" on="0"/>
        <pt x="1082" y="1256" on="0"/>
        <pt x="1048" y="1284" on="1"/>
        <pt x="987" y="1333" on="0"/>
        <pt x="860" y="1368" on="0"/>
      </contour>
    </TTGlyph>
    <TTGlyph name="R" xMin="67" yMin="-9" xMax="1554" yMax="1424">
      <contour>
        <pt x="271" y="90" on="1"/>
        <pt x="271" y="1304" on="1"/>
        <pt x="271" y="1318" on="0"/>
        <pt x="253" y="1336" on="0"/>
        <pt x="226" y="1347" on="0"/>
        <pt x="196" y="1351" on="0"/>
        <pt x="184" y="1351" on="1"/>
        <pt x="143" y="1351" on="1"/>
        <pt x="129" y="1351" on="0"/>
        <pt x="111" y="1351" on="0"/>
        <pt x="103" y="1353" on="1"/>
        <pt x="91" y="1353" on="0"/>
        <pt x="91" y="1360" on="1"/>
        <pt x="91" y="1371" on="0"/>
        <pt x="103" y="1374" on="1"/>
        <pt x="136" y="1380" on="0"/>
        <pt x="191" y="1386" on="0"/>
        <pt x="245" y="1389" on="0"/>
        <pt x="300" y="1390" on="0"/>
        <pt x="333" y="1393" on="1"/>
        <pt x="338" y="1393" on="0"/>
        <pt x="373" y="1396" on="0"/>
        <pt x="422" y="1400" on="0"/>
        <pt x="477" y="1405" on="0"/>
        <pt x="526" y="1410" on="0"/>
        <pt x="562" y="1414" on="0"/>
        <pt x="568" y="1415" on="1"/>
        <pt x="597" y="1419" on="0"/>
        <pt x="666" y="1424" on="0"/>
        <pt x="700" y="1424" on="1"/>
        <pt x="804" y="1424" on="0"/>
        <pt x="973" y="1372" on="0"/>
        <pt x="1093" y="1276" on="0"/>
        <pt x="1158" y="1142" on="0"/>
        <pt x="1158" y="1060" on="1"/>
        <pt x="1158" y="995" on="0"/>
        <pt x="1130" y="880" on="0"/>
        <pt x="1089" y="825" on="1"/>
        <pt x="1069" y="799" on="0"/>
        <pt x="1024" y="762" on="0"/>
        <pt x="977" y="732" on="0"/>
        <pt x="927" y="706" on="0"/>
        <pt x="902" y="690" on="1"/>
        <pt x="895" y="686" on="0"/>
        <pt x="895" y="676" on="1"/>
        <pt x="895" y="674" on="0"/>
        <pt x="900" y="664" on="1"/>
        <pt x="968" y="581" on="0"/>
        <pt x="1096" y="409" on="0"/>
        <pt x="1156" y="318" on="1"/>
        <pt x="1184" y="279" on="0"/>
        <pt x="1253" y="199" on="0"/>
        <pt x="1288" y="164" on="1"/>
        <pt x="1307" y="145" on="0"/>
        <pt x="1347" y="111" on="0"/>
        <pt x="1400" y="80" on="0"/>
        <pt x="1472" y="53" on="0"/>
        <pt x="1522" y="43" on="1"/>
        <pt x="1535" y="39" on="0"/>
        <pt x="1554" y="30" on="0"/>
        <pt x="1554" y="21" on="1"/>
        <pt x="1554" y="3" on="0"/>
        <pt x="1542" y="2" on="1"/>
        <pt x="1540" y="0" on="0"/>
        <pt x="1527" y="0" on="0"/>
        <pt x="1518" y="0" on="1"/>
        <pt x="1492" y="0" on="1"/>
        <pt x="1472" y="0" on="0"/>
        <pt x="1417" y="1" on="0"/>
        <pt x="1356" y="2" on="0"/>
        <pt x="1292" y="4" on="0"/>
        <pt x="1265" y="5" on="1"/>
        <pt x="1225" y="7" on="0"/>
        <pt x="1155" y="17" on="0"/>
        <pt x="1120" y="40" on="1"/>
        <pt x="1097" y="51" on="0"/>
        <pt x="1047" y="106" on="0"/>
        <pt x="1025" y="138" on="1"/>
        <pt x="998" y="174" on="0"/>
        <pt x="937" y="262" on="0"/>
        <pt x="875" y="352" on="0"/>
        <pt x="816" y="438" on="0"/>
        <pt x="767" y="509" on="0"/>
        <pt x="734" y="558" on="0"/>
        <pt x="729" y="566" on="1"/>
        <pt x="725" y="572" on="0"/>
        <pt x="704" y="602" on="0"/>
        <pt x="680" y="633" on="0"/>
        <pt x="656" y="658" on="0"/>
        <pt x="650" y="659" on="1"/>
        <pt x="626" y="662" on="0"/>
        <pt x="563" y="664" on="0"/>
        <pt x="537" y="664" on="1"/>
        <pt x="511" y="664" on="1"/>
        <pt x="500" y="664" on="0"/>
        <pt x="479" y="653" on="0"/>
        <pt x="475" y="640" on="1"/>
        <pt x="475" y="168" on="1"/>
        <pt x="475" y="156" on="0"/>
        <pt x="478" y="124" on="0"/>
        <pt x="484" y="94" on="0"/>
        <pt x="494" y="69" on="0"/>
        <pt x="501" y="64" on="1"/>
        <pt x="514" y="55" on="0"/>
        <pt x="576" y="42" on="0"/>
        <pt x="645" y="35" on="0"/>
        <pt x="708" y="31" on="0"/>
        <pt x="721" y="31" on="1"/>
        <pt x="730" y="31" on="0"/>
        <pt x="736" y="15" on="0"/>
        <pt x="736" y="7" on="1"/>
        <pt x="736" y="-4" on="0"/>
        <pt x="727" y="-9" on="0"/>
        <pt x="714" y="-9" on="1"/>
        <pt x="698" y="-9" on="0"/>
        <pt x="628" y="-6" on="0"/>
        <pt x="551" y="-3" on="0"/>
        <pt x="486" y="0" on="0"/>
        <pt x="475" y="0" on="1"/>
        <pt x="165" y="0" on="1"/>
        <pt x="161" y="0" on="0"/>
        <pt x="143" y="1" on="0"/>
        <pt x="121" y="2" on="0"/>
        <pt x="99" y="3" on="0"/>
        <pt x="91" y="3" on="1"/>
        <pt x="80" y="5" on="0"/>
        <pt x="67" y="6" on="0"/>
        <pt x="67" y="17" on="1"/>
        <pt x="67" y="24" on="0"/>
        <pt x="75" y="31" on="0"/>
        <pt x="91" y="36" on="1"/>
        <pt x="110" y="40" on="0"/>
        <pt x="169" y="41" on="0"/>
        <pt x="225" y="49" on="0"/>
        <pt x="268" y="68" on="0"/>
      </contour>
      <contour>
        <pt x="475" y="1356" on="1"/>
        <pt x="475" y="714" on="1"/>
        <pt x="475" y="704" on="0"/>
        <pt x="487" y="690" on="0"/>
        <pt x="494" y="690" on="1"/>
        <pt x="534" y="690" on="1"/>
        <pt x="568" y="690" on="0"/>
        <pt x="644" y="696" on="0"/>
        <pt x="667" y="701" on="1"/>
        <pt x="694" y="708" on="0"/>
        <pt x="748" y="739" on="0"/>
        <pt x="796" y="778" on="0"/>
        <pt x="838" y="823" on="0"/>
        <pt x="854" y="844" on="1"/>
        <pt x="871" y="868" on="0"/>
        <pt x="897" y="908" on="0"/>
        <pt x="916" y="952" on="0"/>
        <pt x="927" y="1007" on="0"/>
        <pt x="930" y="1045" on="1"/>
        <pt x="930" y="1098" on="0"/>
        <pt x="914" y="1181" on="0"/>
        <pt x="879" y="1249" on="0"/>
        <pt x="827" y="1307" on="0"/>
        <pt x="791" y="1334" on="1"/>
        <pt x="779" y="1342" on="0"/>
        <pt x="748" y="1358" on="0"/>
        <pt x="714" y="1371" on="0"/>
        <pt x="678" y="1381" on="0"/>
        <pt x="662" y="1384" on="1"/>
        <pt x="653" y="1386" on="0"/>
        <pt x="611" y="1387" on="0"/>
        <pt x="598" y="1387" on="1"/>
        <pt x="584" y="1387" on="0"/>
        <pt x="542" y="1386" on="0"/>
        <pt x="503" y="1380" on="0"/>
        <pt x="475" y="1367" on="0"/>
      </contour>
    </TTGlyph>
    <TTGlyph name="Racute" xMin="67" yMin="-9" xMax="1554" yMax="1867">
      <component glyphName="R" x="0" y="0" flags="0x204"/>
      <component glyphName="Acute" x="140" y="0" flags="0x4"/>
    </TTGlyph>
    <TTGlyph name="Rcaron" xMin="67" yMin="-9" xMax="1554" yMax="1864">
      <component glyphName="R" x="0" y="0" flags="0x204"/>
      <component glyphName="Caron" x="213" y="0" flags="0x4"/>
    </TTGlyph>
    <TTGlyph name="Rcommaaccent" xMin="67" yMin="-523" xMax="1554" yMax="1424">
      <component glyphName="R" x="0" y="0" flags="0x204"/>
      <component glyphName="commaaccent" x="700" y="0" flags="0x4"/>
    </TTGlyph>
    <TTGlyph name="Ring" xMin="369" yMin="1474" xMax="760" yMax="1867">
      <contour>
        <pt x="559" y="1867" on="1"/>
        <pt x="601" y="1867" on="0"/>
        <pt x="674" y="1835" on="0"/>
        <pt x="728" y="1780" on="0"/>
        <pt x="760" y="1706" on="0"/>
        <pt x="760" y="1664" on="1"/>
        <pt x="760" y="1631" on="0"/>
        <pt x="741" y="1577" on="0"/>
        <pt x="710" y="1536" on="0"/>
        <pt x="669" y="1506" on="0"/>
        <pt x="647" y="1497" on="1"/>
        <pt x="629" y="1486" on="0"/>
        <pt x="593" y="1474" on="0"/>
        <pt x="575" y="1474" on="1"/>
        <pt x="525" y="1474" on="0"/>
        <pt x="460" y="1507" on="0"/>
        <pt x="440" y="1523" on="1"/>
        <pt x="402" y="1552" on="0"/>
        <pt x="369" y="1636" on="0"/>
        <pt x="369" y="1670" on="1"/>
        <pt x="369" y="1705" on="0"/>
        <pt x="397" y="1777" on="0"/>
        <pt x="424" y="1806" on="1"/>
        <pt x="450" y="1829" on="0"/>
        <pt x="521" y="1867" on="0"/>
      </contour>
      <contour>
        <pt x="566" y="1803" on="1"/>
        <pt x="520" y="1803" on="0"/>
        <pt x="467" y="1763" on="0"/>
        <pt x="452" y="1742" on="1"/>
        <pt x="444" y="1733" on="0"/>
        <pt x="433" y="1694" on="0"/>
        <pt x="433" y="1678" on="1"/>
        <pt x="433" y="1652" on="0"/>
        <pt x="444" y="1611" on="0"/>
        <pt x="462" y="1590" on="1"/>
        <pt x="487" y="1561" on="0"/>
        <pt x="534" y="1545" on="0"/>
        <pt x="569" y="1545" on="1"/>
        <pt x="597" y="1545" on="0"/>
        <pt x="647" y="1564" on="0"/>
        <pt x="664" y="1581" on="1"/>
        <pt x="681" y="1598" on="0"/>
        <pt x="696" y="1652" on="0"/>
        <pt x="696" y="1675" on="1"/>
        <pt x="696" y="1707" on="0"/>
        <pt x="666" y="1762" on="0"/>
        <pt x="637" y="1786" on="1"/>
        <pt x="625" y="1791" on="0"/>
        <pt x="593" y="1803" on="0"/>
      </contour>
    </TTGlyph>
    <TTGlyph name="S" xMin="102" yMin="-5" xMax="974" yMax="1445">
      <contour>
        <pt x="116" y="1071" on="1"/>
        <pt x="116" y="1121" on="0"/>
        <pt x="149" y="1223" on="0"/>
        <pt x="205" y="1314" on="0"/>
        <pt x="280" y="1389" on="0"/>
        <pt x="322" y="1412" on="1"/>
        <pt x="362" y="1435" on="0"/>
        <pt x="445" y="1445" on="0"/>
        <pt x="493" y="1445" on="1"/>
        <pt x="547" y="1445" on="0"/>
        <pt x="651" y="1420" on="0"/>
        <pt x="700" y="1394" on="1"/>
        <pt x="704" y="1391" on="0"/>
        <pt x="726" y="1377" on="0"/>
        <pt x="753" y="1357" on="0"/>
        <pt x="781" y="1336" on="0"/>
        <pt x="792" y="1327" on="1"/>
        <pt x="796" y="1323" on="0"/>
        <pt x="799" y="1323" on="1"/>
        <pt x="800" y="1323" on="0"/>
        <pt x="804" y="1327" on="1"/>
        <pt x="807" y="1331" on="0"/>
        <pt x="816" y="1348" on="0"/>
        <pt x="826" y="1367" on="0"/>
        <pt x="835" y="1384" on="0"/>
        <pt x="837" y="1387" on="1"/>
        <pt x="839" y="1392" on="0"/>
        <pt x="846" y="1400" on="0"/>
        <pt x="847" y="1400" on="1"/>
        <pt x="847" y="1401" on="0"/>
        <pt x="851" y="1401" on="1"/>
        <pt x="857" y="1401" on="0"/>
        <pt x="863" y="1392" on="0"/>
        <pt x="866" y="1380" on="0"/>
        <pt x="866" y="1367" on="0"/>
        <pt x="866" y="1363" on="1"/>
        <pt x="866" y="1356" on="1"/>
        <pt x="866" y="1354" on="0"/>
        <pt x="865" y="1342" on="0"/>
        <pt x="863" y="1327" on="0"/>
        <pt x="862" y="1315" on="0"/>
        <pt x="861" y="1313" on="1"/>
        <pt x="861" y="1066" on="1"/>
        <pt x="861" y="1058" on="0"/>
        <pt x="847" y="1052" on="0"/>
        <pt x="842" y="1052" on="1"/>
        <pt x="831" y="1052" on="0"/>
        <pt x="827" y="1061" on="0"/>
        <pt x="823" y="1073" on="1"/>
        <pt x="812" y="1099" on="0"/>
        <pt x="805" y="1154" on="0"/>
        <pt x="794" y="1183" on="1"/>
        <pt x="783" y="1216" on="0"/>
        <pt x="731" y="1293" on="0"/>
        <pt x="663" y="1359" on="0"/>
        <pt x="589" y="1403" on="0"/>
        <pt x="555" y="1403" on="1"/>
        <pt x="492" y="1403" on="0"/>
        <pt x="458" y="1394" on="1"/>
        <pt x="407" y="1379" on="0"/>
        <pt x="338" y="1312" on="0"/>
        <pt x="309" y="1270" on="1"/>
        <pt x="301" y="1258" on="0"/>
        <pt x="287" y="1221" on="0"/>
        <pt x="278" y="1180" on="0"/>
        <pt x="273" y="1142" on="0"/>
        <pt x="273" y="1130" on="1"/>
        <pt x="273" y="1082" on="0"/>
        <pt x="314" y="1004" on="0"/>
        <pt x="380" y="943" on="0"/>
        <pt x="463" y="896" on="0"/>
        <pt x="505" y="879" on="1"/>
        <pt x="541" y="864" on="0"/>
        <pt x="618" y="836" on="0"/>
        <pt x="693" y="806" on="0"/>
        <pt x="762" y="770" on="0"/>
        <pt x="789" y="747" on="1"/>
        <pt x="823" y="720" on="0"/>
        <pt x="889" y="641" on="0"/>
        <pt x="942" y="548" on="0"/>
        <pt x="974" y="448" on="0"/>
        <pt x="974" y="400" on="1"/>
        <pt x="974" y="307" on="0"/>
        <pt x="909" y="157" on="0"/>
        <pt x="794" y="52" on="0"/>
        <pt x="638" y="-5" on="0"/>
        <pt x="548" y="-5" on="1"/>
        <pt x="495" y="-5" on="0"/>
        <pt x="396" y="6" on="0"/>
        <pt x="306" y="34" on="0"/>
        <pt x="226" y="84" on="0"/>
        <pt x="190" y="123" on="1"/>
        <pt x="186" y="128" on="0"/>
        <pt x="173" y="130" on="0"/>
        <pt x="169" y="130" on="1"/>
        <pt x="152" y="130" on="0"/>
        <pt x="138" y="112" on="0"/>
        <pt x="129" y="89" on="0"/>
        <pt x="117" y="71" on="0"/>
        <pt x="102" y="71" on="1"/>
        <pt x="128" y="346" on="1"/>
        <pt x="130" y="359" on="0"/>
        <pt x="132" y="395" on="0"/>
        <pt x="136" y="401" on="1"/>
        <pt x="139" y="415" on="0"/>
        <pt x="147" y="415" on="1"/>
        <pt x="159" y="415" on="0"/>
        <pt x="164" y="400" on="1"/>
        <pt x="170" y="383" on="0"/>
        <pt x="178" y="350" on="0"/>
        <pt x="184" y="318" on="0"/>
        <pt x="191" y="290" on="0"/>
        <pt x="197" y="279" on="1"/>
        <pt x="220" y="238" on="0"/>
        <pt x="263" y="174" on="0"/>
        <pt x="316" y="120" on="0"/>
        <pt x="386" y="76" on="0"/>
        <pt x="436" y="57" on="1"/>
        <pt x="467" y="46" on="0"/>
        <pt x="523" y="43" on="0"/>
        <pt x="546" y="43" on="1"/>
        <pt x="574" y="43" on="0"/>
        <pt x="630" y="64" on="0"/>
        <pt x="669" y="86" on="1"/>
        <pt x="726" y="120" on="0"/>
        <pt x="794" y="215" on="0"/>
        <pt x="794" y="287" on="1"/>
        <pt x="794" y="338" on="0"/>
        <pt x="757" y="426" on="0"/>
        <pt x="725" y="464" on="1"/>
        <pt x="679" y="515" on="0"/>
        <pt x="595" y="572" on="0"/>
        <pt x="514" y="606" on="0"/>
        <pt x="434" y="630" on="0"/>
        <pt x="351" y="666" on="0"/>
        <pt x="265" y="726" on="0"/>
        <pt x="218" y="780" on="1"/>
        <pt x="116" y="900" on="0"/>
      </contour>
    </TTGlyph>
    <TTGlyph name="Sacute" xMin="102" yMin="-5" xMax="974" yMax="1867">
      <component glyphName="S" x="0" y="0" flags="0x204"/>
      <component glyphName="Acute" x="-30" y="0" flags="0x4"/>
    </TTGlyph>
    <TTGlyph name="Scaron" xMin="102" yMin="-5" xMax="974" yMax="1864">
      <component glyphName="S" x="0" y="0" flags="0x204"/>
      <component glyphName="Caron" x="25" y="0" flags="0x4"/>
    </TTGlyph>
    <TTGlyph name="Scedilla" xMin="102" yMin="-505" xMax="974" yMax="1445">
      <contour>
        <pt x="381" y="-479" on="1"/>
        <pt x="381" y="-473" on="0"/>
        <pt x="398" y="-468" on="0"/>
        <pt x="410" y="-465" on="1"/>
        <pt x="422" y="-463" on="0"/>
        <pt x="451" y="-458" on="0"/>
        <pt x="483" y="-450" on="0"/>
        <pt x="512" y="-441" on="0"/>
        <pt x="524" y="-436" on="1"/>
        <pt x="545" y="-427" on="0"/>
        <pt x="579" y="-392" on="0"/>
        <pt x="605" y="-353" on="0"/>
        <pt x="619" y="-315" on="0"/>
        <pt x="619" y="-303" on="1"/>
        <pt x="619" y="-283" on="0"/>
        <pt x="602" y="-242" on="0"/>
        <pt x="593" y="-228" on="1"/>
        <pt x="573" y="-205" on="0"/>
        <pt x="511" y="-178" on="0"/>
        <pt x="472" y="-178" on="1"/>
        <pt x="455" y="-178" on="0"/>
        <pt x="424" y="-191" on="0"/>
        <pt x="410" y="-197" on="1"/>
        <pt x="390" y="-206" on="0"/>
        <pt x="354" y="-238" on="0"/>
        <pt x="336" y="-247" on="1"/>
        <pt x="330" y="-249" on="1"/>
        <pt x="326" y="-249" on="0"/>
        <pt x="316" y="-241" on="0"/>
        <pt x="313" y="-239" on="1"/>
        <pt x="313" y="-225" on="0"/>
        <pt x="317" y="-208" on="0"/>
        <pt x="325" y="-197" on="1"/>
        <pt x="329" y="-192" on="0"/>
        <pt x="349" y="-170" on="0"/>
        <pt x="371" y="-146" on="0"/>
        <pt x="390" y="-125" on="0"/>
        <pt x="393" y="-121" on="1"/>
        <pt x="404" y="-110" on="0"/>
        <pt x="438" y="-75" on="0"/>
        <pt x="451" y="-61" on="1"/>
        <pt x="467" y="-42" on="0"/>
        <pt x="488" y="-14" on="0"/>
        <pt x="495" y="-4" on="1"/>
        <pt x="406" y="0" on="0"/>
        <pt x="252" y="55" on="0"/>
        <pt x="190" y="123" on="1"/>
        <pt x="186" y="128" on="0"/>
        <pt x="173" y="130" on="0"/>
        <pt x="169" y="130" on="1"/>
        <pt x="152" y="130" on="0"/>
        <pt x="138" y="112" on="0"/>
        <pt x="129" y="89" on="0"/>
        <pt x="117" y="71" on="0"/>
        <pt x="102" y="71" on="1"/>
        <pt x="128" y="346" on="1"/>
        <pt x="130" y="359" on="0"/>
        <pt x="132" y="395" on="0"/>
        <pt x="136" y="401" on="1"/>
        <pt x="139" y="415" on="0"/>
        <pt x="147" y="415" on="1"/>
        <pt x="159" y="415" on="0"/>
        <pt x="164" y="400" on="1"/>
        <pt x="170" y="383" on="0"/>
        <pt x="178" y="350" on="0"/>
        <pt x="184" y="318" on="0"/>
        <pt x="191" y="290" on="0"/>
        <pt x="197" y="279" on="1"/>
        <pt x="220" y="238" on="0"/>
        <pt x="263" y="174" on="0"/>
        <pt x="316" y="120" on="0"/>
        <pt x="386" y="76" on="0"/>
        <pt x="436" y="57" on="1"/>
        <pt x="467" y="46" on="0"/>
        <pt x="523" y="43" on="0"/>
        <pt x="546" y="43" on="1"/>
        <pt x="574" y="43" on="0"/>
        <pt x="630" y="64" on="0"/>
        <pt x="669" y="86" on="1"/>
        <pt x="726" y="120" on="0"/>
        <pt x="794" y="215" on="0"/>
        <pt x="794" y="287" on="1"/>
        <pt x="794" y="338" on="0"/>
        <pt x="757" y="426" on="0"/>
        <pt x="725" y="464" on="1"/>
        <pt x="679" y="515" on="0"/>
        <pt x="595" y="572" on="0"/>
        <pt x="514" y="606" on="0"/>
        <pt x="434" y="630" on="0"/>
        <pt x="351" y="666" on="0"/>
        <pt x="265" y="726" on="0"/>
        <pt x="218" y="780" on="1"/>
        <pt x="116" y="900" on="0"/>
        <pt x="116" y="1071" on="1"/>
        <pt x="116" y="1121" on="0"/>
        <pt x="149" y="1223" on="0"/>
        <pt x="205" y="1314" on="0"/>
        <pt x="280" y="1389" on="0"/>
        <pt x="322" y="1412" on="1"/>
        <pt x="362" y="1435" on="0"/>
        <pt x="445" y="1445" on="0"/>
        <pt x="493" y="1445" on="1"/>
        <pt x="547" y="1445" on="0"/>
        <pt x="651" y="1420" on="0"/>
        <pt x="700" y="1394" on="1"/>
        <pt x="704" y="1391" on="0"/>
        <pt x="726" y="1377" on="0"/>
        <pt x="753" y="1357" on="0"/>
        <pt x="781" y="1336" on="0"/>
        <pt x="792" y="1327" on="1"/>
        <pt x="796" y="1323" on="0"/>
        <pt x="799" y="1323" on="1"/>
        <pt x="800" y="1323" on="0"/>
        <pt x="804" y="1327" on="1"/>
        <pt x="807" y="1331" on="0"/>
        <pt x="816" y="1348" on="0"/>
        <pt x="826" y="1367" on="0"/>
        <pt x="835" y="1384" on="0"/>
        <pt x="837" y="1387" on="1"/>
        <pt x="839" y="1392" on="0"/>
        <pt x="846" y="1400" on="0"/>
        <pt x="847" y="1400" on="1"/>
        <pt x="847" y="1401" on="0"/>
        <pt x="851" y="1401" on="1"/>
        <pt x="857" y="1401" on="0"/>
        <pt x="863" y="1392" on="0"/>
        <pt x="866" y="1380" on="0"/>
        <pt x="866" y="1367" on="0"/>
        <pt x="866" y="1363" on="1"/>
        <pt x="866" y="1356" on="1"/>
        <pt x="866" y="1354" on="0"/>
        <pt x="865" y="1342" on="0"/>
        <pt x="863" y="1327" on="0"/>
        <pt x="862" y="1315" on="0"/>
        <pt x="861" y="1313" on="1"/>
        <pt x="861" y="1066" on="1"/>
        <pt x="861" y="1058" on="0"/>
        <pt x="847" y="1052" on="0"/>
        <pt x="842" y="1052" on="1"/>
        <pt x="831" y="1052" on="0"/>
        <pt x="827" y="1061" on="0"/>
        <pt x="823" y="1073" on="1"/>
        <pt x="812" y="1099" on="0"/>
        <pt x="805" y="1154" on="0"/>
        <pt x="794" y="1183" on="1"/>
        <pt x="783" y="1216" on="0"/>
        <pt x="731" y="1293" on="0"/>
        <pt x="663" y="1359" on="0"/>
        <pt x="589" y="1403" on="0"/>
        <pt x="555" y="1403" on="1"/>
        <pt x="492" y="1403" on="0"/>
        <pt x="458" y="1394" on="1"/>
        <pt x="407" y="1379" on="0"/>
        <pt x="338" y="1312" on="0"/>
        <pt x="309" y="1270" on="1"/>
        <pt x="301" y="1258" on="0"/>
        <pt x="287" y="1221" on="0"/>
        <pt x="278" y="1180" on="0"/>
        <pt x="273" y="1142" on="0"/>
        <pt x="273" y="1130" on="1"/>
        <pt x="273" y="1082" on="0"/>
        <pt x="314" y="1004" on="0"/>
        <pt x="380" y="943" on="0"/>
        <pt x="463" y="896" on="0"/>
        <pt x="505" y="879" on="1"/>
        <pt x="541" y="864" on="0"/>
        <pt x="618" y="836" on="0"/>
        <pt x="693" y="806" on="0"/>
        <pt x="762" y="770" on="0"/>
        <pt x="789" y="747" on="1"/>
        <pt x="823" y="720" on="0"/>
        <pt x="889" y="641" on="0"/>
        <pt x="942" y="548" on="0"/>
        <pt x="974" y="448" on="0"/>
        <pt x="974" y="400" on="1"/>
        <pt x="974" y="307" on="0"/>
        <pt x="909" y="158" on="0"/>
        <pt x="795" y="53" on="0"/>
        <pt x="641" y="-4" on="0"/>
        <pt x="551" y="-5" on="1"/>
        <pt x="547" y="-13" on="0"/>
        <pt x="541" y="-25" on="0"/>
        <pt x="536" y="-38" on="0"/>
        <pt x="530" y="-54" on="0"/>
        <pt x="526" y="-66" on="1"/>
        <pt x="556" y="-69" on="0"/>
        <pt x="614" y="-90" on="0"/>
        <pt x="665" y="-124" on="0"/>
        <pt x="706" y="-169" on="0"/>
        <pt x="718" y="-197" on="1"/>
        <pt x="729" y="-220" on="0"/>
        <pt x="737" y="-270" on="0"/>
        <pt x="737" y="-296" on="1"/>
        <pt x="737" y="-316" on="0"/>
        <pt x="715" y="-369" on="0"/>
        <pt x="700" y="-389" on="1"/>
        <pt x="683" y="-412" on="0"/>
        <pt x="625" y="-457" on="0"/>
        <pt x="595" y="-471" on="1"/>
        <pt x="569" y="-484" on="0"/>
        <pt x="492" y="-505" on="0"/>
        <pt x="458" y="-505" on="1"/>
        <pt x="447" y="-504" on="0"/>
        <pt x="423" y="-503" on="0"/>
        <pt x="402" y="-499" on="0"/>
        <pt x="385" y="-489" on="0"/>
      </contour>
    </TTGlyph>
    <TTGlyph name="Scommaaccent" xMin="102" yMin="-523" xMax="974" yMax="1445">
      <component glyphName="S" x="0" y="0" flags="0x204"/>
      <component glyphName="commaaccent" x="521" y="0" flags="0x4"/>
    </TTGlyph>
</ttFont>
